<svg width="283" height="37" viewBox="0 0 283 37" fill="none" xmlns="http://www.w3.org/2000/svg">
<path d="M283 8.51291C282.675 8.64251 282.334 8.73012 281.987 8.77362C280.046 8.80022 278.106 8.77362 276.165 8.77362C275.014 8.77362 274.731 9.05561 274.731 10.1729C274.731 18.2886 274.731 26.4006 274.731 34.5092C274.731 35.5733 274.566 35.7542 273.452 35.7542C271.948 35.7542 270.45 35.7542 268.952 35.7542C268.062 35.7542 267.832 35.5254 267.832 34.6369C267.832 26.5212 267.832 18.4092 267.832 10.3006C267.832 9.35888 267.72 8.62996 266.851 7.99681C265.023 6.65603 263.295 5.17692 261.52 3.74036C260.854 3.20831 260.209 2.63901 259.516 2.05374H270.546C273.398 2.05374 276.251 2.11227 279.076 2.05374C280.878 2.00054 282.216 2.5592 282.957 4.25646L283 8.51291Z" fill="white"/>
<path d="M250.394 29.1141C252.595 29.1538 254.741 28.434 256.472 27.0763C257.325 26.4219 257.9 26.3421 258.673 27.0231C259.736 27.9908 260.744 29.0176 261.691 30.0984C261.892 30.3841 261.982 30.7325 261.946 31.0796C261.91 31.4267 261.749 31.749 261.494 31.9872C259.548 33.6987 257.201 34.8919 254.67 35.4562C253.287 35.7989 251.871 35.988 250.447 36.0202C246.385 35.9564 242.669 34.8231 239.481 32.1681C237.082 30.2301 235.252 27.6826 234.182 24.7938C233.785 23.5632 233.503 22.2986 233.339 21.0162C233.204 20.1542 233.154 19.2809 233.19 18.4091C233.263 14.6008 234.651 10.9344 237.119 8.02872C238.626 6.19546 240.481 4.67826 242.578 3.56476C244.36 2.63371 246.311 2.06921 248.315 1.90475C250.922 1.66919 253.55 1.97349 256.034 2.7986C258.013 3.50446 259.858 4.53682 261.494 5.85261C261.738 6.08854 261.895 6.40102 261.936 6.73795C261.978 7.07488 261.903 7.4159 261.723 7.70416C260.727 8.84033 259.671 9.92366 258.562 10.9497C257.922 11.5296 257.255 11.3966 256.525 10.8327C255.3 9.90063 253.879 9.25797 252.369 8.95302C250.859 8.64807 249.3 8.68877 247.808 9.07205C246.316 9.45533 244.931 10.1712 243.757 11.1659C242.582 12.1605 241.649 13.408 241.027 14.8145C240.405 16.221 240.111 17.75 240.167 19.2863C240.223 20.8226 240.627 22.3263 241.349 23.6843C242.071 25.0423 243.092 26.2192 244.335 27.1265C245.579 28.0338 247.012 28.6479 248.528 28.9226C249.136 28.9971 249.765 29.0449 250.394 29.1141Z" fill="white"/>
<path d="M212.824 18.9252V3.53285C212.824 2.42085 213.299 1.93668 214.424 1.93668C220.203 1.93668 225.978 1.93668 231.75 1.93668C231.962 1.92358 232.174 1.95625 232.371 2.03243C232.569 2.10862 232.748 2.22653 232.896 2.3781C233.044 2.52967 233.157 2.71132 233.228 2.91062C233.299 3.10992 233.326 3.32218 233.307 3.53285C233.307 4.77786 233.307 6.0282 233.307 7.25725C233.338 7.46401 233.321 7.6752 233.255 7.87394C233.19 8.07268 233.079 8.25346 232.932 8.40183C232.784 8.55021 232.604 8.66206 232.405 8.72846C232.206 8.79486 231.995 8.81397 231.788 8.78425H221.392C220.224 8.78425 219.739 9.2631 219.739 10.3804C219.739 11.4977 219.739 12.7747 219.739 13.9718C219.739 14.988 220.133 15.3924 221.141 15.3924C223.423 15.3924 225.71 15.3924 227.997 15.3924C229.309 15.3924 229.991 15.9511 229.922 17.3078C229.863 18.4783 229.922 19.6542 229.922 20.8247C229.938 21.0192 229.912 21.2149 229.844 21.398C229.776 21.5811 229.669 21.7469 229.529 21.8837C229.389 22.0204 229.221 22.1247 229.037 22.1891C228.852 22.2534 228.655 22.2762 228.461 22.2559C226.126 22.2559 223.791 22.2559 221.461 22.2559C220.24 22.2559 219.659 22.9902 219.728 23.9798C219.814 25.1716 219.728 26.374 219.728 27.5712C219.728 28.4757 220.155 28.8907 221.077 28.8907C224.518 28.8907 227.958 28.8907 231.398 28.8907C232.694 28.8907 233.36 29.4653 233.302 30.7529C233.248 31.95 233.302 33.1471 233.302 34.3442C233.316 34.5326 233.289 34.7218 233.224 34.899C233.158 35.0761 233.055 35.2371 232.922 35.3709C232.788 35.5047 232.627 35.6082 232.45 35.6744C232.272 35.7405 232.083 35.7677 231.894 35.7542C225.969 35.7542 220.048 35.7542 214.13 35.7542C213.229 35.7542 212.84 35.3339 212.84 34.3868C212.83 29.2365 212.824 24.0826 212.824 18.9252Z" fill="white"/>
<path d="M195.13 22.1442V10.4389C195.13 9.30034 194.644 8.81617 193.482 8.81084C191.739 8.81084 189.996 8.81084 188.247 8.81084C187.271 8.81084 186.877 8.41712 186.871 7.4541C186.871 6.0814 186.871 4.71401 186.871 3.34662C186.85 3.17676 186.867 3.00415 186.923 2.8421C186.978 2.68006 187.07 2.53294 187.192 2.41209C187.314 2.29125 187.461 2.19992 187.624 2.14516C187.787 2.0904 187.96 2.07368 188.13 2.09629C195.082 2.09629 202.035 2.09629 208.991 2.09629C209.179 2.07906 209.369 2.10267 209.547 2.16549C209.726 2.22832 209.888 2.32887 210.024 2.46027C210.16 2.59166 210.265 2.75078 210.334 2.92673C210.402 3.10268 210.431 3.29129 210.42 3.47964C210.452 4.84702 210.446 6.21973 210.42 7.58712C210.419 7.75526 210.383 7.9214 210.315 8.07536C210.248 8.22932 210.149 8.36784 210.026 8.48242C209.903 8.59701 209.757 8.68525 209.598 8.74172C209.44 8.7982 209.271 8.82172 209.103 8.81084H203.948C202.636 8.81084 202.028 9.41207 202.023 10.6996V34.2804C202.023 35.3977 201.671 35.7595 200.552 35.7648C199.272 35.7648 197.998 35.7648 196.718 35.7648C195.62 35.7648 195.119 35.2807 195.119 34.1687C195.119 30.3343 195.119 26.4964 195.119 22.655L195.13 22.1442Z" fill="white"/>
<path d="M171.677 35.7648C162.289 36.084 154.388 28.1351 154.42 18.6964C154.449 16.3595 154.951 14.0526 155.896 11.9142C156.841 9.77583 158.209 7.85017 159.919 6.25291C161.628 4.65566 163.644 3.41978 165.844 2.61953C168.044 1.81927 170.384 1.47117 172.722 1.59613C180.799 1.98985 189.388 9.19389 188.94 19.686C188.604 28.0234 181.167 36.1319 171.677 35.7648ZM173.954 18.5421C176.476 16.1692 175.857 13.7536 173.98 12.1574C173.166 11.547 172.143 11.2817 171.133 11.4192C170.124 11.5567 169.209 12.0859 168.588 12.892C167.967 13.698 167.69 14.7159 167.816 15.7249C167.942 16.7338 168.462 17.6524 169.262 18.2814L167.13 26.3527H177.025C175.98 23.7403 174.972 21.1598 173.954 18.5421Z" fill="white"/>
<path d="M129.806 18.622V2.94757C129.806 1.95795 129.848 1.92071 130.872 1.92071C134.364 1.92071 137.851 1.92071 141.343 1.92071C142.956 1.90603 144.555 2.21869 146.043 2.83972C147.532 3.46075 148.878 4.37718 150.001 5.53337C150.962 6.43726 151.722 7.532 152.234 8.7471C152.745 9.96221 152.996 11.2707 152.97 12.5884C152.943 14.8178 152.847 16.9885 151.723 18.9731C150.79 20.6172 149.691 22.1282 147.884 22.9742C147.079 23.3573 147.026 23.6712 147.532 24.4586C149.073 26.8369 150.63 29.2046 152.176 31.5829C152.709 32.4075 153.279 33.2163 153.775 34.0729C154.271 34.9295 153.908 35.6158 152.831 35.6212C150.939 35.6212 149.046 35.6212 147.154 35.6212C146.89 35.6438 146.626 35.5907 146.391 35.4681C146.157 35.3456 145.963 35.1587 145.831 34.9295C143.32 31.0561 140.777 27.2094 138.25 23.3466C137.995 22.9582 137.744 22.6071 137.221 22.7241C136.699 22.8412 136.72 23.2562 136.72 23.6446C136.72 27.1668 136.72 30.6837 136.72 34.2006C136.72 35.3924 136.502 35.6158 135.334 35.6158H130.909C130.078 35.6158 129.843 35.3658 129.843 34.5517L129.806 18.622ZM136.704 13.2109V16.813C136.704 17.5844 137.014 17.8771 137.808 17.8771C138.874 17.8771 139.94 17.8771 141.049 17.8771C142.01 17.9211 142.96 17.6601 143.763 17.1314C144.566 16.6028 145.18 15.8337 145.517 14.9348C146.466 12.8066 145.373 10.0718 143.411 9.26841C141.449 8.465 139.461 8.59801 137.456 8.64058C136.987 8.64058 136.672 9.02366 136.694 9.61424C136.736 10.838 136.704 12.0351 136.704 13.2269V13.2109Z" fill="white"/>
<path d="M102.083 36.2064V35.419C102.083 25.1343 102.083 14.8496 102.083 4.55967C102.134 3.8666 102.435 3.21546 102.93 2.72649C103.425 2.23753 104.08 1.94374 104.775 1.89939C108.582 1.95792 112.388 1.84619 116.195 1.94728C119.074 2.02176 121.846 2.62831 124.25 4.36813C125.988 5.63213 127.176 7.51056 127.572 9.61953C127.993 11.3217 128.036 13.0951 127.698 14.8156C127.36 16.5361 126.649 18.162 125.615 19.5796C125.006 20.5005 124.196 21.2721 123.246 21.8368C122.296 22.4016 121.231 22.7449 120.129 22.8411C117.65 23.0327 115.161 23.0699 112.666 23.1497C111.599 23.1817 111.21 23.5435 111.21 24.5916C111.21 27.9382 111.21 31.2849 111.21 34.6315C111.21 35.5998 110.746 36.2702 109.653 36.2277C107.398 36.1425 105.132 36.2277 102.877 36.2277L102.083 36.2064Z" fill="white"/>
<path d="M69.5195 35.9138V1.48442H70.3299C75.096 1.48442 79.8675 1.37269 84.6284 1.51634C89.0107 1.64404 92.9665 3.04867 95.9147 6.46979C98.0682 8.83302 99.4757 11.7774 99.9612 14.9348C100.241 16.7312 100.336 18.5515 100.244 20.3671C99.9238 25.0439 98.1112 29.0928 94.4966 32.2C92.3373 34.078 89.6629 35.2661 86.8195 35.6105C85.5681 35.7805 84.3078 35.8764 83.045 35.8978C78.8173 35.9351 74.5896 35.8978 70.3672 35.8978L69.5195 35.9138ZM78.0176 18.888C78.0176 20.8406 78.0176 22.7933 78.0176 24.7406C78.0069 25.0328 78.0768 25.3222 78.2197 25.5774C78.3626 25.8326 78.573 26.0438 78.8279 26.1878C79.0649 26.3343 79.3417 26.4033 79.6199 26.3852C79.898 26.367 80.1635 26.2627 80.3794 26.0867C80.7952 25.7994 81.2537 25.5813 81.6962 25.3365C84.767 23.586 87.8485 21.8462 90.914 20.0798C91.8736 19.5477 92.2468 18.2016 90.914 17.4195C89.7411 16.7172 88.5362 16.0574 87.342 15.3871C85.1189 14.1314 82.8797 12.9024 80.6832 11.6041C80.1021 11.2583 79.521 11.0242 78.9559 11.3541C78.648 11.5277 78.3956 11.7847 78.2277 12.0954C78.0598 12.406 77.9833 12.7577 78.0069 13.1099C78.0389 15.0359 78.0176 16.9619 78.0176 18.8933V18.888Z" fill="#D35F5F"/>
<path d="M57.0227 24.4373C56.8788 23.2083 56.9214 22.3091 57.8544 21.4259C60.9625 18.4783 64.5931 14.8018 67.6373 11.7744C67.7652 12.9822 67.7386 13.9026 66.7576 14.839C63.6548 17.76 57.0227 24.4373 57.0227 24.4373Z" fill="white"/>
<path d="M57.0121 28.2628C56.8202 27.1189 57.1987 26.0229 58.0304 25.1982C61.2291 22.1176 64.3639 18.9412 67.6746 15.6212C67.6746 16.7077 67.8719 17.5206 67.0242 18.3347L57.0121 28.2628Z" fill="white"/>
<path d="M67.584 3.87339C67.8452 5.22481 67.616 6.09206 66.7203 6.94335C63.6495 9.86967 60.1439 13.3434 57.121 16.3388C56.8704 15.2747 56.8255 14.5996 57.6571 13.7856C60.8079 10.7742 64.4972 6.954 67.584 3.87339Z" fill="white"/>
<path d="M57.0472 32.199C56.911 31.6978 56.9001 31.0092 57.0621 30.5156C57.2241 30.0221 57.4161 29.7608 57.9344 29.2631C61.1864 26.1399 64.3319 22.9263 67.6426 19.6542C67.8174 21.5026 67.8174 21.5026 66.9869 22.3623C63.8307 25.3791 60.1341 29.1184 57.0472 32.199Z" fill="white"/>
<path d="M67.6906 23.602C67.6906 24.2352 67.7279 24.6981 67.6906 25.1503C67.6629 25.427 67.5513 25.6887 67.3707 25.9005C64.1364 29.1425 60.4469 32.8214 57.1948 36.035C57.0531 35.5719 56.915 35.0204 57.0504 34.5554C57.1858 34.0905 57.4541 33.6751 57.8224 33.3599C60.9412 30.3591 64.6145 26.656 67.6906 23.602Z" fill="white"/>
<path d="M68.0387 1.59584L67.4027 2.22933C64.1151 5.52453 60.4264 9.10702 57.121 12.3809C56.9278 12.0958 56.9395 11.6691 56.9395 11.3248C56.9395 10.9806 57.0428 10.6443 57.236 10.3592L65.91 1.78772C66.5821 1.14255 67.0797 0.99501 68.0387 1.58514V1.59584Z" fill="white"/>
<path d="M59.4538 35.8819L67.6693 27.7148C67.7437 28.5106 67.9317 29.3631 67.0562 30.2261C65.3831 31.8755 63.8339 33.3793 62.2261 35.0147C61.3258 35.9303 60.4294 35.9617 59.4538 35.8819Z" fill="white"/>
<path d="M64.2519 1.71855L57.0014 8.83747C56.9747 7.6297 56.7522 6.8227 57.7158 5.87391L61.3197 2.30914C61.3197 2.30914 61.8933 1.74223 62.2694 1.59584C62.6455 1.44946 63.0547 1.40908 63.4522 1.47913C63.668 1.51715 64.0552 1.65891 64.2519 1.71855Z" fill="white"/>
<path d="M67.6319 31.8755C67.6319 32.4203 67.8865 33.2117 67.3174 33.8761C66.3421 35.0147 65.3768 36.5363 63.5855 35.8926L67.6319 31.8755Z" fill="white"/>
<path d="M60.0509 1.53232L57.0334 4.53844C56.5163 2.55919 57.6465 1.06411 60.0509 1.53232Z" fill="white"/>
<path d="M50.7695 35.9138C49.49 35.9138 48.2105 35.9138 46.9363 35.9138C46.8514 35.9306 46.764 35.93 46.6793 35.9121C46.5946 35.8942 46.5144 35.8593 46.4437 35.8095C46.3729 35.7598 46.313 35.6962 46.2675 35.6227C46.2221 35.5492 46.192 35.4672 46.1793 35.3818C45.6461 33.5142 45.113 31.6574 44.5799 29.7898C44.4519 29.3216 44.2707 29.1673 43.7962 29.1727C41.4344 29.1727 39.078 29.1993 36.7162 29.1727C36.5191 29.1459 36.3192 29.1956 36.1576 29.3113C35.996 29.4271 35.8849 29.6002 35.8472 29.7952C35.3141 31.7052 34.781 33.6207 34.1999 35.5201C34.152 35.6159 34.0821 35.699 33.996 35.7628C33.9098 35.8266 33.8098 35.8692 33.7041 35.8872C30.8252 35.8872 27.9516 35.8872 25.0781 35.8872C24.5449 35.8872 24.5023 35.6371 24.6462 35.1849C25.2966 33.1578 25.9257 31.12 26.5495 29.0875C28.0991 24.0543 29.6452 19.021 31.1877 13.9878C32.1153 11.0189 33.0696 8.03405 33.9973 5.03858C34.2958 4.08087 34.5624 3.11253 34.8663 2.15483C34.9782 1.79835 35.0529 1.46316 35.618 1.46848C39.0567 1.5004 42.4954 1.46848 45.9394 1.46848C46.3712 1.46848 46.4725 1.6547 46.6164 2.00053C47.9812 6.34211 49.3549 10.6872 50.7375 15.0359C52.1396 19.4626 53.5578 23.884 54.9279 28.3373C55.1531 29.147 55.2749 29.9819 55.2904 30.822C55.3491 32.3118 55.2904 33.8016 55.2904 35.2913C55.2904 35.7648 55.1358 35.9457 54.656 35.9351C53.3712 35.8979 52.0703 35.9138 50.7695 35.9138ZM38.3423 21.3301C38.4436 21.378 38.5022 21.4366 38.5715 21.4366C39.7337 21.4844 40.896 21.5323 42.0582 21.5323C42.1595 21.5323 42.3727 21.1333 42.3301 21.0003C41.797 18.9838 41.2158 16.9779 40.6507 14.9721L40.3468 14.8976C39.4885 16.9354 39.0887 19.154 38.3423 21.3301Z" fill="#D35F5F"/>
<path d="M14.9163 0C15.5188 0.101091 16.1212 0.223464 16.7236 0.303272C19.6932 0.696994 22.4121 1.59617 24.502 3.89997C25.6381 5.15614 26.3796 6.71757 26.6345 8.39053C27.085 10.732 26.9588 13.1476 26.2666 15.4296C25.419 18.058 23.6596 19.8883 21.3139 21.2344C21.1486 21.3301 20.9673 21.41 20.7807 21.5004C20.7381 21.5004 20.7114 21.5696 20.6155 21.6813C21.1859 22.7135 21.767 23.7776 22.3641 24.8311C23.0625 26.0654 23.7876 27.2892 24.4967 28.5555C24.5923 28.7661 24.6094 29.0039 24.5446 29.2259C23.9209 31.2849 23.2598 33.3387 22.6467 35.403C22.6155 35.5752 22.5172 35.7279 22.3732 35.8277C22.2293 35.9275 22.0515 35.9661 21.879 35.9351C19.2987 35.9351 16.7183 35.9351 14.138 35.9351C13.976 35.9555 13.8121 35.9159 13.6775 35.8237C13.5428 35.7315 13.4468 35.5931 13.4076 35.435C12.3413 32.9769 11.1738 30.54 10.0382 28.1032C9.96126 27.9531 9.87582 27.8074 9.78231 27.6669L9.5584 27.768C9.51537 28.0037 9.48688 28.2418 9.4731 28.481C9.4731 30.6837 9.44644 32.8811 9.4731 35.0785C9.4731 35.701 9.33448 35.9457 8.65741 35.9298C6.89276 35.8819 5.12277 35.9298 3.32613 35.9298C2.39848 35.9298 1.47084 35.8606 0.553861 35.7648C0.361935 35.7648 0.154015 35.4616 0.0473892 35.2328C-0.0592365 35.004 0.0473892 34.8497 0.0473892 34.6528C0.0420579 23.9425 0.063383 13.2482 0.0100702 2.54323C0.00473892 1.2929 0.335278 0.462889 1.47617 0H14.9163Z" fill="#D35F5F"/>
</svg>
