<svg width="1017" height="1017" viewBox="0 0 1017 1017" fill="none" xmlns="http://www.w3.org/2000/svg">
<path d="M1017 508.5C1017 789.337 789.337 1017 508.5 1017C227.663 1017 0 789.337 0 508.5C0 227.663 227.663 0 508.5 0C789.337 0 1017 227.663 1017 508.5Z" fill="#D35F5F"/>
<path d="M640.3 653.6L578 543.66C611.61 528.49 634 499.12 634 452.91C634 378.18 579.24 355.04 512.44 355.04H413.61C411.695 355.034 409.798 355.405 408.027 356.132C406.256 356.86 404.646 357.929 403.289 359.28C401.932 360.63 400.855 362.235 400.119 364.003C399.383 365.77 399.003 367.666 399 369.58V668.58L460.61 669.35H481.15V588.09L518.6 669.33H631.11C632.954 669.333 634.766 668.852 636.366 667.936C637.966 667.019 639.297 665.699 640.227 664.107C641.157 662.515 641.653 660.707 641.666 658.863C641.679 657.02 641.208 655.205 640.3 653.6Z" fill="white"/>
<path fill-rule="evenodd" clip-rule="evenodd" d="M835.607 412.892C836.733 409.09 837.832 405.38 837.89 405.199C841.123 393.538 839.636 381.073 833.752 370.499C827.868 359.925 818.059 352.091 806.445 348.691C794.832 345.291 782.347 346.598 771.689 352.33C761.031 358.061 753.057 367.756 749.49 379.319C749.37 379.729 744.91 394.969 744.8 395.379L737.18 393.149L718.74 455.829L822.32 486.159L840.76 423.439L833.14 421.199C833.207 420.994 834.422 416.892 835.607 412.892ZM780.951 368.907C774.756 372.279 770.149 377.968 768.14 384.729H768.11C768.071 384.876 767.474 386.916 766.719 389.494C765.362 394.13 763.495 400.504 763.45 400.729L814.55 415.729C814.69 415.369 819.18 400.139 819.3 399.729C821.26 392.954 820.455 385.678 817.061 379.495C813.667 373.312 807.962 368.726 801.193 366.742C794.425 364.757 787.146 365.536 780.951 368.907Z" fill="white"/>
<path d="M750.839 262.35L783.599 325.66L795.209 313.97C795.359 313.82 810.629 298.41 828.529 283.41C860.969 256.19 871.319 255.8 872.419 255.8C875.591 255.904 878.675 254.748 880.997 252.585C883.319 250.422 884.691 247.428 884.813 244.257C884.934 241.086 883.796 237.996 881.646 235.662C879.496 233.328 876.51 231.939 873.339 231.8C864.849 231.47 849.359 234.58 812.969 265.12C804.159 272.52 796.079 279.88 789.919 285.68L772.159 251.35C770.649 248.615 768.132 246.577 765.143 245.669C762.154 244.761 758.928 245.054 756.152 246.486C753.376 247.919 751.268 250.377 750.275 253.34C749.283 256.302 749.486 259.534 750.839 262.35Z" fill="white"/>
<path fill-rule="evenodd" clip-rule="evenodd" d="M735.369 292.531C735.055 289.378 734.384 286.271 733.369 283.271C727.369 265.041 709.079 253.691 689.909 255.271L685.999 255.581C684.759 255.821 683.539 256.111 682.339 256.451L675.279 243.091L686.749 237.301C688.505 236.349 689.935 234.894 690.857 233.123C691.778 231.351 692.148 229.344 691.919 227.361C691.814 226.207 691.52 225.079 691.049 224.021C688.839 219.021 683.319 216.831 678.729 219.151L666.029 225.571L662.229 218.361L681.229 208.531C683.554 207.37 685.353 205.37 686.262 202.935C687.172 200.501 687.124 197.812 686.129 195.411C685.574 194.146 684.766 193.009 683.754 192.07C682.742 191.131 681.548 190.409 680.246 189.95C678.944 189.49 677.562 189.303 676.184 189.4C674.807 189.496 673.464 189.874 672.239 190.511L644.159 205.031C642.893 205.654 641.77 206.533 640.859 207.611C639.586 209.145 638.796 211.022 638.589 213.005C638.383 214.988 638.769 216.987 639.699 218.751L663.539 263.911C663.925 264.642 664.074 265.476 663.967 266.296C663.859 267.116 663.5 267.883 662.939 268.491C661.646 269.917 660.453 271.43 659.369 273.021C656.278 277.53 654.114 282.608 653.001 287.961C651.889 293.313 651.851 298.833 652.889 304.201C654.903 314.718 660.885 324.058 669.598 330.285C678.31 336.512 689.084 339.148 699.687 337.648C710.29 336.148 719.91 330.626 726.553 322.227C733.195 313.827 736.352 303.194 735.369 292.531ZM681.009 314.516C684.5 317.185 688.704 318.76 693.089 319.041C696.007 319.225 698.932 318.833 701.698 317.886C704.464 316.939 707.016 315.457 709.208 313.523C711.401 311.59 713.191 309.243 714.476 306.617C715.762 303.992 716.517 301.138 716.699 298.221C716.969 293.835 715.933 289.467 713.721 285.67C711.51 281.872 708.223 278.816 704.275 276.885C700.328 274.955 695.897 274.238 691.542 274.825C687.187 275.412 683.104 277.277 679.808 280.183C676.512 283.089 674.152 286.907 673.025 291.154C671.897 295.402 672.054 299.888 673.476 304.046C674.897 308.204 677.518 311.847 681.009 314.516Z" fill="white"/>
<path d="M285 701.63L276.52 731V731.04C275.553 734.353 273.313 737.149 270.29 738.814C267.266 740.479 263.706 740.879 260.389 739.925C257.072 738.972 254.268 736.742 252.59 733.726C250.913 730.709 250.499 727.151 251.44 723.83L259.59 695.58L231.17 688.83C227.815 688.047 224.907 685.964 223.086 683.039C221.266 680.114 220.681 676.586 221.46 673.23C221.853 671.562 222.573 669.989 223.576 668.6C224.58 667.211 225.848 666.035 227.308 665.138C228.768 664.241 230.391 663.642 232.084 663.374C233.776 663.107 235.505 663.177 237.17 663.58L266.78 670.58L274.64 643.37C275.596 640.045 277.834 637.237 280.86 635.562C283.887 633.887 287.455 633.484 290.78 634.44C294.104 635.396 296.913 637.633 298.588 640.66C300.262 643.687 300.666 647.255 299.71 650.58L292.19 676.58L318.81 682.91C320.473 683.304 322.042 684.021 323.428 685.022C324.814 686.022 325.989 687.286 326.887 688.741C327.784 690.195 328.386 691.812 328.659 693.5C328.931 695.187 328.869 696.912 328.475 698.575C328.081 700.238 327.363 701.807 326.363 703.193C325.362 704.579 324.099 705.754 322.644 706.652C321.189 707.549 319.572 708.151 317.885 708.424C316.198 708.696 314.473 708.634 312.81 708.24L285 701.63Z" fill="white"/>
<path fill-rule="evenodd" clip-rule="evenodd" d="M227.7 808.91C227.839 807.313 228.378 805.777 229.268 804.444C230.157 803.11 231.369 802.022 232.79 801.28L298.65 767.28C300.116 766.523 301.757 766.168 303.405 766.252C305.053 766.337 306.649 766.857 308.03 767.76C309.418 768.673 310.543 769.933 311.292 771.416C312.042 772.898 312.389 774.552 312.3 776.21L308.42 850.83C308.342 852.494 307.83 854.109 306.933 855.513C306.036 856.917 304.787 858.061 303.31 858.83C301.845 859.593 300.203 859.951 298.554 859.866C296.905 859.782 295.309 859.259 293.93 858.35L262.93 838.07L231.93 817.79C230.545 816.876 229.423 815.614 228.675 814.132C227.928 812.65 227.581 810.998 227.67 809.34C227.682 809.216 227.686 809.126 227.69 809.051C227.693 809 227.696 808.955 227.7 808.91ZM255.83 810.69L292.7 791.64L290.53 833.4L255.83 810.69Z" fill="white"/>
<path fill-rule="evenodd" clip-rule="evenodd" d="M411.119 850.38C399.783 850.306 388.712 846.944 379.25 840.701C369.787 834.459 362.339 825.605 357.81 815.213C353.28 804.82 351.864 793.337 353.733 782.156C355.602 770.975 360.675 760.576 368.338 752.222C376 743.867 385.923 737.916 396.901 735.09C407.879 732.264 419.442 732.685 430.186 736.301C440.93 739.918 450.394 746.574 457.429 755.464C464.464 764.353 468.768 775.093 469.819 786.38C471.229 801.877 466.429 817.3 456.474 829.261C446.52 841.222 432.225 848.742 416.729 850.17C414.849 850.29 412.999 850.38 411.119 850.38ZM407.909 756.84C409.029 756.69 410.139 756.69 411.249 756.69C420.012 756.69 428.462 759.949 434.955 765.834C441.448 771.719 445.52 779.809 446.379 788.53C447.224 797.827 444.345 807.08 438.373 814.255C432.401 821.431 423.825 825.943 414.529 826.8C413.409 826.95 412.299 826.95 411.189 826.95C402.112 827.021 393.36 823.574 386.769 817.332C380.177 811.091 376.259 802.54 375.834 793.472C375.41 784.405 378.513 775.525 384.493 768.695C390.473 761.866 398.865 757.617 407.909 756.84Z" fill="white"/>
<path d="M235.67 604.76C239.41 615.52 243.653 626.05 248.4 636.35C248.53 635.63 252.23 617.46 268.77 609.25C273.599 606.831 278.873 605.43 284.266 605.134C289.659 604.838 295.055 605.654 300.12 607.53C282.98 568.53 273.68 524.67 274.02 476.4C274.96 344.33 274.12 342.82 273.95 337.99C275.25 337.91 410.24 329.36 516.35 247.99C553.11 275.56 591.79 294.66 627.08 307.89C625.223 299.495 625.223 290.795 627.08 282.4C630.19 268.61 635.26 263.54 635.26 263.54L625.07 244.23L624.48 243.15C598.727 231.82 574.333 217.624 551.76 200.83L516 174L480.5 201.21C434.05 236.83 380.1 255.99 343 265.83C301.61 276.83 271.08 279.03 270.21 279.09L213 282.62L215 339.99C215 340.75 215.06 341.45 215.1 342.29C215.61 352.55 215.59 397.53 215.03 475.98C214.7 521.1 221.65 564.42 235.67 604.76ZM758.76 492.57C756.12 647.83 653.89 747.83 516.35 788.64C508.877 786.333 501.523 783.84 494.29 781.16C495.033 786.015 495.424 790.918 495.46 795.83C495.46 803.67 494.46 822.92 483.93 840.07C488.897 841.783 493.897 843.42 498.93 844.98L516 850.28L533.11 845.2C574.16 833.01 612.11 816.2 645.87 795.34C681.62 773.22 712.58 746.55 737.87 716.07C764.591 683.938 785.155 647.152 798.53 607.56C809.168 575.742 815.428 542.625 817.14 509.12L758.76 492.57Z" fill="white"/>
</svg>
