<svg width="20" height="20" viewBox="0 0 20 20" fill="none" xmlns="http://www.w3.org/2000/svg">
<g clip-path="url(#clip0_3074_2383)">
<path d="M13.5156 7.03516C13.5156 8.03906 14.1133 10.8828 10.0352 10.8828C8.19141 10.8828 6.84375 8.03516 6.84375 7.03516C6.84375 6.03125 8.33594 5.21875 10.1797 5.21875C12.0234 5.21875 13.5156 6.03125 13.5156 7.03516Z" fill="#33691E"/>
<path d="M16.5274 12.1406H3.53906V10.7734C3.53906 10.3945 3.84375 10.0898 4.22267 10.0898H15.8438C16.2227 10.0898 16.5274 10.3945 16.5274 10.7734V12.1406Z" fill="#FF7043"/>
<path d="M15.1602 18.9766H4.90627L3.53906 12.1406H16.5274L15.1602 18.9766Z" fill="#FF5722"/>
<path d="M16.1836 20H3.87891C3.3125 20 2.85547 19.543 2.85547 18.9766V18.6367H17.211V18.9766C17.211 19.543 16.7539 20 16.1875 20H16.1836Z" fill="#D84315"/>
<path d="M8.07424 1.37889C8.07424 1.37889 8.78517 0.593738 8.27345 0.296863C8.01174 0.144519 7.80861 0.374988 7.67189 0.640613C7.71486 0.421863 7.69533 0.1953 7.47658 0.113269C6.9922 -0.0703249 6.28127 0.312488 5.98049 0.597645C5.80861 0.761707 5.94142 1.01561 6.08595 1.20311C5.87502 1.01171 5.55861 0.835926 5.33986 1.22264C5.06642 1.70311 5.49611 1.82421 5.71095 1.85155C5.5508 1.84764 5.26564 1.88671 5.22658 2.23046C5.16799 2.71483 6.73439 2.47264 6.73439 2.47264C7.21486 2.42186 7.13283 2.1328 7.13283 2.1328C7.13283 2.1328 7.70314 2.31639 8.04689 1.96093C8.39064 1.60546 8.07424 1.37499 8.07424 1.37499V1.37889Z" fill="#E53935"/>
<path d="M15.1446 5.83204C15.1289 4.82032 14.2032 5.19141 14.2032 5.19141C14.2032 5.19141 14.8985 4.77735 14.1055 4.14845C13.3125 3.51952 13.0157 4.02735 13.0157 4.02735C13.0157 4.02735 13.1172 3.63671 12.5664 3.37109C12.0157 3.10546 11.2071 2.58984 11.3164 3.15624C11.3164 3.15624 11.5274 4.42579 11.8672 5.31642C12.2071 6.20704 12.1797 5.86329 12.5625 5.88673C12.9453 5.90626 13.5078 6.1836 13.7578 6.51954C14.0078 6.85548 14.125 6.06251 14.125 6.06251C14.125 6.06251 15.1641 6.84376 15.1485 5.83204H15.1446Z" fill="#B71C1C"/>
<path d="M12.6367 3.51172C12.6367 3.16797 12.5117 2.86328 12.3164 2.63672C12.1875 2.48828 12.125 2.28906 12.1797 2.10156C12.2305 1.93359 12.2578 1.75 12.2578 1.5625C12.2578 0.703125 11.7109 0.00390625 11.0352 0.00390625C10.7695 0.00390625 10.5234 0.113281 10.3203 0.300781C10.1602 0.449218 9.92969 0.519531 9.72656 0.4375C9.60938 0.390625 9.48828 0.363281 9.35938 0.363281C8.85156 0.363281 8.42187 0.757812 8.25781 1.3125C8.23047 1.30859 8.20703 1.30469 8.17969 1.30469C7.69922 1.30469 7.29687 1.6875 7.18359 2.20703C7.14844 2.36719 7.04297 2.49609 6.89844 2.57422C6.58203 2.75 6.36719 3.09766 6.36719 3.50391C6.36719 3.91408 6.58594 4.26564 6.90625 4.43752C7.05469 4.51564 7.16797 4.64064 7.22266 4.79689C7.39453 5.29689 7.87109 5.66017 8.4375 5.66017C8.60547 5.66017 8.76953 5.62892 8.91797 5.57033C9.20313 5.45705 9.53906 5.5508 9.67188 5.82814C9.91797 6.33986 10.3867 6.68752 10.9297 6.68752C11.7266 6.68752 12.375 5.94142 12.375 5.01955C12.375 4.89845 12.3633 4.78127 12.3398 4.66798C12.3086 4.51955 12.3516 4.37111 12.4336 4.2422C12.5625 4.03908 12.6406 3.78906 12.6406 3.51953L12.6367 3.51172Z" fill="#7CB342"/>
<path d="M19.0234 7.03906C18.914 6.73047 18.6601 6.47656 18.3476 6.37891C18.1094 6.30469 17.9922 6.32422 17.7578 5.98047C17.3906 5.44531 17.1758 5.02344 16.5273 5.02344C16.2695 5.02344 16.0273 5.10937 15.832 5.25C15.6758 5.36719 15.4648 5.34766 15.3242 5.21484C15.1328 5.03516 14.875 4.92188 14.5898 4.92188C13.9922 4.92188 12.6367 5.99609 12.9101 6.89453C13.0859 7.46484 13.2226 9.04297 13.2226 9.77344C13.2226 10.4297 13.6992 10.9727 14.3242 11.0781C14.4804 11.1055 14.6211 11.168 14.7461 11.2617C14.9765 11.4414 15.3633 11.6953 15.6679 11.6953C16.2304 11.6953 16.707 11.3516 16.9062 10.8633C17.0078 10.6133 17.207 10.4062 17.457 10.3047C17.9726 10.0977 18.3359 9.59375 18.3359 9.00391C18.3359 8.77734 18.2773 8.56641 18.1797 8.375C18.2812 8.32422 18.375 8.24609 18.4531 8.15625C18.5586 8.02734 18.7226 7.94922 18.9023 7.94922C18.9101 7.94922 18.9219 7.95313 18.9297 7.95313C19.082 7.69531 19.1406 7.37891 19.0195 7.03516L19.0234 7.03906Z" fill="#558B2F"/>
<path d="M14.1329 7.10546C13.9688 6.95312 13.4962 6.16405 13.3204 6.3164C13.0001 5.87499 12.254 7.24999 11.6407 7.32812C11.2032 7.38671 10.7891 7.58984 10.6016 7.98827C10.0704 9.10546 10.8712 10.1992 11.9258 10.1992C12.168 10.1992 12.3946 10.1406 12.5938 10.0391C12.7188 9.97655 12.8633 10.0117 12.9454 10.125C13.1446 10.4023 13.4258 10.5742 13.7344 10.5742C14.3438 10.5742 14.8399 9.90624 14.8399 9.08202C14.8399 8.2578 14.7891 7.71093 14.1368 7.10546H14.1329Z" fill="#7CB342"/>
<path d="M4.88282 7.89059C5.07423 7.67574 5.49219 7.85543 5.78516 7.70309C6.04688 7.56637 5.88282 7.12496 6.21094 6.7109C6.46485 6.38668 6.35157 5.89059 6.02735 5.63277C5.78516 5.43746 5.26172 5.36715 5.11329 5.3359C4.13672 5.14449 4.10938 5.18746 3.85158 5.50777C3.62111 5.79293 3.85158 6.10934 3.63674 6.65231C3.48439 7.03512 3.42971 7.44527 3.75002 7.70309C4.07032 7.9609 4.41798 8.41402 4.88282 7.89059Z" fill="#7CB342"/>
<path d="M4.4414 7.40238C4.19921 6.77738 3.40232 6.50395 2.66014 6.79301C2.44529 6.87895 2.2656 7.0391 2.12107 7.20707C2.01951 7.32426 1.8867 7.4102 1.73826 7.44926C1.39842 7.5391 0.976542 7.81254 0.921855 8.2227C0.867167 8.63285 1.04685 8.19926 1.71873 8.25004C2.54295 8.31254 5.15233 8.77348 5.47655 8.64848C6.21874 8.35942 4.68358 8.02348 4.4414 7.39848V7.40238Z" fill="#558B2F"/>
<path d="M7.82421 5.21871C7.64061 4.69137 7.33983 4.92574 7.33983 4.92574C7.33983 4.92574 7.66796 4.67574 7.01171 4.35152C6.35546 4.0273 6.28514 4.50387 6.28514 4.50387C6.28514 4.50387 5.82811 4.04683 5.31249 4.70308C4.79296 5.35933 5.41796 5.69918 5.41796 5.69918C5.41796 5.69918 5.14842 6.19918 5.47655 6.67574C5.80467 7.1523 6.46092 6.67183 6.46092 6.67183C6.46092 6.67183 7.12108 6.58199 7.50389 6.29683C7.88671 6.01168 8.01171 5.74215 7.82811 5.2148L7.82421 5.21871Z" fill="#C62828"/>
<path d="M10.5586 6.53517C10.5586 6.53517 11.6133 6.34376 11.1992 5.76173C10.8672 5.28908 10.5703 5.5547 10.4687 5.67189C10.5781 5.52345 10.8711 5.0547 10.4336 4.78126C9.91014 4.45314 9.69139 5.06642 9.69139 5.06642C9.69139 5.06642 9.15233 4.56642 8.65233 5.06642C8.15233 5.56642 8.83593 5.96486 8.83593 5.96486C8.49608 6.83204 9.49608 6.8047 9.49608 6.8047C9.28905 7.33204 9.43358 7.67189 9.8828 7.78908C10.332 7.90236 10.2461 7.26173 10.2461 7.26173C10.5312 7.8047 11.2695 7.53126 11.2969 7.07814C11.3203 6.62111 10.5586 6.54298 10.5586 6.54298V6.53517Z" fill="#D50000"/>
<path d="M6.25784 8.02346C6.25784 8.02346 6.03909 6.87893 5.84768 6.53518C5.65628 6.19143 4.98831 6.14456 4.7344 6.44534C4.47659 6.74612 3.78518 6.38284 3.76565 7.04299C3.74611 7.70315 4.293 8.08206 4.6055 8.19534C4.918 8.30862 5.24612 8.40237 5.22268 8.53518C5.19925 8.66799 4.69143 8.4219 4.49222 8.39846C4.293 8.37893 4.50784 8.7344 4.43362 9.13284C4.36331 9.53128 4.05081 9.97268 4.16409 10.3867C4.27737 10.8008 5.67581 10.1719 5.67581 10.1719C5.67581 10.1719 6.1719 10.7227 6.84378 10.5274C7.51175 10.3282 7.72659 9.26174 7.38675 8.6719C7.38675 8.6719 8.21097 8.08206 7.65628 7.71096C7.10159 7.33987 6.97268 7.67581 6.97268 7.67581C6.97268 7.67581 6.2305 7.02737 6.26175 8.02346H6.25784Z" fill="#B71C1C"/>
<path d="M10.7578 9.94533C10.7578 9.94533 11.625 8.97658 10.375 8.67189C10.375 8.67189 10.8281 7.9258 10.1172 7.53908C10.1172 7.53908 9.43358 6.6133 8.93358 7.2383C8.74998 7.46877 8.66795 7.68752 8.6367 7.87111C8.59373 7.68752 8.5117 7.53908 8.34764 7.57814C7.97655 7.67189 7.1367 8.09377 8.16405 8.66798C8.16405 8.66798 7.43748 8.21877 7.14061 8.53127C7.14061 8.53127 6.83983 8.10548 6.41405 8.81642C5.98827 9.52736 7.05467 9.54298 7.05467 9.54298C7.05467 9.54298 6.40233 9.75783 6.5078 10.2852C6.61327 10.8125 7.84373 10.5703 7.84373 10.5703C7.84373 10.5703 7.66405 10.8633 8.46483 10.8555C9.26561 10.8477 9.05858 10.2578 9.05858 10.2578C9.05858 10.2578 9.55858 11.2539 10.4258 10.7422C11.293 10.2305 10.7539 9.94533 10.7539 9.94533H10.7578Z" fill="#D50000"/>
<path d="M8.28123 7.14066C8.38279 7.07035 8.80857 6.08597 8.39451 5.83597C7.98044 5.58597 7.76951 6.2266 7.76951 6.2266C7.75388 5.39847 7.46873 4.96097 7.0156 5.21879C6.70701 5.39457 6.90232 5.84769 7.05857 6.12503C6.85544 5.83988 6.46873 5.4141 6.12888 5.73441C5.64451 6.19144 6.27732 6.59769 6.27732 6.59769C6.27732 6.59769 5.77341 6.53129 5.85935 7.07425C5.94529 7.61722 6.84373 7.6016 6.84373 7.6016C6.73044 8.02738 7.35544 8.01566 7.98435 7.67972C8.60935 7.34379 8.28123 7.14457 8.28123 7.14457V7.14066Z" fill="#D50000"/>
</g>
<defs>
<clipPath id="clip0_3074_2383">
<rect width="20" height="20" fill="white"/>
</clipPath>
</defs>
</svg>
