<svg width="32" height="32" viewBox="0 0 32 32" fill="none" xmlns="http://www.w3.org/2000/svg">
<path d="M16.0001 29.1334C15.5342 29.1407 15.0745 29.0257 14.6668 28.8L14.2668 28.5734C11.1511 26.8106 8.55912 24.2526 6.7554 21.1606C4.95169 18.0685 4.00089 14.5531 4.00011 10.9734V10.7867C3.99588 10.3146 4.11709 9.84975 4.35135 9.4398C4.58561 9.02984 4.92452 8.68944 5.33344 8.45337L14.6668 3.20004C15.0722 2.96599 15.532 2.84277 16.0001 2.84277C16.4682 2.84277 16.9281 2.96599 17.3334 3.20004L26.6668 8.45337C27.0757 8.68944 27.4146 9.02984 27.6489 9.4398C27.8831 9.84975 28.0043 10.3146 28.0001 10.7867V10.9734C27.9967 14.5557 27.0418 18.0729 25.2333 21.1652C23.4247 24.2575 20.8274 26.8141 17.7068 28.5734L17.3068 28.8C16.907 29.0213 16.457 29.136 16.0001 29.1334ZM16.0001 5.53337L6.66677 10.7867V10.9734C6.66902 14.0815 7.49744 17.1332 9.06718 19.8158C10.6369 22.4984 12.8915 24.7155 15.6001 26.24L16.0001 26.4667L16.4001 26.24C19.1087 24.7155 21.3633 22.4984 22.933 19.8158C24.5028 17.1332 25.3312 14.0815 25.3334 10.9734V10.7867L16.0001 5.53337Z" fill="white"/>
</svg>
