<svg width="24" height="24" viewBox="0 0 24 24" fill="none" xmlns="http://www.w3.org/2000/svg">
<path fill-rule="evenodd" clip-rule="evenodd" d="M4.56 4.22039C4.09093 4.45594 3.69661 4.81731 3.42112 5.2641C3.14562 5.71089 2.99982 6.2255 3 6.75039V9.78039C3 15.3804 6.3 20.4704 11.42 22.7404C11.79 22.9104 12.21 22.9104 12.58 22.7404C15.0859 21.6251 17.2148 19.8074 18.7092 17.5073C20.2035 15.2072 20.9992 12.5233 21 9.78039V6.75039C21 5.68039 20.4 4.70039 19.44 4.22039L13.34 1.17039C12.9239 0.962639 12.4651 0.854492 12 0.854492C11.5349 0.854492 11.0761 0.962639 10.66 1.17039L4.56 4.22039ZM14 11.0004C13.9996 11.3511 13.9071 11.6956 13.7315 11.9992C13.556 12.3029 13.3037 12.555 13 12.7304V15.5004C13 15.633 12.9473 15.7602 12.8536 15.8539C12.7598 15.9477 12.6326 16.0004 12.5 16.0004H11.5C11.3674 16.0004 11.2402 15.9477 11.1464 15.8539C11.0527 15.7602 11 15.633 11 15.5004V12.7304C10.6959 12.5548 10.4434 12.3023 10.2678 11.9981C10.0923 11.694 9.99991 11.349 10 10.9978C10.0001 10.6467 10.0926 10.3017 10.2683 9.99767C10.444 9.69363 10.6967 9.4412 11.0009 9.26578C11.3051 9.09035 11.6501 8.99812 12.0013 8.99834C12.3524 8.99857 12.6974 9.09125 13.0013 9.26706C13.3053 9.44287 13.5576 9.69562 13.7329 9.9999C13.9083 10.3042 14.0004 10.6492 14 11.0004Z" fill="#5865F2"/>
</svg>
