<svg width="24" height="24" viewBox="0 0 24 24" fill="none" xmlns="http://www.w3.org/2000/svg">
<path fill-rule="evenodd" clip-rule="evenodd" d="M12.032 21.505C11.982 21.775 11.763 22 11.488 22H2.20004C2.00817 21.9998 1.8204 21.9445 1.65913 21.8405C1.49786 21.7366 1.3699 21.5884 1.29052 21.4137C1.21114 21.239 1.18369 21.0452 1.21144 20.8554C1.2392 20.6655 1.32098 20.4876 1.44704 20.343L3.51304 17.974C3.58545 17.8893 3.62856 17.7835 3.63595 17.6723C3.64334 17.5611 3.61461 17.4505 3.55404 17.357C2.53604 15.7559 1.99686 13.8973 2.00004 12C2.00004 6.477 6.47704 2 12 2C17.523 2 22 6.477 22 12C22 12.542 21.957 13.073 21.874 13.591C21.87 13.6162 21.8581 13.6396 21.8401 13.6578C21.8222 13.676 21.799 13.6881 21.7738 13.6925C21.7486 13.6969 21.7226 13.6934 21.6996 13.6823C21.6765 13.6713 21.6574 13.6534 21.645 13.631C20.482 11.604 17.518 11.604 16.355 13.631L12.395 20.528C12.2193 20.8306 12.0965 21.161 12.032 21.505ZM18.089 14.627C18.484 13.939 19.516 13.939 19.911 14.627L23.87 21.524C24.25 22.188 23.75 23 22.959 23H15.041C14.251 23 13.749 22.188 14.131 21.524L18.089 14.627ZM18.554 16.5H19.446C19.516 16.5001 19.5851 16.5148 19.649 16.5432C19.7129 16.5717 19.7701 16.6132 19.8169 16.6651C19.8638 16.717 19.8992 16.7782 19.9209 16.8447C19.9426 16.9111 19.9502 16.9814 19.943 17.051L19.735 19.068C19.718 19.228 19.558 19.33 19.401 19.296C19.2693 19.2667 19.1349 19.2513 19 19.25C18.8655 19.2513 18.7314 19.2668 18.6 19.296C18.442 19.33 18.282 19.228 18.265 19.068L18.057 17.051C18.0499 16.9814 18.0574 16.9111 18.0792 16.8447C18.1009 16.7782 18.1363 16.717 18.1832 16.6651C18.23 16.6132 18.2872 16.5717 18.3511 16.5432C18.415 16.5148 18.4841 16.5001 18.554 16.5ZM19 22C19.2653 22 19.5196 21.8946 19.7071 21.7071C19.8947 21.5196 20 21.2652 20 21C20 20.7348 19.8947 20.4804 19.7071 20.2929C19.5196 20.1054 19.2653 20 19 20C18.7348 20 18.4805 20.1054 18.2929 20.2929C18.1054 20.4804 18 20.7348 18 21C18 21.2652 18.1054 21.5196 18.2929 21.7071C18.4805 21.8946 18.7348 22 19 22Z" fill="#FF6565"/>
</svg>
