<svg width="24" height="24" viewBox="0 0 24 24" fill="none" xmlns="http://www.w3.org/2000/svg">
<path d="M11.9999 2C10.0221 2 8.08873 2.58649 6.44424 3.6853C4.79975 4.78412 3.51802 6.3459 2.76115 8.17317C2.00427 10.0004 1.80624 12.0111 2.19209 13.9509C2.57794 15.8907 3.53035 17.6725 4.92888 19.0711C6.3274 20.4696 8.10923 21.422 10.049 21.8079C11.9889 22.1937 13.9995 21.9957 15.8268 21.2388C17.654 20.4819 19.2158 19.2002 20.3146 17.5557C21.4135 15.9112 21.9999 13.9778 21.9999 12C21.9999 10.6868 21.7413 9.38642 21.2387 8.17317C20.7362 6.95991 19.9996 5.85752 19.071 4.92893C18.1424 4.00035 17.04 3.26375 15.8268 2.7612C14.6135 2.25866 13.3132 2 11.9999 2ZM19.9999 12C20.0022 13.7767 19.4069 15.5025 18.3099 16.9L7.09994 5.69C8.49749 4.59302 10.2233 3.99779 11.9999 4C14.1217 4 16.1565 4.84285 17.6568 6.34315C19.1571 7.84344 19.9999 9.87827 19.9999 12ZM3.99994 12C3.99773 10.2233 4.59296 8.49755 5.68994 7.1L16.8999 18.31C15.5024 19.407 13.7766 20.0022 11.9999 20C9.87821 20 7.84338 19.1571 6.34309 17.6569C4.8428 16.1566 3.99994 14.1217 3.99994 12Z" fill="#ED4245"/>
</svg>
