<svg width="24" height="24" viewBox="0 0 24 24" fill="none" xmlns="http://www.w3.org/2000/svg">
<path d="M12 1.3125C14.9179 1.3125 17.2841 3.68338 17.2841 6.60938V8.72813H6.71591V6.60938C6.71591 3.68338 9.08107 1.3125 12 1.3125ZM10.4148 5.02031C10.4148 5.89853 11.125 6.60938 12 6.60938C12.875 6.60938 13.5852 5.89853 13.5852 5.02031C13.5852 4.14209 12.875 3.43125 12 3.43125C11.125 3.43125 10.4148 4.14209 10.4148 5.02031ZM23.625 22.5H17.2841L19.3977 19.3219V11.9063H17.2841V18.2625C17.2841 18.8483 16.8106 19.3219 16.2273 19.3219H14.1136L15.1705 22.5H8.82955L9.88636 19.3219H7.77273C7.18936 19.3219 6.71591 18.8483 6.71591 18.2625V11.9063H4.60227V19.3219L6.71591 22.5H0.375L2.48864 19.3219V11.9063C2.48864 10.7367 3.4366 9.7875 4.60227 9.7875H19.3977C20.5634 9.7875 21.5114 10.7367 21.5114 11.9063V19.3219L23.625 22.5ZM13.0568 14.025C13.0568 14.6108 13.5303 15.0844 14.1136 15.0844C14.697 15.0844 15.1705 14.6108 15.1705 14.025C15.1705 13.4392 14.697 12.9656 14.1136 12.9656C13.5303 12.9656 13.0568 13.4392 13.0568 14.025Z" fill="#D35F5F"/>
</svg>
