<svg width="24" height="24" viewBox="0 0 24 24" fill="none" xmlns="http://www.w3.org/2000/svg">
<path d="M21 6.0004H16V4.3304C15.9765 3.69022 15.7002 3.08546 15.2316 2.64869C14.7629 2.21193 14.1402 1.97879 13.5 2.0004H10.5C9.85975 1.97879 9.23706 2.21193 8.76843 2.64869C8.2998 3.08546 8.02346 3.69022 8 4.3304V6.0004H3C2.73478 6.0004 2.48043 6.10576 2.29289 6.2933C2.10536 6.48083 2 6.73519 2 7.0004C2 7.26562 2.10536 7.51997 2.29289 7.70751C2.48043 7.89504 2.73478 8.0004 3 8.0004H4V19.0004C4 19.7961 4.31607 20.5591 4.87868 21.1217C5.44129 21.6843 6.20435 22.0004 7 22.0004H17C17.7956 22.0004 18.5587 21.6843 19.1213 21.1217C19.6839 20.5591 20 19.7961 20 19.0004V8.0004H21C21.2652 8.0004 21.5196 7.89504 21.7071 7.70751C21.8946 7.51997 22 7.26562 22 7.0004C22 6.73519 21.8946 6.48083 21.7071 6.2933C21.5196 6.10576 21.2652 6.0004 21 6.0004ZM10 16.0004C10 16.2656 9.89464 16.52 9.70711 16.7075C9.51957 16.895 9.26522 17.0004 9 17.0004C8.73478 17.0004 8.48043 16.895 8.29289 16.7075C8.10536 16.52 8 16.2656 8 16.0004V12.0004C8 11.7352 8.10536 11.4808 8.29289 11.2933C8.48043 11.1058 8.73478 11.0004 9 11.0004C9.26522 11.0004 9.51957 11.1058 9.70711 11.2933C9.89464 11.4808 10 11.7352 10 12.0004V16.0004ZM10 4.3304C10 4.1704 10.21 4.0004 10.5 4.0004H13.5C13.79 4.0004 14 4.1704 14 4.3304V6.0004H10V4.3304ZM16 16.0004C16 16.2656 15.8946 16.52 15.7071 16.7075C15.5196 16.895 15.2652 17.0004 15 17.0004C14.7348 17.0004 14.4804 16.895 14.2929 16.7075C14.1054 16.52 14 16.2656 14 16.0004V12.0004C14 11.7352 14.1054 11.4808 14.2929 11.2933C14.4804 11.1058 14.7348 11.0004 15 11.0004C15.2652 11.0004 15.5196 11.1058 15.7071 11.2933C15.8946 11.4808 16 11.7352 16 12.0004V16.0004Z" fill="#D35F5F"/>
</svg>
