<svg width="18" height="18" viewBox="0 0 18 18" fill="none" xmlns="http://www.w3.org/2000/svg">
<path d="M15.2377 2.68125C14.0905 2.1345 12.8603 1.73168 11.5739 1.50097C11.5505 1.49651 11.5271 1.50764 11.515 1.5299C11.3568 1.82217 11.1815 2.20349 11.0588 2.50319C9.67527 2.28806 8.29889 2.28806 6.94374 2.50319C6.82098 2.19682 6.63936 1.82217 6.48043 1.5299C6.46836 1.50838 6.44496 1.49726 6.42153 1.50097C5.13593 1.73094 3.90567 2.13376 2.7577 2.68125C2.74776 2.6857 2.73925 2.69312 2.73359 2.70276C0.400043 6.32371 -0.239213 9.85567 0.0743851 13.3439C0.0758041 13.3609 0.0850274 13.3772 0.0977985 13.3876C1.63741 14.5619 3.12878 15.2748 4.59246 15.7474C4.61588 15.7548 4.6407 15.7459 4.65561 15.7258C5.00185 15.2348 5.31048 14.717 5.5751 14.1724C5.59073 14.1406 5.57581 14.1027 5.5439 14.0901C5.05434 13.8972 4.5882 13.662 4.1398 13.395C4.10433 13.3735 4.10149 13.3208 4.13412 13.2956C4.22848 13.2221 4.32286 13.1458 4.41297 13.0686C4.42927 13.0544 4.45198 13.0515 4.47114 13.0604C7.41696 14.4573 10.6061 14.4573 13.5172 13.0604C13.5364 13.0508 13.5591 13.0538 13.5761 13.0678C13.6662 13.145 13.7606 13.2221 13.8557 13.2956C13.8883 13.3208 13.8862 13.3735 13.8507 13.395C13.4023 13.6673 12.9361 13.8972 12.4459 14.0893C12.414 14.1019 12.3997 14.1406 12.4154 14.1724C12.6857 14.7162 12.9943 15.234 13.3341 15.7252C13.3483 15.7459 13.3739 15.7548 13.3973 15.7474C14.8681 15.2748 16.3595 14.5619 17.8991 13.3876C17.9125 13.3772 17.9211 13.3616 17.9225 13.3446C18.2978 9.31182 17.2939 5.80888 15.2611 2.70349C15.2562 2.69312 15.2477 2.6857 15.2377 2.68125ZM6.01501 11.2199C5.12813 11.2199 4.39734 10.3742 4.39734 9.33566C4.39734 8.29702 5.11395 7.45133 6.01501 7.45133C6.92315 7.45133 7.64686 8.30444 7.63265 9.33566C7.63265 10.3742 6.91606 11.2199 6.01501 11.2199ZM11.9961 11.2199C11.1091 11.2199 10.3784 10.3742 10.3784 9.33566C10.3784 8.29702 11.095 7.45133 11.9961 7.45133C12.9042 7.45133 13.6279 8.30444 13.6138 9.33566C13.6138 10.3742 12.9042 11.2199 11.9961 11.2199Z" fill="#E1E0E9"/>
</svg>
