<svg width="290" height="37" viewBox="0 0 290 37" fill="none" xmlns="http://www.w3.org/2000/svg">
<path d="M289.018 8.69389C288.686 8.82625 288.338 8.91572 287.983 8.96014C286.002 8.98731 284.02 8.96014 282.038 8.96014C280.862 8.96014 280.573 9.24813 280.573 10.3892C280.573 18.6774 280.573 26.962 280.573 35.243C280.573 36.3297 280.404 36.5145 279.267 36.5145C277.731 36.5145 276.201 36.5145 274.671 36.5145C273.762 36.5145 273.528 36.2808 273.528 35.3734C273.528 27.0852 273.528 18.8006 273.528 10.5196C273.528 9.55785 273.413 8.81343 272.526 8.16682C270.658 6.79753 268.894 5.28696 267.081 3.81986C266.401 3.27649 265.742 2.69508 265.034 2.09737H276.299C279.212 2.09737 282.125 2.15714 285.011 2.09737C286.851 2.04304 288.217 2.61357 288.974 4.34693L289.018 8.69389Z" fill="white"/>
<path d="M255.719 29.7332C257.966 29.7737 260.159 29.0386 261.926 27.6521C262.797 26.9837 263.385 26.9022 264.175 27.5977C265.26 28.586 266.289 29.6346 267.256 30.7384C267.461 31.0301 267.554 31.386 267.517 31.7405C267.48 32.0949 267.316 32.4241 267.055 32.6674C265.068 34.4152 262.671 35.6338 260.086 36.2101C258.674 36.5601 257.228 36.7533 255.773 36.7861C251.625 36.7209 247.83 35.5635 244.574 32.8521C242.124 30.8729 240.255 28.2712 239.162 25.321C238.757 24.0642 238.469 22.7727 238.302 21.4631C238.164 20.5827 238.113 19.6909 238.149 18.8006C238.224 14.9112 239.642 11.1669 242.162 8.1994C243.7 6.32715 245.595 4.77769 247.737 3.64052C249.557 2.68967 251.549 2.11316 253.596 1.9452C256.259 1.70463 258.943 2.01541 261.479 2.85806C263.5 3.57894 265.384 4.63324 267.055 5.97701C267.305 6.21796 267.464 6.53709 267.507 6.88118C267.549 7.22528 267.472 7.57355 267.289 7.86794C266.271 9.02827 265.194 10.1346 264.06 11.1825C263.407 11.7748 262.726 11.6389 261.98 11.063C260.729 10.1111 259.278 9.45479 257.736 9.14336C256.194 8.83192 254.602 8.87348 253.078 9.26491C251.555 9.65634 250.14 10.3875 248.941 11.4032C247.741 12.419 246.788 13.6931 246.153 15.1295C245.518 16.5659 245.218 18.1274 245.274 19.6963C245.331 21.2653 245.744 22.801 246.481 24.1879C247.219 25.5748 248.262 26.7767 249.532 27.7033C250.802 28.6299 252.266 29.257 253.813 29.5376C254.434 29.6136 255.077 29.6625 255.719 29.7332Z" fill="white"/>
<path d="M217.35 19.3277V3.60803C217.35 2.47238 217.834 1.97792 218.983 1.97792C224.885 1.97792 230.783 1.97792 236.678 1.97792C236.894 1.96454 237.111 1.99789 237.312 2.0757C237.514 2.1535 237.697 2.27392 237.848 2.42872C237.999 2.58351 238.115 2.76902 238.187 2.97256C238.26 3.17611 238.287 3.39287 238.268 3.60803C238.268 4.87951 238.268 6.15643 238.268 7.41162C238.3 7.62278 238.282 7.83846 238.215 8.04143C238.149 8.24439 238.036 8.42902 237.885 8.58054C237.734 8.73207 237.55 8.84631 237.347 8.91412C237.144 8.98193 236.928 9.00144 236.716 8.97109H226.099C224.907 8.97109 224.411 9.46013 224.411 10.6012C224.411 11.7423 224.411 13.0464 224.411 14.269C224.411 15.3068 224.814 15.7198 225.843 15.7198C228.174 15.7198 230.509 15.7198 232.845 15.7198C234.184 15.7198 234.881 16.2903 234.811 17.6759C234.751 18.8713 234.811 20.0722 234.811 21.2676C234.828 21.4662 234.801 21.6661 234.731 21.8531C234.662 22.04 234.552 22.2094 234.41 22.3491C234.267 22.4887 234.095 22.5952 233.907 22.6609C233.718 22.7267 233.517 22.75 233.319 22.7292C230.934 22.7292 228.549 22.7292 226.17 22.7292C224.923 22.7292 224.33 23.4791 224.4 24.4898C224.488 25.7069 224.4 26.9349 224.4 28.1575C224.4 29.0812 224.836 29.5051 225.778 29.5051C229.292 29.5051 232.805 29.5051 236.319 29.5051C237.642 29.5051 238.322 30.0919 238.263 31.4069C238.208 32.6294 238.263 33.852 238.263 35.0746C238.277 35.267 238.25 35.4602 238.183 35.6411C238.116 35.8221 238.011 35.9864 237.874 36.1231C237.738 36.2598 237.574 36.3655 237.392 36.433C237.211 36.5006 237.018 36.5284 236.825 36.5145C230.774 36.5145 224.727 36.5145 218.684 36.5145C217.763 36.5145 217.366 36.0853 217.366 35.1181C217.355 29.8583 217.35 24.5948 217.35 19.3277Z" fill="white"/>
<path d="M199.278 22.6151V10.661C199.278 9.49814 198.783 9.00368 197.596 8.99824C195.815 8.99824 194.035 8.99824 192.249 8.99824C191.253 8.99824 190.85 8.59615 190.844 7.61265C190.844 6.21075 190.844 4.81429 190.844 3.41783C190.822 3.24436 190.84 3.06807 190.897 2.90258C190.953 2.73709 191.047 2.58684 191.172 2.46342C191.296 2.34001 191.447 2.24674 191.613 2.19082C191.779 2.13489 191.956 2.11782 192.129 2.14091C199.229 2.14091 206.331 2.14091 213.434 2.14091C213.626 2.12331 213.82 2.14742 214.002 2.21158C214.184 2.27574 214.351 2.37843 214.489 2.51262C214.628 2.64681 214.736 2.80932 214.805 2.98901C214.875 3.1687 214.905 3.36132 214.893 3.55367C214.926 4.95013 214.921 6.35203 214.893 7.74849C214.892 7.92021 214.856 8.08989 214.787 8.24712C214.718 8.40435 214.617 8.54581 214.491 8.66284C214.365 8.77986 214.217 8.86998 214.054 8.92765C213.892 8.98533 213.72 9.00935 213.549 8.99824H208.284C206.944 8.99824 206.323 9.61225 206.318 10.9272V35.0094C206.318 36.1505 205.959 36.52 204.815 36.5254C203.509 36.5254 202.207 36.5254 200.901 36.5254C199.779 36.5254 199.267 36.0309 199.267 34.8953C199.267 30.9794 199.267 27.0599 199.267 23.1367L199.278 22.6151Z" fill="white"/>
<path d="M175.328 36.5253C165.74 36.8513 157.671 28.7333 157.703 19.0939C157.733 16.7073 158.246 14.3513 159.211 12.1675C160.176 9.98365 161.573 8.01704 163.319 6.38582C165.065 4.7546 167.123 3.49243 169.37 2.67517C171.617 1.8579 174.007 1.50239 176.395 1.63001C184.643 2.0321 193.415 9.38934 192.957 20.1046C192.614 28.6192 185.019 36.9002 175.328 36.5253ZM177.652 18.9364C180.228 16.5129 179.596 14.046 177.68 12.4159C176.848 11.7925 175.803 11.5216 174.772 11.662C173.741 11.8024 172.807 12.3429 172.173 13.166C171.539 13.9892 171.255 15.0288 171.384 16.0592C171.513 17.0896 172.044 18.0277 172.861 18.6701L170.683 26.913H180.789C179.721 24.2451 178.692 21.6097 177.652 18.9364Z" fill="white"/>
<path d="M132.565 19.018V3.01027C132.565 1.9996 132.609 1.96156 133.654 1.96156C137.221 1.96156 140.781 1.96156 144.348 1.96156C145.995 1.94657 147.628 2.26589 149.148 2.90012C150.668 3.53436 152.043 4.47027 153.19 5.65105C154.171 6.57416 154.948 7.69218 155.471 8.93312C155.993 10.1741 156.249 11.5104 156.222 12.8561C156.195 15.1329 156.097 17.3498 154.948 19.3766C153.996 21.0556 152.874 22.5988 151.028 23.4627C150.206 23.854 150.152 24.1746 150.669 24.9787C152.242 27.4076 153.832 29.8256 155.411 32.2545C155.956 33.0967 156.538 33.9226 157.045 34.7974C157.551 35.6723 157.181 36.3732 156.081 36.3786C154.148 36.3786 152.215 36.3786 150.282 36.3786C150.013 36.4018 149.743 36.3475 149.504 36.2224C149.264 36.0972 149.066 35.9063 148.932 35.6723C146.368 31.7165 143.771 27.788 141.19 23.8431C140.928 23.4464 140.673 23.0878 140.139 23.2073C139.605 23.3269 139.627 23.7507 139.627 24.1474C139.627 27.7445 139.627 31.3362 139.627 34.9279C139.627 36.145 139.404 36.3732 138.212 36.3732H133.692C132.843 36.3732 132.604 36.1178 132.604 35.2865L132.565 19.018ZM139.611 13.4919V17.1705C139.611 17.9584 139.927 18.2572 140.738 18.2572C141.827 18.2572 142.916 18.2572 144.048 18.2572C145.029 18.3022 146 18.0356 146.819 17.4957C147.639 16.9558 148.266 16.1704 148.611 15.2524C149.58 13.0789 148.464 10.286 146.46 9.46551C144.457 8.64502 142.426 8.78086 140.378 8.82433C139.899 8.82433 139.578 9.21556 139.6 9.8187C139.643 11.0685 139.611 12.291 139.611 13.5082V13.4919Z" fill="white"/>
<path d="M104.253 36.9763V36.1721C104.253 25.6687 104.253 15.1654 104.253 4.65661C104.305 3.94879 104.613 3.28381 105.118 2.78445C105.623 2.28508 106.293 1.98505 107.002 1.93976C110.89 1.99953 114.777 1.88542 118.665 1.98866C121.605 2.06473 124.436 2.68418 126.892 4.461C128.666 5.75187 129.879 7.67025 130.284 9.82406C130.714 11.5624 130.757 13.3736 130.412 15.1306C130.067 16.8877 129.341 18.5482 128.286 19.996C127.663 20.9364 126.836 21.7244 125.866 22.3012C124.896 22.8779 123.808 23.2285 122.683 23.3268C120.151 23.5224 117.609 23.5605 115.061 23.642C113.972 23.6746 113.574 24.0441 113.574 25.1145C113.574 28.5323 113.574 31.9501 113.574 35.3679C113.574 36.3568 113.1 37.0415 111.984 36.998C109.681 36.9111 107.367 36.998 105.064 36.998L104.253 36.9763Z" fill="white"/>
<path d="M70.998 36.6775V1.51603H71.8256C76.6931 1.51603 81.5661 1.40193 86.4282 1.54864C90.9037 1.67904 94.9436 3.11354 97.9545 6.60741C100.154 9.0209 101.591 12.0279 102.087 15.2524C102.373 17.087 102.47 18.946 102.376 20.8003C102.049 25.5765 100.198 29.7115 96.5062 32.8848C94.301 34.8028 91.5698 36.0161 88.6659 36.3678C87.3879 36.5414 86.1007 36.6394 84.8111 36.6612C80.4935 36.6993 76.1759 36.6612 71.8637 36.6612L70.998 36.6775ZM79.6768 19.2897C79.6768 21.2839 79.6768 23.278 79.6768 25.2668C79.6659 25.5651 79.7373 25.8607 79.8833 26.1214C80.0292 26.382 80.2441 26.5976 80.5044 26.7447C80.7464 26.8943 81.0291 26.9648 81.3132 26.9463C81.5972 26.9278 81.8684 26.8212 82.0888 26.6415C82.5135 26.3481 82.9817 26.1253 83.4336 25.8753C86.5697 24.0876 89.7168 22.3108 92.8474 20.5068C93.8275 19.9635 94.2086 18.5887 92.8474 17.79C91.6496 17.0727 90.4191 16.399 89.1995 15.7143C86.9291 14.4319 84.6423 13.1768 82.3991 11.8509C81.8057 11.4977 81.2122 11.2587 80.6351 11.5956C80.3206 11.7729 80.0628 12.0354 79.8914 12.3526C79.7199 12.6699 79.6417 13.029 79.6659 13.3887C79.6986 15.3557 79.6768 17.3227 79.6768 19.2951V19.2897Z" fill="#D35F5F"/>
<path d="M58.236 24.957C58.089 23.7018 58.1326 22.7835 59.0854 21.8815C62.2596 18.8713 65.9674 15.1166 69.0763 12.0248C69.207 13.2582 69.1798 14.1983 68.178 15.1546C65.0092 18.1377 58.236 24.957 58.236 24.957Z" fill="#D35F5F"/>
<path d="M58.2252 28.8639C58.0292 27.6956 58.4158 26.5763 59.2651 25.734C62.5319 22.5879 65.7334 19.344 69.1145 15.9534C69.1145 17.063 69.3159 17.8932 68.4502 18.7246L58.2252 28.8639Z" fill="#D35F5F"/>
<path d="M69.0219 3.95577C69.2887 5.33593 69.0546 6.22163 68.1399 7.09102C65.0038 10.0796 61.4236 13.6271 58.3364 16.6863C58.0805 15.5996 58.0346 14.9101 58.884 14.0788C62.1018 11.0033 65.8695 7.10189 69.0219 3.95577Z" fill="#D35F5F"/>
<path d="M58.2611 32.8838C58.1219 32.3719 58.1109 31.6686 58.2763 31.1646C58.4418 30.6605 58.6378 30.3937 59.1671 29.8854C62.4883 26.6958 65.7007 23.4139 69.0818 20.0721C69.2603 21.9599 69.2603 21.9599 68.4121 22.8379C65.1889 25.9188 61.4136 29.7376 58.2611 32.8838Z" fill="#D35F5F"/>
<path d="M69.1308 24.1039C69.1308 24.7505 69.1689 25.2233 69.1308 25.6851C69.1025 25.9677 68.9885 26.235 68.8041 26.4513C65.501 29.7622 61.733 33.5193 58.4118 36.8013C58.2671 36.3284 58.126 35.7651 58.2643 35.2903C58.4026 34.8154 58.6766 34.3912 59.0528 34.0693C62.2379 31.0047 65.9892 27.2229 69.1308 24.1039Z" fill="#D35F5F"/>
<path d="M69.4863 1.6298L68.8368 2.27675C65.4793 5.64203 61.7121 9.3007 58.3364 12.6442C58.1391 12.353 58.1511 11.9172 58.1511 11.5657C58.1511 11.2141 58.2565 10.8707 58.4538 10.5795L67.3123 1.82576C67.9987 1.16687 68.5069 1.01619 69.4863 1.61887V1.6298Z" fill="#D35F5F"/>
<path d="M60.7188 36.6449L69.109 28.3042C69.185 29.1169 69.377 29.9875 68.4829 30.8689C66.7742 32.5534 65.1921 34.0891 63.5501 35.7592C62.6306 36.6944 61.7152 36.7264 60.7188 36.6449Z" fill="#D35F5F"/>
<path d="M65.619 1.75512L58.2143 9.02541C58.187 7.79196 57.9598 6.9678 58.9438 5.99884L62.6244 2.35826C62.6244 2.35826 63.2102 1.77929 63.5943 1.6298C63.9784 1.4803 64.3963 1.43907 64.8023 1.5106C65.0227 1.54943 65.4181 1.6942 65.619 1.75512Z" fill="#D35F5F"/>
<path d="M69.0709 32.5534C69.0709 33.1098 69.3308 33.918 68.7496 34.5964C67.7536 35.7592 66.7678 37.3133 64.9384 36.6558L69.0709 32.5534Z" fill="#D35F5F"/>
<path d="M61.3286 1.56492L58.2469 4.63496C57.7188 2.61363 58.8731 1.08676 61.3286 1.56492Z" fill="#D35F5F"/>
<path d="M51.849 36.6775C50.5423 36.6775 49.2355 36.6775 47.9343 36.6775C47.8476 36.6946 47.7582 36.694 47.6718 36.6757C47.5853 36.6574 47.5034 36.6218 47.4311 36.571C47.3589 36.5202 47.2977 36.4553 47.2513 36.3802C47.2048 36.3051 47.1742 36.2214 47.1611 36.1341C46.6167 34.2269 46.0722 32.3305 45.5277 30.4233C45.3971 29.9451 45.2119 29.7876 44.7274 29.793C42.3154 29.793 39.9089 29.8202 37.4969 29.793C37.2956 29.7657 37.0914 29.8164 36.9264 29.9346C36.7613 30.0529 36.6479 30.2297 36.6094 30.4287C36.0649 32.3794 35.5205 34.3356 34.927 36.2754C34.8781 36.3732 34.8067 36.4581 34.7187 36.5233C34.6308 36.5884 34.5286 36.632 34.4207 36.6503C31.4805 36.6503 28.5459 36.6503 25.6112 36.6503C25.0667 36.6503 25.0232 36.3949 25.1702 35.9331C25.8344 33.8628 26.4769 31.7817 27.1139 29.7061C28.6965 24.5658 30.2755 19.4255 31.8508 14.2852C32.7981 11.2532 33.7727 8.20489 34.7201 5.14571C35.025 4.16765 35.2972 3.17871 35.6076 2.20065C35.7219 1.83659 35.7981 1.49426 36.3753 1.4997C39.8871 1.5323 43.3989 1.4997 46.9161 1.4997C47.3571 1.4997 47.4606 1.68988 47.6076 2.04307C49.0014 6.47697 50.4043 10.9145 51.8163 15.3556C53.2483 19.8765 54.6965 24.3919 56.0958 28.9399C56.3258 29.7668 56.4502 30.6194 56.466 31.4774C56.5259 32.9989 56.466 34.5203 56.466 36.0418C56.466 36.5254 56.3081 36.7101 55.8181 36.6992C54.506 36.6612 53.1775 36.6775 51.849 36.6775ZM39.1575 21.7837C39.2609 21.8326 39.3208 21.8924 39.3916 21.8924C40.5786 21.9413 41.7655 21.9902 42.9524 21.9902C43.0559 21.9902 43.2737 21.5827 43.2301 21.4468C42.6856 19.3875 42.0922 17.3389 41.515 15.2904L41.2047 15.2144C40.3281 17.2955 39.9197 19.5613 39.1575 21.7837Z" fill="#D35F5F"/>
<path d="M15.2335 0C15.8488 0.10324 16.464 0.228216 17.0793 0.309721C20.1119 0.711815 22.8887 1.63011 25.023 3.98291C26.1833 5.26578 26.9405 6.86042 27.2009 8.56895C27.661 10.9602 27.5321 13.4272 26.8252 15.7577C25.9595 18.442 24.1628 20.3112 21.7671 21.6859C21.5983 21.7837 21.4132 21.8652 21.2226 21.9576C21.1791 21.9576 21.1519 22.0282 21.0539 22.1423C21.6364 23.1965 22.2299 24.2832 22.8397 25.3591C23.553 26.6197 24.2934 27.8695 25.0176 29.1627C25.1153 29.3778 25.1327 29.6206 25.0666 29.8473C24.4295 31.9502 23.7544 34.0476 23.1283 36.1559C23.0965 36.3317 22.996 36.4877 22.849 36.5896C22.702 36.6914 22.5204 36.7309 22.3442 36.6992C19.709 36.6992 17.0738 36.6992 14.4386 36.6992C14.2732 36.7201 14.1058 36.6796 13.9683 36.5854C13.8308 36.4913 13.7327 36.35 13.6927 36.1885C12.6038 33.6781 11.4114 31.1895 10.2517 28.7008C10.1731 28.5475 10.0858 28.3987 9.99033 28.2553L9.76165 28.3585C9.71771 28.5992 9.68862 28.8424 9.67454 29.0866C9.67454 31.3362 9.64731 33.5803 9.67454 35.8244C9.67454 36.4602 9.53298 36.7101 8.84151 36.6938C7.03933 36.6449 5.2317 36.6938 3.39686 36.6938C2.44949 36.6938 1.50212 36.6232 0.565639 36.5254C0.369631 36.5254 0.15729 36.2156 0.0483969 35.982C-0.0604961 35.7483 0.0483969 35.5908 0.0483969 35.3897C0.0429522 24.4517 0.0647308 13.5299 0.0102843 2.59731C0.00483969 1.32039 0.342408 0.472732 1.50756 0H15.2335Z" fill="#D35F5F"/>
</svg>
