<svg width="18" height="18" viewBox="0 0 18 18" fill="none" xmlns="http://www.w3.org/2000/svg">
<g clip-path="url(#clip0_1645_2)">
<path fill-rule="evenodd" clip-rule="evenodd" d="M9.00745 0C4.02656 0 0 4.12498 0 9.22811C0 13.3074 2.57995 16.7604 6.15903 17.9825C6.60651 18.0744 6.77042 17.7839 6.77042 17.5396C6.77042 17.3257 6.75566 16.5924 6.75566 15.8283C4.25002 16.3784 3.72823 14.7282 3.72823 14.7282C3.32556 13.6587 2.72893 13.3839 2.72893 13.3839C1.90882 12.8185 2.78866 12.8185 2.78866 12.8185C3.69836 12.8797 4.17571 13.7658 4.17571 13.7658C4.98088 15.1713 6.27831 14.7742 6.80028 14.5297C6.87477 13.9338 7.11353 13.5213 7.36705 13.2922C5.36861 13.0783 3.26601 12.2839 3.26601 8.73915C3.26601 7.73078 3.6237 6.90578 4.19046 6.26416C4.10104 6.03504 3.78779 5.08761 4.28007 3.81954C4.28007 3.81954 5.04061 3.57504 6.75548 4.76679C7.48968 4.56479 8.24684 4.46203 9.00745 4.46117C9.76795 4.46117 10.5433 4.56823 11.2592 4.76679C12.9743 3.57504 13.7348 3.81954 13.7348 3.81954C14.2271 5.08761 13.9136 6.03504 13.8242 6.26416C14.4059 6.90578 14.7488 7.73078 14.7488 8.73915C14.7488 12.2839 12.6462 13.0629 10.6328 13.2922C10.9611 13.5824 11.2442 14.1324 11.2442 15.0033C11.2442 16.2408 11.2295 17.234 11.2295 17.5394C11.2295 17.7839 11.3936 18.0744 11.8409 17.9827C15.4199 16.7602 18 13.3074 18 9.22811C18.0146 4.12498 13.9734 0 9.00745 0Z" fill="#E1E0E9"/>
</g>
<defs>
<clipPath id="clip0_1645_2">
<rect width="18" height="18" fill="white"/>
</clipPath>
</defs>
</svg>
