<svg width="128" height="128" viewBox="0 0 128 128" fill="none" xmlns="http://www.w3.org/2000/svg">
<path d="M86.6474 60.7694C89.2479 62.8417 91.8351 64.4398 93.8304 66.5707C100.368 73.5413 101.206 81.7917 98.6855 90.5423C95.6727 100.982 88.1306 106.66 77.5889 108.732C73.4727 109.493 69.2944 109.889 65.1052 109.915C54.3042 110.071 43.4965 109.967 32.6955 109.96C32.3297 109.96 31.9573 109.96 31.5915 109.96C28 109.811 28 109.811 28 106.296V21.1933C28 18.0296 28 18.0231 31.2589 18.0231C42.8714 18.0231 54.4838 17.9711 66.0962 18.0231C73.4122 18.0686 80.1495 19.8486 86.1619 24.1102C94.808 30.2298 98.3064 44.0022 94.6019 51.7264C93.2097 54.7462 91.087 57.3903 88.4166 59.4311L86.6474 60.7694ZM51.3978 80.1026C51.3978 82.7532 51.3978 85.4102 51.3978 88.0672C51.3978 89.3665 51.8833 90.0161 53.3332 90.0161C57.5897 89.9642 61.8596 90.1071 66.1095 89.9382C69.435 89.8082 72.501 88.8013 74.6027 86.0403C75.7445 84.657 76.4556 82.9824 76.6513 81.2158C76.847 79.4492 76.5192 77.6648 75.7067 76.0749C73.8844 72.268 70.5323 70.4945 66.3024 70.397C62.0724 70.2996 57.7826 70.397 53.5261 70.3321C51.8367 70.2996 51.3512 71.0467 51.3911 72.5473C51.4443 75.0744 51.3978 77.5885 51.4044 80.1026H51.3978ZM60.2701 37.142V37.103C57.9223 37.103 55.5745 37.103 53.2334 37.103C52.0828 37.103 51.4044 37.4733 51.4044 38.6816C51.4044 43.3396 51.3712 47.9975 51.4842 52.6489C51.4842 53.1556 52.4087 54.0846 52.8942 54.0781C58.0154 54.0781 63.1698 54.2015 68.2378 53.6558C72.3015 53.2141 75.0948 48.9914 74.7823 44.9442C74.7028 42.9125 73.8455 40.984 72.3798 39.5403C70.9141 38.0966 68.947 37.243 66.8677 37.1485C64.6796 37.051 62.4781 37.142 60.2767 37.142H60.2701Z" fill="white"/>
<path d="M51.3978 80.1026V88.0672C51.3978 89.3665 51.8833 90.0161 53.3332 90.0161C57.5897 89.9642 61.8596 90.1071 66.1095 89.9382C69.435 89.8082 72.501 88.8013 74.6027 86.0403C75.7445 84.657 76.4556 82.9824 76.6513 81.2158C76.847 79.4492 76.5192 77.6648 75.7067 76.0749C73.8844 72.268 70.5323 70.4945 66.3024 70.397C62.0724 70.2996 57.7826 70.397 53.5261 70.3321C51.8367 70.2996 51.3512 71.0467 51.3911 72.5473C51.4443 75.0744 51.3978 77.5885 51.4044 80.1026H51.3978Z" fill="white"/>
<path d="M60.2701 37.142V37.103H53.2334C52.0828 37.103 51.4044 37.4733 51.4044 38.6816C51.4044 43.3396 51.3712 47.9975 51.4842 52.6489C51.4842 53.1556 52.4087 54.0846 52.8942 54.0781C58.0154 54.0781 63.1698 54.2015 68.2378 53.6558C72.3015 53.2141 75.0948 48.9914 74.7823 44.9442C74.7028 42.9125 73.8455 40.984 72.3798 39.5403C70.9141 38.0966 68.947 37.243 66.8677 37.1485C64.6796 37.051 62.4781 37.142 60.2767 37.142H60.2701Z" fill="white"/>
</svg>
