<svg width="32" height="32" viewBox="0 0 32 32" fill="none" xmlns="http://www.w3.org/2000/svg">
<path d="M25.693 6.24C25.3887 6.02068 25.0369 5.8762 24.6662 5.81829C24.2956 5.76037 23.9165 5.79065 23.5597 5.90667C22.6186 6.17131 21.6438 6.29709 20.6664 6.28C19.2218 6.20159 17.8054 5.84863 16.493 5.24C14.8717 4.49018 13.118 4.06874 11.333 4C7.4797 4 5.9997 5.33333 5.73303 5.52C5.60544 5.64506 5.50429 5.79448 5.43557 5.95939C5.36686 6.12431 5.33199 6.30135 5.33303 6.48V26.6667C5.33303 27.0203 5.47351 27.3594 5.72356 27.6095C5.9736 27.8595 6.31274 28 6.66636 28C7.01999 28 7.35912 27.8595 7.60917 27.6095C7.85922 27.3594 7.9997 27.0203 7.9997 26.6667V20.9333C9.06213 20.5266 10.1963 20.3406 11.333 20.3867C12.7776 20.4651 14.194 20.818 15.5064 21.4267C17.1277 22.1765 18.8814 22.5979 20.6664 22.6667C22.2737 22.7274 23.8727 22.4076 25.333 21.7333C25.7266 21.5484 26.0603 21.2566 26.2961 20.8912C26.5318 20.5258 26.6601 20.1015 26.6664 19.6667V8.14667C26.6659 7.77463 26.5775 7.40798 26.4083 7.07662C26.2392 6.74527 25.9941 6.4586 25.693 6.24ZM23.9997 19.4533C22.9369 19.8587 21.803 20.0446 20.6664 20C19.22 19.9234 17.8025 19.5656 16.493 18.9467C14.8686 18.2077 13.1162 17.7911 11.333 17.72C10.2097 17.7006 9.08877 17.8307 7.9997 18.1067V7.22667C9.05965 6.80978 10.195 6.61904 11.333 6.66667C12.7794 6.74331 14.1969 7.10109 15.5064 7.72C17.1308 8.459 18.8832 8.8756 20.6664 8.94667C21.7904 8.96326 22.9115 8.82873 23.9997 8.54667V19.4533Z" fill="white"/>
</svg>
