<svg width="128" height="128" viewBox="0 0 128 128" fill="none" xmlns="http://www.w3.org/2000/svg">
<path d="M103.469 39.1459L88.8554 24.5326C86.9482 22.7411 84.4489 21.7132 81.8332 21.6443C79.2174 21.5755 76.6676 22.4705 74.6687 24.1592L26.6687 72.1592C24.9448 73.8977 23.8714 76.1763 23.6287 78.6126L21.3354 100.853C21.2636 101.634 21.3649 102.421 21.6323 103.159C21.8996 103.896 22.3263 104.566 22.8821 105.119C23.3804 105.614 23.9714 106.005 24.6212 106.27C25.271 106.535 25.9668 106.67 26.6687 106.666H27.1487L49.3887 104.639C51.825 104.397 54.1036 103.323 55.8421 101.599L103.842 53.5992C105.705 51.6311 106.712 49.0046 106.642 46.2954C106.572 43.5862 105.431 41.0153 103.469 39.1459ZM48.4287 93.9726L32.4287 95.4659L33.8687 79.4659L64.0021 49.7059L78.4021 64.1059L48.4287 93.9726ZM85.3354 56.9592L71.0421 42.6659L81.4421 31.9992L96.0021 46.5592L85.3354 56.9592Z" fill="white"/>
</svg>
