<svg width="128" height="128" viewBox="0 0 128 128" fill="none" xmlns="http://www.w3.org/2000/svg">
<path d="M37.9735 66.9335C33.3364 68.0418 29.2042 70.6716 26.2365 74.4031C23.2687 78.1345 21.6364 82.7526 21.6002 87.5202V104.107C21.5929 104.445 21.6542 104.781 21.7802 105.095C21.9063 105.409 22.0946 105.694 22.3338 105.933C22.573 106.172 22.8581 106.361 23.172 106.487C23.4859 106.613 23.822 106.674 24.1602 106.667L41.4402 106.347C45.3007 106.353 49.0819 105.251 52.3342 103.171C55.5865 101.091 58.1732 98.1206 59.7869 94.6135C61.4427 91.3082 62.1231 87.5997 61.7485 83.9219C61.3739 80.2441 59.9598 76.749 57.6716 73.8454C55.3834 70.9418 52.3157 68.7498 48.8274 67.5257C45.3391 66.3017 41.5743 66.0963 37.9735 66.9335Z" fill="white"/>
<path d="M102.72 23.7864C100.482 22.0216 97.6648 21.1579 94.8224 21.3652C91.98 21.5725 89.318 22.8356 87.3598 24.9064L53.3331 59.093C52.8706 59.5621 52.6113 60.1943 52.6113 60.853C52.6113 61.5117 52.8706 62.144 53.3331 62.613L65.3331 74.6664C65.8022 75.1289 66.4344 75.3881 67.0931 75.3881C67.7518 75.3881 68.3841 75.1289 68.8531 74.6664L103.466 40.1597C104.492 39.1295 105.303 37.9061 105.852 36.5604C106.401 35.2146 106.678 33.7732 106.666 32.3197C106.704 30.6903 106.368 29.074 105.684 27.5947C105 26.1155 103.986 24.8127 102.72 23.7864Z" fill="white"/>
</svg>
