<svg width="32" height="32" viewBox="0 0 32 32" fill="none" xmlns="http://www.w3.org/2000/svg">
<path d="M16.0003 2.66699C13.3632 2.66699 10.7854 3.44898 8.59273 4.91406C6.40007 6.37915 4.69111 8.46153 3.68194 10.8979C2.67277 13.3342 2.40872 16.0151 2.92319 18.6015C3.43766 21.1879 4.70754 23.5637 6.57224 25.4284C8.43694 27.2931 10.8127 28.563 13.3991 29.0775C15.9855 29.5919 18.6664 29.3279 21.1028 28.3187C23.5391 27.3096 25.6215 25.6006 27.0866 23.4079C28.5517 21.2153 29.3337 18.6374 29.3337 16.0003C29.3337 14.2494 28.9888 12.5156 28.3187 10.8979C27.6487 9.2802 26.6665 7.81035 25.4284 6.57224C24.1903 5.33412 22.7205 4.35199 21.1028 3.68193C19.4851 3.01187 17.7513 2.66699 16.0003 2.66699ZM26.667 16.0003C26.6699 18.3692 25.8763 20.6703 24.4137 22.5337L9.467 7.58699C11.3304 6.12435 13.6315 5.33071 16.0003 5.33366C18.8293 5.33366 21.5424 6.45747 23.5428 8.45785C25.5432 10.4582 26.667 13.1713 26.667 16.0003ZM5.33366 16.0003C5.33072 13.6315 6.12435 11.3304 7.587 9.46699L22.5337 24.4137C20.6703 25.8763 18.3692 26.6699 16.0003 26.667C13.1714 26.667 10.4582 25.5432 8.45786 23.5428C6.45747 21.5424 5.33366 18.8293 5.33366 16.0003Z" fill="white"/>
</svg>
