<svg width="32" height="32" viewBox="0 0 32 32" fill="none" xmlns="http://www.w3.org/2000/svg">
<path d="M9.6422 10.9858C8.27974 12.6781 7.64399 14.8417 7.87437 17.002L5.57919 17.2763C5.27608 14.5072 6.08386 11.731 7.82528 9.55675C9.40846 7.54466 11.6638 6.1706 14.1779 5.68643L13.0535 4.40509C12.8486 4.16981 12.7455 3.86275 12.767 3.55147C12.7776 3.39734 12.8185 3.24682 12.8873 3.10849C12.9561 2.97016 13.0515 2.84673 13.168 2.74526C13.2845 2.64379 13.4198 2.56626 13.5663 2.51709C13.7127 2.46792 13.8674 2.44809 14.0216 2.45871C14.1757 2.46934 14.3262 2.51022 14.4646 2.57902C14.6029 2.64782 14.7263 2.74319 14.8278 2.85969L17.9257 6.39912C17.9681 6.46037 18.0061 6.52461 18.0392 6.59132C18.0398 6.66533 18.1048 6.65757 18.1307 6.73678C18.1566 6.81599 18.1286 6.92633 18.1741 6.96205L18.2097 7.12242C18.2082 7.21082 18.1937 7.29852 18.1667 7.3827C18.1691 7.42793 18.1633 7.47321 18.1498 7.51642C18.1078 7.64371 18.0441 7.76273 17.9613 7.86817L17.8399 8.0226L14.1744 11.3743C14.0626 11.4778 13.9315 11.5582 13.7885 11.6108C13.6456 11.6635 13.4936 11.6873 13.3414 11.681C13.1892 11.6747 13.0398 11.6384 12.9016 11.5742C12.7635 11.5099 12.6395 11.419 12.5366 11.3066C12.4331 11.1948 12.3527 11.0637 12.3001 10.9208C12.2475 10.7778 12.2236 10.6259 12.2299 10.4737C12.2362 10.3215 12.2725 10.172 12.3367 10.0339C12.401 9.89575 12.4919 9.7717 12.6043 9.66884L14.4818 7.95472C12.5639 8.36818 10.8514 9.44069 9.6422 10.9858Z" fill="white"/>
<path d="M23.0821 22.6354C22.8841 22.4034 22.6024 22.2591 22.2984 22.2338C21.9944 22.2086 21.6928 22.3046 21.4592 22.5009C20.1073 23.6223 18.4328 24.2831 16.6793 24.3871C14.9259 24.4911 13.185 24.0329 11.71 23.0792C9.85875 21.942 8.53407 20.117 8.02639 18.0046C7.51872 15.8921 7.86949 13.6645 9.00178 11.8103C10.1856 9.98857 12.0436 8.71064 14.1683 8.25675C16.2929 7.80287 18.5109 8.21007 20.3358 9.38907C21.9983 10.431 23.2431 12.0225 23.8539 13.8871L21.9537 12.1981C21.8397 12.097 21.7069 12.0195 21.5628 11.97C21.4188 11.9204 21.2664 11.8999 21.1143 11.9094C20.9623 11.919 20.8137 11.9585 20.677 12.0258C20.5403 12.093 20.4182 12.1866 20.3178 12.3011C20.2167 12.4151 20.1392 12.548 20.0897 12.692C20.0402 12.8361 20.0196 12.9885 20.0292 13.1405C20.0387 13.2926 20.0783 13.4412 20.1455 13.5779C20.2127 13.7146 20.3063 13.8367 20.4209 13.9371L24.1357 17.234L24.302 17.3387C24.4155 17.41 24.5405 17.4611 24.6714 17.4895C24.7158 17.4985 24.7614 17.4995 24.8062 17.4925C24.8927 17.5106 24.9814 17.5158 25.0695 17.5081L25.2253 17.456C25.2561 17.4071 25.3688 17.4235 25.4448 17.3894C25.5209 17.3554 25.5065 17.2916 25.58 17.2833C25.6429 17.2434 25.7028 17.199 25.7594 17.1505L28.9573 13.7011C29.0626 13.588 29.1446 13.4554 29.1986 13.3106C29.2527 13.1659 29.2777 13.0119 29.2722 12.8575C29.2667 12.7031 29.2309 12.5513 29.1668 12.4108C29.1026 12.2702 29.0114 12.1437 28.8984 12.0384C28.7853 11.9331 28.6527 11.851 28.5079 11.797C28.3632 11.743 28.2092 11.718 28.0548 11.7234C27.743 11.7345 27.4483 11.8689 27.2357 12.0972L26.0783 13.3488C25.3352 10.8987 23.7339 8.79859 21.568 7.43334C19.2244 5.92756 16.3792 5.413 13.6567 6.00256C10.9342 6.59212 8.55674 8.23765 7.04605 10.5781C5.58698 12.951 5.12886 15.8058 5.77221 18.5161C6.41556 21.2265 8.10783 23.5709 10.4777 25.0349C12.3691 26.2676 14.6064 26.8605 16.86 26.7262C19.1137 26.592 21.2647 25.7377 22.9964 24.2891C23.1124 24.1872 23.2068 24.0632 23.2741 23.9243C23.3413 23.7854 23.3801 23.6344 23.3881 23.4803C23.3961 23.3262 23.3731 23.172 23.3205 23.0269C23.268 22.8818 23.1869 22.7487 23.0821 22.6354Z" fill="white"/>
<path d="M7.80781 18.0147C8.33817 19.9037 9.51371 21.5471 11.1301 22.6592L9.81521 24.5604C7.70978 23.1036 6.19994 20.9369 5.56244 18.4572L4.35249 19.6581C4.13023 19.877 3.83008 19.9988 3.51807 19.9964C3.36358 19.9953 3.21082 19.9637 3.06853 19.9035C2.92624 19.8434 2.7972 19.7557 2.68877 19.6457C2.58034 19.5356 2.49465 19.4053 2.4366 19.2621C2.37854 19.119 2.34925 18.9657 2.3504 18.8113C2.35155 18.6568 2.38311 18.504 2.4433 18.3617C2.50348 18.2194 2.5911 18.0904 2.70115 17.982L6.04385 14.6727C6.10239 14.6266 6.16418 14.5848 6.22873 14.5476C6.30256 14.5425 6.29083 14.4782 6.3683 14.4474C6.44577 14.4167 6.55762 14.4378 6.5905 14.3903L6.74837 14.3449C6.83669 14.341 6.92512 14.35 7.0108 14.3718C7.0558 14.3667 7.10134 14.3697 7.14531 14.3805C7.27493 14.4146 7.39764 14.4709 7.50795 14.547L7.66955 14.6588L11.2398 18.1117C11.35 18.217 11.4382 18.3429 11.4996 18.4824C11.5609 18.6218 11.594 18.772 11.5971 18.9243C11.6001 19.0766 11.573 19.228 11.5174 19.3698C11.4617 19.5116 11.3786 19.641 11.2727 19.7506C11.1675 19.8608 11.0416 19.949 10.9021 20.0103C10.7627 20.0716 10.6125 20.1048 10.4602 20.1078C10.3079 20.1109 10.1565 20.0838 10.0147 20.0282C9.87285 19.9725 9.74345 19.8894 9.63389 19.7835L7.80781 18.0147Z" fill="white"/>
</svg>
