<svg width="128" height="128" viewBox="0 0 128 128" fill="none" xmlns="http://www.w3.org/2000/svg">
<path d="M96 16H32C27.7565 16 23.6869 17.6857 20.6863 20.6863C17.6857 23.6869 16 27.7565 16 32V96C16 100.243 17.6857 104.313 20.6863 107.314C23.6869 110.314 27.7565 112 32 112H96C100.243 112 104.313 110.314 107.314 107.314C110.314 104.313 112 100.243 112 96V32C112 27.7565 110.314 23.6869 107.314 20.6863C104.313 17.6857 100.243 16 96 16ZM64 32C65.0548 32 66.086 32.3128 66.963 32.8988C67.8401 33.4849 68.5237 34.3178 68.9274 35.2924C69.331 36.2669 69.4366 37.3393 69.2309 38.3738C69.0251 39.4084 68.5171 40.3587 67.7712 41.1046C67.0254 41.8504 66.075 42.3584 65.0405 42.5642C64.0059 42.77 62.9336 42.6644 61.959 42.2607C60.9845 41.857 60.1515 41.1734 59.5655 40.2964C58.9795 39.4193 58.6667 38.3882 58.6667 37.3333C58.6667 35.9188 59.2286 34.5623 60.2288 33.5621C61.229 32.5619 62.5855 32 64 32ZM42.6667 32C43.7215 32 44.7526 32.3128 45.6297 32.8988C46.5068 33.4849 47.1904 34.3178 47.594 35.2924C47.9977 36.2669 48.1033 37.3393 47.8975 38.3738C47.6917 39.4084 47.1838 40.3587 46.4379 41.1046C45.692 41.8504 44.7417 42.3584 43.7071 42.5642C42.6726 42.77 41.6002 42.6644 40.6257 42.2607C39.6512 41.857 38.8182 41.1734 38.2322 40.2964C37.6461 39.4193 37.3333 38.3882 37.3333 37.3333C37.3333 35.9188 37.8952 34.5623 38.8954 33.5621C39.8956 32.5619 41.2522 32 42.6667 32ZM101.333 96C101.333 97.4145 100.771 98.771 99.7712 99.7712C98.771 100.771 97.4145 101.333 96 101.333H32C30.5855 101.333 29.229 100.771 28.2288 99.7712C27.2286 98.771 26.6667 97.4145 26.6667 96V58.6667H101.333V96Z" fill="white"/>
</svg>
