<svg width="32" height="32" viewBox="0 0 32 32" fill="none" xmlns="http://www.w3.org/2000/svg">
<path d="M27.2001 4.75C28.473 4.75001 29.6939 5.258 30.594 6.16215C31.4942 7.06633 32 8.29268 32 9.57139V22.4286C32 23.7073 31.4942 24.9337 30.594 25.8379C29.6939 26.742 28.473 27.25 27.2001 27.25H4.79995C3.52695 27.25 2.30614 26.742 1.40598 25.8379C0.505818 24.9337 1.03669e-05 23.7073 0 22.4286V9.57139C9.99725e-06 8.29268 0.505817 7.06633 1.40598 6.16215C2.30614 5.258 3.52695 4.75001 4.79995 4.75H27.2001ZM4.79995 7.4939C4.25342 7.49392 3.72857 7.71192 3.34108 8.1011C2.95346 8.49044 2.73505 9.01933 2.73504 9.57139V22.4286L2.73771 22.5318C2.76312 23.0462 2.97768 23.5339 3.34108 23.8989C3.72857 24.2881 4.25342 24.5061 4.79995 24.5061H27.2001L27.3021 24.5037C27.8115 24.4783 28.2956 24.2638 28.6589 23.8989C29.0223 23.5339 29.2369 23.0462 29.2623 22.5318L29.265 22.4286V9.57139L29.2623 9.46823C29.2369 8.95381 29.0223 8.46612 28.6589 8.1011C28.2714 7.71192 27.7466 7.49392 27.2001 7.4939H4.79995Z" fill="white"/>
<rect x="13.25" y="13.5" width="12.75" height="4.5" rx="2.25" fill="white"/>
<path d="M5.5 15.625C5.5 14.4514 6.45139 13.5 7.625 13.5V13.5C8.79861 13.5 9.75 14.4514 9.75 15.625V15.875C9.75 17.0486 8.79861 18 7.625 18V18C6.45139 18 5.5 17.0486 5.5 15.875V15.625Z" fill="white"/>
</svg>
