<svg width="128" height="128" viewBox="0 0 128 128" fill="none" xmlns="http://www.w3.org/2000/svg">
<path d="M79.7276 59.2973C80.0288 59.2129 82.5845 58.436 86.956 57.0997C88.7935 56.5378 88.3842 56.5179 90.3807 57.2681C91.3505 57.6325 92.1852 57.9307 92.2355 57.9307C92.2983 57.9307 92.3341 55.825 92.3495 51.2265C92.3568 48.9918 92.3643 46.7568 92.3718 44.5222C93.4908 44.5146 94.61 44.507 95.7289 44.4993C98.3569 44.4815 99.1014 44.5003 99.1563 44.5866C99.1947 44.6472 99.2271 48.7118 99.2276 53.619C99.2281 56.593 99.2285 59.567 99.229 62.541C99.4799 63.0758 99.7306 63.6104 99.9814 64.145C100.395 65.0269 101 66.3187 101.325 67.0154C101.651 67.7121 102.083 68.6358 102.286 69.0682C102.49 69.5006 102.951 70.4833 103.311 71.252C103.671 72.0207 104.271 73.2981 104.644 74.0909C105.018 74.8837 105.922 76.8097 106.653 78.3712C107.385 79.9327 108.27 81.8195 108.62 82.5641C109.812 85.0956 112.005 89.7684 112.289 90.3821C112.445 90.7184 112.739 91.3474 112.943 91.7798C113.146 92.2122 113.608 93.1949 113.968 93.9636C114.328 94.7323 114.937 96.0265 115.321 96.8396C115.705 97.6526 116.148 98.596 116.305 98.936C116.462 99.276 116.757 99.9079 116.961 100.34C117.165 100.773 117.626 101.755 117.986 102.524C118.346 103.293 118.946 104.57 119.32 105.363C119.693 106.156 120.597 108.082 121.328 109.643C122.06 111.205 122.945 113.091 123.295 113.836C124.507 116.41 126.682 121.045 126.964 121.654C127.12 121.991 127.431 122.655 127.656 123.13C127.881 123.606 128.033 124.024 127.994 124.06C127.941 124.109 122.368 125.735 121.679 125.903C121.534 125.938 121.319 125.534 120.005 122.746C119.563 121.809 118.811 120.217 118.334 119.208C117.856 118.199 117.29 117 117.074 116.544C115.722 113.679 115.188 112.553 114.449 110.997C113.993 110.036 113.492 108.975 113.335 108.639C113.179 108.302 112.846 107.595 112.595 107.066C112.344 106.538 111.833 105.457 111.458 104.664C111.083 103.871 110.572 102.791 110.322 102.262C110.072 101.734 109.532 100.594 109.124 99.7288C108.715 98.864 108.232 97.842 108.051 97.4577C107.869 97.0733 107.181 95.6189 106.52 94.2256C105.86 92.8324 104.987 90.9849 104.579 90.1201C104.172 89.2553 103.681 88.2135 103.488 87.8052C103.146 87.0779 100.707 81.9233 99.2739 78.8953C98.8759 78.0546 97.8724 75.932 97.0439 74.1783C94.6982 69.2128 94.0078 67.7528 93.4695 66.6202C93.3032 66.2699 93.1367 65.9196 92.9704 65.5695C92.4047 65.3111 91.8391 65.0524 91.2735 64.7938C90.3402 64.3672 88.5545 63.5491 87.3054 62.9753C83.3756 61.171 80.9523 60.0586 80.2517 59.7374C79.8792 59.5669 79.5747 59.4075 79.5747 59.3836C79.5747 59.3597 79.6435 59.3209 79.7276 59.2973Z" fill="white"/>
<path d="M0.734109 69.7669C1.13855 69.1423 1.80907 68.1006 2.22434 67.452C3.01191 66.2214 3.92212 64.8081 5.54338 62.2983C7.35716 59.4901 8.11014 58.3216 8.86364 57.1445C9.27891 56.496 10.0651 55.2772 10.6109 54.4366C11.1565 53.5959 11.9421 52.3771 12.3569 51.7286C12.7716 51.0801 13.5578 49.8614 14.1039 49.0207C14.65 48.18 15.4366 46.9613 15.8517 46.3128C16.634 45.0899 17.5267 43.7036 19.1703 41.159C20.814 38.6144 21.7067 37.2281 22.489 36.0052C22.9041 35.3565 23.6906 34.138 24.2368 33.2973C24.7829 32.4566 25.5698 31.2381 25.9849 30.5894C26.4001 29.9407 27.1005 28.8509 27.5411 28.1676C27.9817 27.4842 28.577 26.5605 28.8637 26.1148C29.1505 25.6692 29.7597 24.7259 30.2176 24.0184C30.6757 23.311 31.2653 22.3971 31.5279 21.9874C31.7907 21.5778 32.0284 21.2427 32.056 21.2427C32.1107 21.2427 32.2711 21.4527 33.6252 23.2955C34.4893 24.4714 34.6439 24.6821 35.3578 25.6571C35.5349 25.8993 36.0119 26.5478 36.4179 27.0984C37.4467 28.4948 38.8423 30.3911 39.1475 30.8078C39.2881 30.9999 39.5482 31.3551 39.7254 31.5971C39.9025 31.8392 40.3797 32.4877 40.7855 33.0384C41.1912 33.5892 41.9136 34.5704 42.3905 35.219C42.8676 35.8677 43.3807 36.5646 43.5308 36.7676C43.6809 36.9706 43.9262 37.3048 44.0759 37.5101C44.2258 37.7154 44.7389 38.4139 45.2164 39.0625C45.6938 39.7111 46.4452 40.7331 46.8862 41.3337C47.3271 41.9343 48.0485 42.9169 48.4895 43.5175C48.9304 44.1182 49.4947 44.8846 49.7433 45.2209C50.1911 45.8262 51.7566 47.9536 52.2503 48.6276C52.391 48.8198 52.6511 49.1752 52.8282 49.4171C53.0054 49.6591 53.4825 50.3076 53.8883 50.8584C54.8394 52.149 56.2897 54.1198 56.6181 54.5676C56.7591 54.7598 57.314 55.5129 57.8513 56.2413C58.3886 56.9696 59.082 57.913 59.3919 58.3377C59.7018 58.7624 60.2457 59.4993 60.6008 59.9752C60.9558 60.4511 61.2665 60.8928 61.2909 60.9569C61.3318 61.0631 60.8591 61.836 59.1777 64.4115C58.8414 64.9267 58.2125 65.9012 57.7801 66.5771C57.3477 67.2531 56.6008 68.4134 56.1204 69.1559C55.6399 69.8986 54.8538 71.117 54.3733 71.8633C53.8929 72.6097 53.1067 73.8284 52.6263 74.5713C52.1458 75.3141 51.3597 76.5325 50.8792 77.2787C50.3988 78.0248 49.6519 79.1847 49.2195 79.8561C48.7871 80.5275 48.0403 81.6873 47.5598 82.4335C47.0794 83.1797 46.2932 84.3979 45.8128 85.1409C45.3324 85.8839 44.5462 87.1023 44.0658 87.8488C43.5853 88.5953 42.7991 89.8137 42.3187 90.5567C41.8383 91.2998 41.0521 92.5194 40.5717 93.2669C40.0912 94.0147 39.305 95.2327 38.8246 95.9741C38.3442 96.7152 37.5973 97.8742 37.1649 98.5495C36.7325 99.2245 35.9857 100.384 35.5052 101.127C35.0248 101.87 34.2386 103.088 33.7582 103.834C32.5335 105.737 31.2674 107.695 30.1725 109.381C29.2471 110.805 29.2349 110.819 29.0997 110.615C29.0246 110.502 28.553 109.854 28.052 109.174C27.5509 108.496 27.0254 107.783 26.8842 107.59C26.7431 107.398 26.1879 106.645 25.6507 105.917C25.1133 105.188 24.4197 104.245 24.1092 103.82C23.799 103.396 23.1536 102.517 22.6753 101.869C21.5276 100.313 20.387 98.7647 20.0688 98.3311C19.9277 98.1389 19.4195 97.4509 18.9394 96.8024C18.4593 96.1539 17.9022 95.3959 17.7013 95.1181C17.5003 94.8401 16.9035 94.0281 16.3751 93.3134C15.8466 92.5987 15.1602 91.6663 14.8499 91.2416C14.5394 90.8169 13.8943 89.9386 13.4159 89.2901C12.0305 87.4115 11.0859 86.1294 10.8102 85.7524C10.6697 85.5602 10.1151 84.8067 9.57783 84.0776C8.58324 82.7287 6.76212 80.2542 5.31347 78.2837C4.87199 77.6831 4.30734 76.9167 4.05856 76.5804C3.67037 76.0557 2.40429 74.3356 1.55103 73.1736C1.40987 72.9814 1.0035 72.4311 0.64798 71.9507C0.292456 71.4703 0.000874146 71.0379 6.23084e-07 70.9898C-0.000523491 70.9418 0.329668 70.3915 0.734109 69.7669Z" fill="white"/>
<path d="M36.6765 17.7975C36.7202 17.7704 37.3689 17.5716 38.1179 17.3555C38.867 17.1394 40.099 16.7824 40.8557 16.5625C41.6123 16.3424 43.4305 15.8148 44.8957 15.3901C47.5638 14.6168 50.7389 13.6954 55.7274 12.2469C57.1926 11.8215 59.6102 11.1196 61.0996 10.687C62.5889 10.2548 65.026 9.54723 66.5154 9.11466C68.0048 8.68244 70.4419 7.97489 71.9312 7.54232C76.6007 6.18679 79.9546 5.21456 82.9376 4.35152C84.5231 3.89292 86.2062 3.40112 86.6779 3.25874C86.9635 3.17243 87.2495 3.0863 87.5353 3C87.8297 3.39815 88.1243 3.79613 88.4186 4.19411C89.2771 5.35467 90.517 7.03795 91.0355 7.7469C91.1762 7.93907 91.7309 8.69223 92.2683 9.42057C92.8057 10.1489 93.4989 11.0923 93.809 11.517C94.1191 11.9417 94.6923 12.7216 95.0827 13.2501C95.4732 13.7786 96.2971 14.899 96.9137 15.7396C97.5302 16.5803 98.2376 17.5435 98.4855 17.8798C98.7334 18.2161 99.2119 18.8646 99.5484 19.3211C99.8848 19.7776 100.665 20.8389 101.282 21.6796C101.898 22.5203 102.678 23.5816 103.015 24.0381C103.351 24.4946 103.83 25.1431 104.078 25.4794C104.326 25.8157 105.033 26.7789 105.649 27.6196C106.266 28.4602 106.973 29.4234 107.221 29.7597C107.47 30.096 108.006 30.8233 108.413 31.3757C109.104 32.3139 109.484 32.8312 111.558 35.656C111.999 36.2566 112.563 37.023 112.812 37.3593C113.195 37.8772 114.347 39.442 115.319 40.7661C115.461 40.9582 115.848 41.486 116.181 41.939C116.514 42.3919 116.787 42.7919 116.787 42.8285C116.787 42.8646 116.718 42.9148 116.634 42.9396C116.55 42.9644 115.518 43.2649 114.341 43.6071C113.164 43.9494 111.886 44.3234 111.502 44.4384C111.117 44.5533 110.115 44.8468 109.274 45.0904C107.258 45.6742 106.778 45.8154 105.727 46.1332C105.241 46.2801 104.819 46.4003 104.789 46.4003C104.759 46.4003 104.724 44.72 104.711 42.666C104.704 41.4212 104.696 40.1764 104.688 38.9317C101.753 38.9243 98.8179 38.9168 95.8825 38.9095C89.8762 38.8943 87.0228 38.9161 86.9062 38.9785C86.739 39.0679 86.7354 39.2049 86.7385 45.3243C86.7404 48.7642 86.7312 51.5887 86.7179 51.6009C86.7046 51.6131 86.5561 51.6633 86.3881 51.712C86.22 51.7608 84.8638 52.1547 83.3744 52.5875C80.0398 53.5562 77.308 54.3508 73.722 55.3946C67.3786 57.2412 65.9179 57.6516 65.8262 57.6134C65.7729 57.5914 65.5129 57.2739 65.2488 56.9083C64.9846 56.5424 64.3604 55.6893 63.862 55.0124C63.3634 54.3356 62.84 53.6243 62.6988 53.4322C62.5576 53.24 62.0024 52.4868 61.465 51.7585C60.9278 51.0301 60.2341 50.0867 59.9238 49.662C59.6133 49.2373 58.9682 48.3591 58.4898 47.7106C57.1044 45.8322 56.16 44.5498 55.8841 44.1728C55.7436 43.9806 55.189 43.2275 54.6516 42.4991C54.1143 41.7708 53.4209 40.8274 53.1108 40.4027C52.8007 39.978 52.2275 39.1981 51.8371 38.6696C51.4466 38.1411 50.6225 37.0208 50.0058 36.1801C49.3891 35.3394 48.6091 34.2781 48.2726 33.8216C47.9359 33.3651 47.4576 32.7166 47.2095 32.3803C46.7259 31.7244 45.1256 29.549 44.7037 28.9735C44.5627 28.7813 44.0079 28.0282 43.4705 27.2998C42.9332 26.5715 42.2395 25.6281 41.9292 25.2034C41.6188 24.7787 40.9736 23.9006 40.4952 23.2519C39.2159 21.5173 38.1799 20.1107 37.8892 19.7142C37.7484 19.522 37.401 19.0503 37.1172 18.6659C36.5768 17.9339 36.5478 17.877 36.6765 17.7975Z" fill="white"/>
<path d="M104.815 52.2112C104.896 52.1611 105.361 52.0218 109.1 50.9278C111.238 50.302 113.543 49.6252 114.379 49.3777C114.712 49.279 114.998 49.2119 115.015 49.2286C115.046 49.2597 114.478 50.161 112.724 52.8639C112.178 53.7046 111.392 54.9233 110.978 55.5718C110.563 56.2203 109.777 57.4391 109.231 58.2797C108.685 59.1204 108.05 60.1033 107.821 60.4636C107.592 60.8238 107.078 61.6204 106.68 62.2337C106.281 62.8469 105.955 63.3872 105.955 63.4348C105.955 63.7043 105.758 63.394 105.274 62.3635C105.093 61.9775 104.912 61.592 104.73 61.206C104.731 59.7155 104.731 58.2251 104.731 56.7343C104.732 53.9911 104.764 52.2428 104.815 52.2112Z" fill="white"/>
<path d="M36.7741 109.425C37.2477 108.705 37.9743 107.584 38.3889 106.936C38.8036 106.287 39.5036 105.197 39.9446 104.514C40.3856 103.83 41.0805 102.749 41.4888 102.112C41.8971 101.475 42.4672 100.592 42.7554 100.15C43.0437 99.7074 43.6726 98.7338 44.1531 97.9859C44.6335 97.2378 45.3804 96.0765 45.8128 95.4051C46.2451 94.7337 46.992 93.5739 47.4724 92.8277C47.9529 92.0816 48.7391 90.8635 49.2195 90.121C49.6999 89.3784 50.4468 88.2185 50.8792 87.5434C51.3116 86.8684 52.0584 85.7085 52.5389 84.9664C53.0193 84.224 53.7662 83.0656 54.1986 82.3921C54.631 81.7186 55.3778 80.5589 55.8583 79.8148C56.3387 79.0706 57.1249 77.8503 57.6053 77.1027C58.0858 76.3552 58.8326 75.1957 59.265 74.5258C59.6974 73.8564 60.3431 72.8557 60.7 72.3022C61.0569 71.7486 61.3573 71.2959 61.3671 71.2959C61.377 71.2959 61.6534 71.6595 61.9811 72.1039C62.3089 72.5484 62.8964 73.3443 63.2869 73.8728C63.6772 74.4013 64.5007 75.5217 65.1173 76.3623C65.7338 77.203 66.441 78.1662 66.6891 78.5025C66.937 78.8388 67.4153 79.4873 67.752 79.9438C68.0885 80.4003 68.8685 81.4616 69.4852 82.3023C70.1019 83.143 70.882 84.2045 71.2185 84.6608C71.5551 85.1171 72.0335 85.7658 72.2814 86.1021C72.5295 86.4384 73.237 87.4016 73.8539 88.2422C74.4708 89.0829 75.2929 90.2017 75.6808 90.7285C76.0686 91.2552 76.5237 91.8737 76.6918 92.1027C77.2536 92.8682 78.9486 95.1723 79.9217 96.4928C80.4509 97.2112 80.8548 97.8264 80.8188 97.8594C80.783 97.8928 80.0657 98.1167 79.225 98.3575C78.3843 98.5984 77.087 98.9731 76.3424 99.1905C75.5978 99.4076 74.3595 99.7682 73.5908 99.9917C72.8221 100.215 71.2497 100.672 70.0967 101.008C68.9436 101.344 66.8012 101.966 65.336 102.391C63.8707 102.816 62.0624 103.342 61.3178 103.558C60.5732 103.776 59.3349 104.136 58.5662 104.359C57.7975 104.583 56.2251 105.04 55.0721 105.376C53.919 105.711 51.7766 106.334 50.3114 106.759C48.8461 107.184 47.028 107.712 46.2714 107.933C45.5147 108.153 44.2764 108.513 43.5198 108.733C37.8401 110.384 36.4032 110.804 36.0948 110.903C35.9575 110.947 35.9004 110.931 35.9056 110.851C35.9098 110.787 36.3006 110.146 36.7741 109.425Z" fill="white"/>
<path d="M64.9195 65.7493C66.1326 63.8569 66.4827 63.3477 66.62 63.2759C66.7065 63.2304 67.85 62.888 69.1608 62.5147C69.955 62.2884 70.7495 62.0622 71.5439 61.8359C71.9141 62.0051 72.2845 62.1742 72.6549 62.3435C75.106 63.4635 86.2617 68.6005 87.8769 69.353C88.1838 69.496 88.491 69.6389 88.7979 69.782C89.0638 70.3474 89.3295 70.9127 89.5956 71.4781C90.0341 72.411 90.6075 73.6262 90.8694 74.1788C91.1313 74.7314 91.8374 76.225 92.4388 77.4982C93.0397 78.7715 93.6931 80.1434 93.8907 80.5472C94.0881 80.9509 94.2497 81.3269 94.2497 81.3826C94.2497 81.4813 93.7382 82.2986 91.7602 85.3601C91.2317 86.1781 90.4456 87.3966 90.0132 88.0678C89.5808 88.7391 88.7946 89.9576 88.2661 90.7758C87.7376 91.5939 86.9467 92.8229 86.5088 93.5069C86.0706 94.1907 85.671 94.7503 85.6206 94.7503C85.5437 94.7503 84.5287 93.4358 83.8985 92.52C83.8024 92.3802 83.293 91.6851 82.7668 90.9749C82.2404 90.2649 81.4769 89.2319 81.0705 88.6793C80.664 88.1267 80.1285 87.3996 79.8801 87.0633C79.6317 86.727 78.9241 85.7638 78.3076 84.9232C77.6911 84.0825 76.9112 83.0211 76.5747 82.5646C76.238 82.1081 75.7597 81.4596 75.5116 81.1233C75.028 80.4677 73.4277 78.2921 73.0058 77.7166C72.8648 77.5244 72.31 76.7713 71.7726 76.0429C71.2354 75.3146 70.542 74.3712 70.2319 73.9465C69.9218 73.5218 69.3486 72.7419 68.9581 72.2134C68.5676 71.6849 67.7434 70.5645 67.1265 69.7239C66.5094 68.8832 65.6981 67.7824 65.3232 67.278C64.9485 66.7736 64.6413 66.3215 64.6406 66.2734C64.6399 66.2254 64.7654 65.9895 64.9195 65.7493Z" fill="white"/>
</svg>
