<svg width="32" height="32" viewBox="0 0 32 32" fill="none" xmlns="http://www.w3.org/2000/svg">
<path d="M15.9998 17.3337C16.7362 17.3337 17.3332 16.7367 17.3332 16.0003C17.3332 15.2639 16.7362 14.667 15.9998 14.667C15.2635 14.667 14.6665 15.2639 14.6665 16.0003C14.6665 16.7367 15.2635 17.3337 15.9998 17.3337Z" fill="white"/>
<path d="M21.3333 17.3337C22.0697 17.3337 22.6667 16.7367 22.6667 16.0003C22.6667 15.2639 22.0697 14.667 21.3333 14.667C20.597 14.667 20 15.2639 20 16.0003C20 16.7367 20.597 17.3337 21.3333 17.3337Z" fill="white"/>
<path d="M10.6668 17.3337C11.4032 17.3337 12.0002 16.7367 12.0002 16.0003C12.0002 15.2639 11.4032 14.667 10.6668 14.667C9.93045 14.667 9.3335 15.2639 9.3335 16.0003C9.3335 16.7367 9.93045 17.3337 10.6668 17.3337Z" fill="white"/>
<path d="M25.4263 6.5732C23.2386 4.3712 20.3512 3.00148 17.2618 2.70019C14.1725 2.39889 11.0748 3.1849 8.50285 4.92271C5.9309 6.66051 4.04585 9.24121 3.17269 12.2199C2.29953 15.1986 2.49297 18.3885 3.71967 21.2399C3.84752 21.5049 3.88947 21.8032 3.83967 22.0932L2.66634 27.7332C2.62113 27.9494 2.63036 28.1735 2.6932 28.3853C2.75604 28.5971 2.87051 28.7899 3.02634 28.9465C3.15407 29.0733 3.30617 29.173 3.47345 29.2394C3.64073 29.3059 3.81973 29.3378 3.99967 29.3332H4.26634L9.973 28.1865C10.263 28.1517 10.5572 28.193 10.8263 28.3065C13.6777 29.5332 16.8677 29.7267 19.8463 28.8535C22.825 27.9804 25.4057 26.0953 27.1435 23.5234C28.8813 20.9514 29.6673 17.8537 29.366 14.7644C29.0647 11.675 27.695 8.78758 25.493 6.59987L25.4263 6.5732ZM26.533 17.7199C26.2723 19.3118 25.6539 20.824 24.7244 22.1424C23.7949 23.4609 22.5784 24.5513 21.1665 25.3317C19.7547 26.1121 18.1842 26.562 16.5733 26.6477C14.9624 26.7335 13.353 26.4527 11.8663 25.8265C11.3391 25.6023 10.7726 25.4844 10.1997 25.4799C9.94938 25.4816 9.69965 25.5039 9.453 25.5465L5.693 26.3065L6.453 22.5465C6.60437 21.7322 6.50679 20.8912 6.173 20.1332C5.54686 18.6465 5.26608 17.0371 5.35179 15.4262C5.43751 13.8153 5.88748 12.2449 6.66786 10.833C7.44824 9.42114 8.53868 8.20467 9.85713 7.27513C11.1756 6.3456 12.6877 5.72722 14.2797 5.46653C15.9507 5.19229 17.663 5.31983 19.275 5.83861C20.8869 6.3574 22.3522 7.25251 23.5496 8.44992C24.747 9.64732 25.6421 11.1126 26.1609 12.7246C26.6797 14.3365 26.8072 16.0488 26.533 17.7199Z" fill="white"/>
</svg>
