<svg width="128" height="128" viewBox="0 0 128 128" fill="none" xmlns="http://www.w3.org/2000/svg">
<path fill-rule="evenodd" clip-rule="evenodd" d="M66.6345 11.5844L108.377 34.7745C109.847 35.5908 110.761 37.1399 110.761 38.8235C110.761 42.0423 110.232 117.67 64.3804 117.67C18.5287 117.67 18 42.0423 18 38.8235C18 37.1399 18.9137 35.5908 20.3839 34.7745L62.1262 11.5844C63.5315 10.8052 65.2291 10.8052 66.6345 11.5844ZM79.75 55.7915C79.75 62.4252 75.5054 68.0677 69.5833 70.1519V96.4581H59.4167V91.3748H49.25V81.2081H59.4167V70.1519C53.4946 68.0677 49.25 62.4252 49.25 55.7915C49.25 47.3786 56.0871 40.5415 64.5 40.5415C72.9129 40.5415 79.75 47.3786 79.75 55.7915ZM59.4167 55.7915C59.4167 52.9956 61.7042 50.7081 64.5 50.7081C67.2958 50.7081 69.5833 52.9956 69.5833 55.7915C69.5833 58.5873 67.2958 60.8748 64.5 60.8748C61.7042 60.8748 59.4167 58.5873 59.4167 55.7915Z" fill="white"/>
</svg>
