<svg width="24" height="24" viewBox="0 0 24 24" fill="none" xmlns="http://www.w3.org/2000/svg">
<path d="M19 7C19.4168 7 19.7901 7.25831 19.9365 7.64844L22.9365 15.6484C23.0927 16.0648 22.9548 16.5345 22.5987 16.8008C21.5569 17.5791 20.2971 18 19 18C17.703 18 16.4432 17.5791 15.4014 16.8008C15.0452 16.5345 14.9074 16.0648 15.0635 15.6484L18.0635 7.64844L18.1289 7.50879C18.3041 7.19791 18.6353 7 19 7ZM17.2246 15.5811C17.7758 15.8544 18.3816 16 19 16C19.6182 16 20.2234 15.8541 20.7744 15.5811L19 10.8486L17.2246 15.5811Z" fill="#D35F5F"/>
<path d="M5.00003 7C5.41676 7 5.7901 7.25831 5.93655 7.64844L8.93655 15.6484C9.09269 16.0648 8.95481 16.5345 8.59866 16.8008C7.55687 17.5791 6.29706 18 5.00003 18C3.70299 18 2.44318 17.5791 1.40139 16.8008C1.04524 16.5345 0.907362 16.0648 1.0635 15.6484L4.0635 7.64844L4.12893 7.50879C4.30412 7.19791 4.63534 7 5.00003 7ZM3.22463 15.5811C3.77583 15.8544 4.38159 16 5.00003 16C5.61817 16 6.22345 15.8541 6.77444 15.5811L5.00003 10.8486L3.22463 15.5811Z" fill="#D35F5F"/>
<path d="M17 20C17.5523 20 18 20.4477 18 21C18 21.5523 17.5523 22 17 22H7C6.44772 22 6 21.5523 6 21C6 20.4477 6.44772 20 7 20H17Z" fill="#D35F5F"/>
<path d="M11 21V3C11 2.44772 11.4477 2 12 2C12.5523 2 13 2.44772 13 3V21C13 21.5523 12.5523 22 12 22C11.4477 22 11 21.5523 11 21Z" fill="#D35F5F"/>
<path d="M11.6602 4.05958C11.9161 3.96706 12.2008 3.98225 12.4473 4.10548C14.3907 5.07718 17.2266 6.00001 19 6.00001H21C21.5523 6.00001 22 6.44772 22 7.00001C22 7.55229 21.5523 8.00001 21 8.00001H19C16.929 8.00001 14.0476 7.06706 12 6.10938C9.95245 7.06706 7.07096 8.00001 5 8.00001H3C2.44772 8.00001 2 7.55229 2 7.00001C2 6.44772 2.44772 6.00001 3 6.00001H5C6.77342 6.00001 9.60934 5.07718 11.5527 4.10548L11.6602 4.05958Z" fill="#D35F5F"/>
</svg>
