<svg width="24" height="24" viewBox="0 0 24 24" fill="none" xmlns="http://www.w3.org/2000/svg">
<path d="M6.68892 0.1875C6.40676 0.187532 6.13616 0.299627 5.93664 0.499144C5.73713 0.698661 5.62503 0.969258 5.625 1.25142V5.5071C5.6251 5.75624 5.7126 5.99744 5.87228 6.18867L10.6246 11.8906L5.87228 17.5926C5.7126 17.7838 5.6251 18.025 5.625 18.2741V22.5298C5.62503 22.812 5.73713 23.0825 5.93664 23.2821C6.13616 23.4816 6.40676 23.5938 6.68892 23.5938H17.3281C17.6103 23.5938 17.8808 23.4816 18.0804 23.2821C18.2799 23.0825 18.392 22.812 18.392 22.5298V18.2741C18.3919 18.025 18.3045 17.7838 18.1448 17.5926L13.3925 11.8906L18.1448 6.18867C18.3045 5.99744 18.3919 5.75624 18.392 5.5071V1.25142C18.392 0.969258 18.2799 0.698661 18.0804 0.499144C17.8808 0.299627 17.6103 0.187532 17.3281 0.1875H6.68892ZM12.0085 13.553L16.2642 18.6585V21.4659H7.75284V18.6585L12.0085 13.553Z" fill="#5865F2"/>
</svg>
