<svg width="24" height="24" viewBox="0 0 24 24" fill="none" xmlns="http://www.w3.org/2000/svg">
<path d="M2 11C2 8.61305 2.94821 6.32387 4.63604 4.63604C6.32387 2.94821 8.61305 2 11 2H13C15.3869 2 17.6761 2.94821 19.364 4.63604C21.0518 6.32387 22 8.61305 22 11V19C22 19.7956 21.6839 20.5587 21.1213 21.1213C20.5587 21.6839 19.7956 22 19 22H5C4.20435 22 3.44129 21.6839 2.87868 21.1213C2.31607 20.5587 2 19.7956 2 19V11ZM5.88 5.825C5.3047 6.18456 4.8303 6.68454 4.50143 7.27792C4.17255 7.8713 4 8.53858 4 9.217V18.719C4 18.871 4.03466 19.021 4.10134 19.1576C4.16801 19.2942 4.26495 19.4138 4.38479 19.5073C4.50462 19.6008 4.6442 19.6658 4.79291 19.6973C4.94162 19.7288 5.09555 19.7259 5.243 19.689L10.956 18.261C11.2541 18.1863 11.5188 18.0142 11.7079 17.772C11.897 17.5298 11.9998 17.2313 12 16.924V9.217C12 6.075 8.544 4.16 5.88 5.825ZM10 12C10 11.7348 9.89464 11.4804 9.70711 11.2929C9.51957 11.1054 9.26522 11 9 11C8.73478 11 8.48043 11.1054 8.29289 11.2929C8.10536 11.4804 8 11.7348 8 12V14C8 14.2652 8.10536 14.5196 8.29289 14.7071C8.48043 14.8946 8.73478 15 9 15C9.26522 15 9.51957 14.8946 9.70711 14.7071C9.89464 14.5196 10 14.2652 10 14V12ZM17.683 9.476C17.448 8.841 16.552 8.841 16.317 9.476L16.139 9.957C16.0389 10.2276 15.8814 10.4734 15.6774 10.6774C15.4734 10.8814 15.2276 11.0389 14.957 11.139L14.476 11.317C13.841 11.552 13.841 12.448 14.476 12.683L14.957 12.861C15.2276 12.9611 15.4734 13.1186 15.6774 13.3226C15.8814 13.5266 16.0389 13.7724 16.139 14.043L16.317 14.524C16.552 15.159 17.448 15.159 17.683 14.524L17.861 14.043C17.9611 13.7724 18.1186 13.5266 18.3226 13.3226C18.5266 13.1186 18.7724 12.9611 19.043 12.861L19.524 12.683C20.158 12.448 20.158 11.552 19.524 11.317L19.043 11.139C18.7724 11.0389 18.5266 10.8814 18.3226 10.6774C18.1186 10.4734 17.9611 10.2276 17.861 9.957L17.683 9.476ZM14.158 5.238C14.1836 5.16784 14.2301 5.10724 14.2913 5.06442C14.3525 5.0216 14.4253 4.99863 14.5 4.99863C14.5747 4.99863 14.6475 5.0216 14.7087 5.06442C14.7699 5.10724 14.8164 5.16784 14.842 5.238C14.999 5.664 15.336 6.001 15.762 6.158C15.8322 6.18357 15.8928 6.2301 15.9356 6.29128C15.9784 6.35246 16.0014 6.42532 16.0014 6.5C16.0014 6.57468 15.9784 6.64754 15.9356 6.70872C15.8928 6.7699 15.8322 6.81643 15.762 6.842C15.5514 6.91999 15.3602 7.04257 15.2014 7.20137C15.0426 7.36016 14.92 7.55141 14.842 7.762C14.8164 7.83216 14.7699 7.89276 14.7087 7.93558C14.6475 7.9784 14.5747 8.00137 14.5 8.00137C14.4253 8.00137 14.3525 7.9784 14.2913 7.93558C14.2301 7.89276 14.1836 7.83216 14.158 7.762C14.08 7.55141 13.9574 7.36016 13.7986 7.20137C13.6398 7.04257 13.4486 6.91999 13.238 6.842C13.1678 6.81643 13.1072 6.7699 13.0644 6.70872C13.0216 6.64754 12.9986 6.57468 12.9986 6.5C12.9986 6.42532 13.0216 6.35246 13.0644 6.29128C13.1072 6.2301 13.1678 6.18357 13.238 6.158C13.664 6.001 14.001 5.664 14.158 5.238ZM18.842 16.238C18.8164 16.1678 18.7699 16.1072 18.7087 16.0644C18.6475 16.0216 18.5747 15.9986 18.5 15.9986C18.4253 15.9986 18.3525 16.0216 18.2913 16.0644C18.2301 16.1072 18.1836 16.1678 18.158 16.238C18.08 16.4486 17.9574 16.6398 17.7986 16.7986C17.6398 16.9574 17.4486 17.08 17.238 17.158C17.1678 17.1836 17.1072 17.2301 17.0644 17.2913C17.0216 17.3525 16.9986 17.4253 16.9986 17.5C16.9986 17.5747 17.0216 17.6475 17.0644 17.7087C17.1072 17.7699 17.1678 17.8164 17.238 17.842C17.664 17.999 18.001 18.336 18.158 18.762C18.1836 18.8322 18.2301 18.8928 18.2913 18.9356C18.3525 18.9784 18.4253 19.0014 18.5 19.0014C18.5747 19.0014 18.6475 18.9784 18.7087 18.9356C18.7699 18.8928 18.8164 18.8322 18.842 18.762C18.999 18.336 19.336 17.999 19.762 17.842C19.8322 17.8164 19.8928 17.7699 19.9356 17.7087C19.9784 17.6475 20.0014 17.5747 20.0014 17.5C20.0014 17.4253 19.9784 17.3525 19.9356 17.2913C19.8928 17.2301 19.8322 17.1836 19.762 17.158C19.5514 17.08 19.3602 16.9574 19.2014 16.7986C19.0426 16.6398 18.92 16.4486 18.842 16.238Z" fill="#39BD62"/>
</svg>
