<svg width="22" height="24" viewBox="0 0 22 24" fill="none" xmlns="http://www.w3.org/2000/svg">
<g clip-path="url(#clip0_4505_28)">
<path d="M9.23587 0.466635C10.3275 -0.155545 11.6725 -0.155545 12.7641 0.466635L20.2359 4.72513C21.3275 5.34732 22 6.49715 22 7.7415V16.2585C22 17.5028 21.3275 18.6527 20.2359 19.2748L12.7641 23.5333C11.6725 24.1555 10.3275 24.1555 9.23587 23.5333L1.76413 19.2748C0.672481 18.6527 0 17.5028 0 16.2585V7.7415C0 6.49715 0.672481 5.34732 1.76413 4.72513L9.23587 0.466635Z" fill="#E5B422"/>
<path d="M9.65975 1.18804C10.4892 0.715315 11.5109 0.715315 12.3403 1.18804L19.8121 5.44666C20.6418 5.91955 21.1539 6.79416 21.1539 7.74175V16.2587C21.1539 17.2062 20.6418 18.0809 19.8121 18.5537L12.3403 22.8124C11.5109 23.285 10.4892 23.285 9.65975 22.8124L2.18797 18.5537C1.3583 18.0809 0.846191 17.2062 0.846191 16.2587V7.74175C0.846191 6.79416 1.3583 5.91955 2.18797 5.44666L9.65975 1.18804Z" stroke="black" stroke-opacity="0.1" stroke-width="10"/>
<path d="M12.0967 5.3335C13.4432 5.3335 16.0612 5.76823 16.0612 7.3628C16.0612 8.01488 15.6003 8.57641 14.9182 8.57641C14.1617 8.57641 13.646 7.94243 12.0967 7.94243C9.81059 7.94243 8.63005 9.84495 8.63005 12.0548C8.63005 14.2103 9.82842 16.0585 12.0967 16.0585C13.646 16.0585 14.2723 15.2977 15.0288 15.2977C15.859 15.2977 16.2462 16.1128 16.2462 16.5288C16.2462 18.2683 13.4617 18.6668 12.0974 18.6668C8.35409 18.6668 5.75391 15.75 5.75391 11.9999C5.75331 8.23225 8.33505 5.3335 12.0967 5.3335Z" fill="white"/>
</g>
<defs>
<clipPath id="clip0_4505_28">
<rect width="22" height="24" fill="white"/>
</clipPath>
</defs>
</svg>
