<svg width="24" height="23" viewBox="0 0 24 23" fill="none" xmlns="http://www.w3.org/2000/svg">
<g clip-path="url(#clip0_4505_20)">
<path d="M9.82858 0.699862C11.1234 -0.233287 12.8766 -0.233287 14.1714 0.699862L22.477 6.68564C23.7717 7.61878 24.3135 9.27282 23.819 10.7827L20.6465 20.4678C20.152 21.9777 18.7335 23 17.1332 23H6.86692C5.26647 23 3.84805 21.9777 3.35348 20.4678L0.181061 10.7827C-0.313503 9.27282 0.228289 7.61878 1.52307 6.68564L9.82858 0.699862Z" fill="#E68422"/>
<path d="M10.3181 1.36969C11.3209 0.646954 12.6789 0.646954 13.6817 1.36969L21.9872 7.35545C22.9899 8.07806 23.4092 9.35852 23.0264 10.5271L19.8539 20.2122C19.4711 21.3809 18.3729 22.1729 17.1331 22.1729H6.86677C5.62694 22.1729 4.52874 21.3809 4.14591 20.2122L0.973377 10.5271C0.590599 9.35852 1.00995 8.07806 2.01261 7.35545L10.3181 1.36969Z" stroke="black" stroke-opacity="0.1" stroke-width="10"/>
<path d="M7.5 8.36816C7.5 7.61945 8.02873 7.11523 8.77227 7.11523H11.5156C15.2179 7.11523 17.3333 9.45791 17.3333 13.0693C17.3333 16.4854 15.0857 18.698 11.6808 18.698H8.80532C8.26007 18.698 7.5 18.4046 7.5 17.4781V8.36816ZM9.97898 16.4529H11.6483C13.7803 16.4529 14.7552 14.9077 14.7552 12.9554C14.7552 10.873 13.7644 9.36032 11.4831 9.36032H9.97898V16.4529Z" fill="white"/>
</g>
<defs>
<clipPath id="clip0_4505_20">
<rect width="24" height="23" fill="white"/>
</clipPath>
</defs>
</svg>
