<svg width="24" height="24" viewBox="0 0 24 24" fill="none" xmlns="http://www.w3.org/2000/svg">
<g clip-path="url(#clip0_4505_12)">
<path d="M10.6945 0.259678C11.5304 -0.0865596 12.4696 -0.0865593 13.3055 0.259678L19.3785 2.77522C20.2145 3.12145 20.8785 3.78557 21.2248 4.62147L23.7403 10.6945C24.0865 11.5304 24.0865 12.4696 23.7403 13.3055L21.2248 19.3785C20.8785 20.2145 20.2145 20.8785 19.3785 21.2248L13.3055 23.7403C12.4696 24.0865 11.5304 24.0865 10.6945 23.7403L4.62147 21.2248C3.78557 20.8785 3.12145 20.2145 2.77522 19.3785L0.259678 13.3055C-0.0865596 12.4696 -0.0865593 11.5304 0.259678 10.6945L2.77522 4.62147C3.12145 3.78557 3.78557 3.12145 4.62147 2.77522L10.6945 0.259678Z" fill="#9FD92B"/>
<path d="M11.0135 1.02974C11.6452 0.768082 12.3551 0.768082 12.9868 1.02974L19.0596 3.5452C19.6915 3.80687 20.1935 4.30885 20.455 4.94055L22.9705 11.0135C23.2321 11.6452 23.2321 12.3551 22.9705 12.9868L20.455 19.0596C20.1935 19.6915 19.6915 20.1935 19.0596 20.455L12.9868 22.9705C12.3551 23.2321 11.6452 23.2321 11.0135 22.9705L4.94055 20.455C4.30885 20.1935 3.80687 19.6915 3.5452 19.0596L1.02974 12.9868C0.768082 12.3551 0.768082 11.6452 1.02974 11.0135L3.5452 4.94055C3.80687 4.30885 4.30885 3.80687 4.94055 3.5452L11.0135 1.02974Z" stroke="black" stroke-opacity="0.1" stroke-width="10"/>
<path d="M7.16675 6.73768C7.16675 5.839 7.7825 5.3335 8.64083 5.3335H12.224C14.1645 5.3335 15.7331 6.64406 15.7331 8.62923C15.7331 9.9398 15.1914 10.8203 13.9966 11.382V11.4195C15.5838 11.6441 16.8334 12.9734 16.8334 14.6029C16.8334 17.2433 15.0794 18.6668 12.5039 18.6668H8.66008C7.80116 18.6668 7.16675 18.1238 7.16675 17.244V6.73768ZM9.96623 10.6138H11.4222C12.3365 10.6138 12.9336 10.0709 12.9336 9.13413C12.9336 8.25418 12.2432 7.80485 11.4222 7.80485H9.96623V10.6138ZM9.96623 16.1943H12.1686C13.1762 16.1943 13.9232 15.6139 13.9232 14.5654C13.9232 13.6849 13.2508 13.0858 11.9447 13.0858H9.96623V16.1943Z" fill="white"/>
</g>
<defs>
<clipPath id="clip0_4505_12">
<rect width="24" height="24" fill="white"/>
</clipPath>
</defs>
</svg>
