<svg width="24" height="24" viewBox="0 0 24 24" fill="none" xmlns="http://www.w3.org/2000/svg">
<g clip-path="url(#clip0_4505_32)">
<path d="M12 24C18.6274 24 24 18.6274 24 12C24 5.37258 18.6274 0 12 0C5.37258 0 0 5.37258 0 12C0 18.6274 5.37258 24 12 24Z" fill="#36B34A"/>
<path d="M11.9999 23.1668C18.1671 23.1668 23.1666 18.1673 23.1666 12.0002C23.1666 5.83298 18.1671 0.833496 11.9999 0.833496C5.83274 0.833496 0.833252 5.83298 0.833252 12.0002C0.833252 18.1673 5.83274 23.1668 11.9999 23.1668Z" stroke="black" stroke-opacity="0.1" stroke-width="10"/>
<path d="M9.98823 6.84928C10.3005 6.00921 11.0168 5.3335 11.9535 5.3335C12.9269 5.3335 13.6077 5.97268 13.9193 6.84928L17.5197 16.7858C17.6301 17.078 17.6667 17.3343 17.6667 17.4615C17.6667 18.1737 17.0791 18.6668 16.3994 18.6668C15.6274 18.6668 15.2417 18.265 15.0581 17.7178L14.5065 16.0005H9.39931L8.8483 17.6995C8.66463 18.2657 8.27893 18.6668 7.5259 18.6668C6.79121 18.6668 6.16675 18.119 6.16675 17.3885C6.16675 17.0963 6.25858 16.8772 6.29531 16.7858L9.98823 6.84928ZM10.1897 13.4803H13.68L11.9718 8.18303H11.9351L10.1897 13.4803Z" fill="white"/>
</g>
<defs>
<clipPath id="clip0_4505_32">
<rect width="24" height="24" fill="white"/>
</clipPath>
</defs>
</svg>
