<svg width="128" height="124" viewBox="0 0 128 124" fill="none" xmlns="http://www.w3.org/2000/svg">
<g clip-path="url(#clip0_4505_20)">
<path d="M52.4191 3.77317C59.3246 -1.25772 68.6754 -1.25772 75.5809 3.77317L119.877 36.0443C126.782 41.0751 129.672 49.9926 127.035 58.1328L110.115 110.348C107.477 118.489 99.912 124 91.3769 124H36.6236C28.0878 124 20.5229 118.489 17.8852 110.348L0.965656 58.1328C-1.67201 49.9926 1.21754 41.0751 8.12305 36.0443L52.4191 3.77317Z" fill="#E68422"/>
<path d="M55.0305 7.38329C60.3788 3.48682 67.6213 3.48682 72.9697 7.38329L117.266 39.6544C122.613 43.5502 124.85 50.4535 122.808 56.7538L105.888 108.969C103.846 115.27 97.9894 119.54 91.377 119.54H36.6234C30.0109 119.54 24.1539 115.27 22.1121 108.969L5.19192 56.7538C3.15043 50.4535 5.38695 43.5502 10.7345 39.6544L55.0305 7.38329Z" stroke="black" stroke-opacity="0.1" stroke-width="10"/>
<path d="M40 45.1147C40 41.0782 42.8199 38.3599 46.7854 38.3599H61.4167C81.1619 38.3599 92.4444 50.9899 92.4444 70.4598C92.4444 88.8774 80.4569 100.806 62.2979 100.806H46.9617C44.0537 100.806 40 99.2242 40 94.2294V45.1147ZM53.2212 88.702H62.1245C73.4952 88.702 78.6944 80.3715 78.6944 69.846C78.6944 58.6189 73.41 50.4638 61.2433 50.4638H53.2212V88.702Z" fill="white"/>
</g>
<defs>
<clipPath id="clip0_4505_20">
<rect width="128" height="124" fill="white"/>
</clipPath>
</defs>
</svg>
