<svg width="123" height="128" viewBox="0 0 123 128" fill="none" xmlns="http://www.w3.org/2000/svg">
<g clip-path="url(#clip0_4505_24)">
<path d="M96.0265 0H26.9737C25.8947 13.8667 14.0263 24.5333 0 24.5333V30.9333C0 62.4 15.1053 91.7333 41.5395 112.533L61.5 128L81.4605 112.533C107.895 92.2667 123 62.4 123 30.9333V24.5333C108.974 24.5333 97.6451 13.8667 96.0265 0Z" fill="#36A3D9"/>
<path d="M92.3017 4.44434C95.3428 17.0732 105.57 26.8269 118.544 28.664V30.933C118.544 60.945 104.142 89.5377 78.7447 109.01L78.7264 109.023L61.5 122.371L44.2737 109.023C18.8232 88.9857 4.45654 60.9022 4.45654 30.933V28.664C17.3893 26.839 28.0579 17.1953 30.8153 4.44434H92.3017Z" stroke="black" stroke-opacity="0.1" stroke-width="10" stroke-linejoin="round"/>
<path d="M80.5444 30.1076C80.5444 33.8751 78.0371 37.2561 74.0864 37.2561C70.1325 37.2561 67.0435 34.358 61.2543 34.358C57.1076 34.358 53.3466 36.5799 53.3466 40.6402C53.3466 50.5902 85.5653 44.2146 85.5653 69.1408C85.5653 82.9579 74.1828 91.5555 60.8717 91.5555C53.443 91.5555 37.4348 89.8168 37.4348 80.733C37.4348 76.9655 39.9421 73.8743 43.896 73.8743C48.4284 73.8743 53.8288 77.6418 60.1001 77.6418C66.4649 77.6418 69.9396 74.0674 69.9396 69.3309C69.9396 57.9319 37.7241 64.7906 37.7241 42.376C37.7241 28.8487 48.8142 20.4443 61.6431 20.4443C67.0435 20.4474 80.5444 22.4761 80.5444 30.1076Z" fill="white"/>
</g>
<defs>
<clipPath id="clip0_4505_24">
<rect width="123" height="128" fill="white"/>
</clipPath>
</defs>
</svg>
