<svg width="128" height="128" viewBox="0 0 128 128" fill="none" xmlns="http://www.w3.org/2000/svg">
<g clip-path="url(#clip0_4505_12)">
<path d="M57.0374 1.38495C61.4955 -0.461651 66.5045 -0.461649 70.9626 1.38495L103.352 14.8012C107.811 16.6477 111.352 20.1897 113.199 24.6478L126.615 57.0374C128.461 61.4955 128.461 66.5045 126.615 70.9626L113.199 103.352C111.352 107.811 107.811 111.352 103.352 113.199L70.9626 126.615C66.5045 128.461 61.4955 128.461 57.0374 126.615L24.6478 113.199C20.1897 111.352 16.6477 107.811 14.8012 103.352L1.38495 70.9626C-0.461651 66.5045 -0.461649 61.4955 1.38495 57.0374L14.8012 24.6478C16.6477 20.1897 20.1897 16.6477 24.6478 14.8012L57.0374 1.38495Z" fill="#9FD92B"/>
<path d="M58.7378 5.49146C62.1068 4.09595 65.893 4.09595 69.262 5.49146L101.651 18.9073C105.02 20.3028 107.698 22.9801 109.092 26.3491L122.508 58.738C123.904 62.1071 123.904 65.8932 122.508 69.2623L109.092 101.651C107.698 105.021 105.02 107.698 101.651 109.093L69.262 122.509C65.893 123.904 62.1068 123.904 58.7378 122.509L26.3489 109.093C22.9798 107.698 20.3026 105.021 18.907 101.651L5.49121 69.2623C4.0957 65.8932 4.0957 62.1071 5.49121 58.738L18.907 26.3491C20.3026 22.9801 22.9798 20.3028 26.3489 18.9073L58.7378 5.49146Z" stroke="black" stroke-opacity="0.1" stroke-width="10"/>
<path d="M38.2222 35.9333C38.2222 31.1403 41.5062 28.4443 46.0839 28.4443H65.1942C75.5438 28.4443 83.9095 35.434 83.9095 46.0216C83.9095 53.0113 81.0203 57.7075 74.6481 60.7032V60.9028C83.1134 62.1011 89.7777 69.1907 89.7777 77.8811C89.7777 91.9635 80.4232 99.5555 66.6869 99.5555H46.1866C41.6057 99.5555 38.2222 96.6594 38.2222 91.967V35.9333ZM53.1527 56.6059H60.9182C65.7944 56.6059 68.979 53.7103 68.979 48.7144C68.979 44.0213 65.2968 41.6249 60.9182 41.6249H53.1527V56.6059ZM53.1527 86.3684H64.8988C70.2727 86.3684 74.2565 83.2731 74.2565 77.6813C74.2565 72.9851 70.6707 69.7898 63.7046 69.7898H53.1527V86.3684Z" fill="white"/>
</g>
<defs>
<clipPath id="clip0_4505_12">
<rect width="128" height="128" fill="white"/>
</clipPath>
</defs>
</svg>
