<svg width="23" height="24" viewBox="0 0 23 24" fill="none" xmlns="http://www.w3.org/2000/svg">
<g clip-path="url(#clip0_4505_24)">
<path d="M17.9562 0H5.04387C4.8421 2.6 2.6228 4.6 0 4.6V5.8C0 11.7 2.82457 17.2 7.76755 21.1L11.5 24L15.2325 21.1C20.1755 17.3 23 11.7 23 5.8V4.6C20.3772 4.6 18.2588 2.6 17.9562 0Z" fill="#36A3D9"/>
<path d="M17.2596 0.833496C17.8283 3.20141 19.7406 5.03023 22.1666 5.37468V5.80013C22.1666 11.4274 19.4736 16.7885 14.7245 20.4395L14.7211 20.442L11.4999 22.9448L8.27874 20.442C3.5197 16.685 0.833252 11.4193 0.833252 5.80013V5.37468C3.25157 5.0325 5.24652 3.2243 5.76212 0.833496H17.2596Z" stroke="black" stroke-opacity="0.1" stroke-width="10" stroke-linejoin="round"/>
<path d="M15.0611 5.64536C15.0611 6.35176 14.5923 6.9857 13.8536 6.9857C13.1142 6.9857 12.5366 6.44231 11.454 6.44231C10.6786 6.44231 9.97537 6.85891 9.97537 7.62023C9.97537 9.48585 16 8.29041 16 12.9641C16 15.5548 13.8716 17.1668 11.3825 17.1668C9.9934 17.1668 7 16.8408 7 15.1376C7 14.4312 7.46885 13.8516 8.20818 13.8516C9.05572 13.8516 10.0655 14.558 11.2382 14.558C12.4284 14.558 13.0781 13.8878 13.0781 12.9997C13.0781 10.8624 7.0541 12.1484 7.0541 7.94568C7.0541 5.40931 9.12785 3.8335 11.5268 3.8335C12.5366 3.83408 15.0611 4.21445 15.0611 5.64536Z" fill="white"/>
</g>
<defs>
<clipPath id="clip0_4505_24">
<rect width="23" height="24" fill="white"/>
</clipPath>
</defs>
</svg>
