<svg width="116" height="128" viewBox="0 0 116 128" fill="none" xmlns="http://www.w3.org/2000/svg">
<g clip-path="url(#clip0_4505_28)">
<path d="M48.6982 2.48872C54.4542 -0.829574 61.5459 -0.829572 67.3018 2.48872L106.699 25.2007C112.454 28.519 116 34.6515 116 41.288V86.712C116 93.3484 112.454 99.4809 106.699 102.799L67.3018 125.511C61.5459 128.829 54.4542 128.829 48.6982 125.511L9.30177 102.799C3.54581 99.4809 0 93.3484 0 86.712V41.288C0 34.6515 3.54581 28.519 9.30177 25.2007L48.6982 2.48872Z" fill="#E5B422"/>
<path d="M50.9329 6.33523C55.3063 3.81404 60.6935 3.81404 65.0669 6.33523L104.463 29.0479C108.838 31.5699 111.538 36.2346 111.538 41.2883V86.712C111.538 91.7655 108.838 96.4304 104.463 98.9522L65.0669 121.665C60.6935 124.186 55.3063 124.186 50.9329 121.665L11.5363 98.9522C7.16166 96.4304 4.46143 91.7655 4.46143 86.712V41.2883C4.46143 36.2346 7.16166 31.5699 11.5363 29.0479L50.9329 6.33523Z" stroke="black" stroke-opacity="0.1" stroke-width="10"/>
<path d="M63.7824 28.4443C70.8821 28.4443 84.6862 30.7629 84.6862 39.2673C84.6862 42.745 82.2559 45.7399 78.6591 45.7399C74.6702 45.7399 71.9514 42.3586 63.7824 42.3586C51.7282 42.3586 45.5035 52.5054 45.5035 64.2913C45.5035 75.7874 51.8222 85.6442 63.7824 85.6442C71.9514 85.6442 75.2535 81.5868 79.2423 81.5868C83.62 81.5868 85.6615 85.934 85.6615 88.1529C85.6615 97.4301 70.9793 99.5555 63.7856 99.5555C44.0484 99.5555 30.3384 83.9988 30.3384 63.9983C30.3353 43.9043 43.948 28.4443 63.7824 28.4443Z" fill="white"/>
</g>
<defs>
<clipPath id="clip0_4505_28">
<rect width="116" height="128" fill="white"/>
</clipPath>
</defs>
</svg>
