<svg width="128" height="128" viewBox="0 0 128 128" fill="none" xmlns="http://www.w3.org/2000/svg">
<g clip-path="url(#clip0_4505_32)">
<path d="M64 128C99.3462 128 128 99.3462 128 64C128 28.6538 99.3462 0 64 0C28.6538 0 0 28.6538 0 64C0 99.3462 28.6538 128 64 128Z" fill="#36B34A"/>
<path d="M63.9999 123.555C96.8915 123.555 123.555 96.8915 123.555 63.9999C123.555 31.1083 96.8915 4.44434 63.9999 4.44434C31.1083 4.44434 4.44434 31.1083 4.44434 63.9999C4.44434 96.8915 31.1083 123.555 63.9999 123.555Z" stroke="black" stroke-opacity="0.1" stroke-width="10"/>
<path d="M53.2702 36.5285C54.9354 32.0482 58.7558 28.4443 63.7515 28.4443C68.9432 28.4443 72.5739 31.8533 74.236 36.5285L93.4382 89.5234C94.0267 91.0817 94.2222 92.4488 94.2222 93.127C94.2222 96.9252 91.088 99.5555 87.4632 99.5555C83.3459 99.5555 81.2888 97.4123 80.3093 94.4941L77.3674 85.3351H50.1293L47.1905 94.3963C46.211 97.4159 44.1539 99.5555 40.1377 99.5555C36.2194 99.5555 32.8889 96.6337 32.8889 92.7377C32.8889 91.1795 33.3787 90.0106 33.5746 89.5234L53.2702 36.5285ZM54.3446 71.8939H72.9594L63.8494 43.6418H63.6535L54.3446 71.8939Z" fill="white"/>
</g>
<defs>
<clipPath id="clip0_4505_32">
<rect width="128" height="128" fill="white"/>
</clipPath>
</defs>
</svg>
