<svg width="24" height="24" viewBox="0 0 24 24" fill="none" xmlns="http://www.w3.org/2000/svg">
<g clip-path="url(#clip0_4505_16)">
<path d="M9.33652 1.10325C10.8075 -0.367752 13.1925 -0.367748 14.6635 1.10325L22.8968 9.33652C24.3677 10.8075 24.3677 13.1925 22.8967 14.6635L14.6635 22.8968C13.1925 24.3677 10.8075 24.3677 9.33652 22.8967L1.10325 14.6635C-0.367752 13.1925 -0.367748 10.8075 1.10325 9.33652L9.33652 1.10325Z" fill="#CC3D3D"/>
<path d="M9.9259 1.69267C11.0715 0.547105 12.9288 0.547103 14.0743 1.69267L22.3076 9.9259C23.4531 11.0715 23.4531 12.9288 22.3076 14.0743L14.0743 22.3076C12.9288 23.4531 11.0715 23.4531 9.9259 22.3076L1.69267 14.0743C0.547105 12.9288 0.547103 11.0715 1.69267 9.9259L9.9259 1.69267Z" stroke="black" stroke-opacity="0.2" stroke-width="10"/>
<path d="M8.66675 7.59167C8.66675 6.77262 9.0772 6.1665 9.94733 6.1665H14.0195C14.8075 6.1665 15.1856 6.72347 15.1856 7.29734C15.1856 7.8543 14.7916 8.42765 14.0195 8.42765H11.1299V10.8199H13.823C14.628 10.8199 15.022 11.3768 15.022 11.9507C15.022 12.5077 14.6116 13.081 13.823 13.081H11.1299V15.5715H14.1677C14.9558 15.5715 15.3334 16.129 15.3334 16.7023C15.3334 17.2598 14.9394 17.8332 14.1677 17.8332H9.93145C9.20906 17.8332 8.66728 17.3417 8.66728 16.6046V7.59167H8.66675Z" fill="white"/>
</g>
<defs>
<clipPath id="clip0_4505_16">
<rect width="24" height="24" fill="white"/>
</clipPath>
</defs>
</svg>
