<svg width="128" height="128" viewBox="0 0 128 128" fill="none" xmlns="http://www.w3.org/2000/svg">
<g clip-path="url(#clip0_4505_16)">
<path d="M49.7948 5.88399C57.6401 -1.96134 70.3599 -1.96132 78.2052 5.88401L122.116 49.7948C129.961 57.6401 129.961 70.3599 122.116 78.2052L78.2052 122.116C70.3599 129.961 57.6401 129.961 49.7948 122.116L5.88399 78.2052C-1.96134 70.3599 -1.96132 57.6401 5.88401 49.7948L49.7948 5.88399Z" fill="#CC3D3D"/>
<path d="M52.9374 9.02709C59.0471 2.91741 68.9527 2.9174 75.0624 9.02709L118.973 52.9377C125.083 59.0474 125.083 68.953 118.973 75.0626L75.0624 118.973C68.9527 125.083 59.0471 125.083 52.9374 118.973L9.02685 75.0626C2.91716 68.953 2.91715 59.0474 9.02685 52.9377L52.9374 9.02709Z" stroke="black" stroke-opacity="0.2" stroke-width="10"/>
<path d="M46.2222 40.4896C46.2222 36.1213 48.4112 32.8887 53.0519 32.8887H74.77C78.9729 32.8887 80.9896 35.8592 80.9896 38.9198C80.9896 41.8903 78.8882 44.9481 74.77 44.9481H59.3592V57.7065H73.7221C78.0154 57.7065 80.1169 60.677 80.1169 63.7376C80.1169 66.7081 77.9279 69.766 73.7221 69.766H59.3592V83.0486H75.5608C79.7639 83.0486 81.7777 86.0219 81.7777 89.0798C81.7777 92.0531 79.6762 95.1109 75.5608 95.1109H52.9672C49.1145 95.1109 46.225 92.4896 46.225 88.5584V40.4896H46.2222Z" fill="white"/>
</g>
<defs>
<clipPath id="clip0_4505_16">
<rect width="128" height="128" fill="white"/>
</clipPath>
</defs>
</svg>
