<svg width="24" height="24" viewBox="0 0 24 24" fill="none" xmlns="http://www.w3.org/2000/svg">
<g clip-path="url(#clip0_3907_209)">
<mask id="mask0_3907_209" style="mask-type:luminance" maskUnits="userSpaceOnUse" x="0" y="0" width="24" height="24">
<path d="M17.3333 0H6.66667C2.98477 0 0 2.98477 0 6.66667V17.3333C0 21.0152 2.98477 24 6.66667 24H17.3333C21.0152 24 24 21.0152 24 17.3333V6.66667C24 2.98477 21.0152 0 17.3333 0Z" fill="white"/>
</mask>
<g mask="url(#mask0_3907_209)">
<path d="M17.3333 0H6.66667C2.98477 0 0 2.98477 0 6.66667V17.3333C0 21.0152 2.98477 24 6.66667 24H17.3333C21.0152 24 24 21.0152 24 17.3333V6.66667C24 2.98477 21.0152 0 17.3333 0Z" fill="#E68422"/>
<path d="M36 17.3333C36 27.6427 27.6427 36 17.3333 36H6.66667C-3.64265 36 -12 27.6427 -12 17.3333V6.66667C-12 -3.64265 -3.64265 -12 6.66667 -12H17.3333C27.6427 -12 36 -3.64265 36 6.66667V17.3333Z" fill="black" fill-opacity="0.2"/>
</g>
<g filter="url(#filter0_d_3907_209)">
<path d="M17.3333 1.33301H6.66659C3.72107 1.33301 1.33325 3.72082 1.33325 6.66634V17.333C1.33325 20.2785 3.72107 22.6663 6.66659 22.6663H17.3333C20.2788 22.6663 22.6666 20.2785 22.6666 17.333V6.66634C22.6666 3.72082 20.2788 1.33301 17.3333 1.33301Z" fill="#E68422"/>
</g>
<path d="M12 3.11133C10.2419 3.11133 8.52335 3.63264 7.06157 4.60938C5.5998 5.58609 4.46049 6.97434 3.78772 8.59858C3.11494 10.2228 2.9389 12.0101 3.28189 13.7343C3.62487 15.4586 4.47145 17.0425 5.71459 18.2857C6.95772 19.5287 8.54157 20.3753 10.2658 20.7183C11.9901 21.0613 13.7774 20.8852 15.4016 20.2125C17.0259 19.5397 18.4141 18.4003 19.3908 16.9387C20.3676 15.4768 20.8889 13.7583 20.8889 12.0002C20.8889 10.8329 20.6589 9.67703 20.2123 8.59858C19.7656 7.52013 19.1108 6.54023 18.2854 5.71481C17.4599 4.88941 16.4801 4.23466 15.4016 3.78794C14.3232 3.34124 13.1673 3.11133 12 3.11133ZM12 19.1113C10.5935 19.1113 9.21867 18.6943 8.04925 17.9128C6.87984 17.1315 5.96839 16.0209 5.43017 14.7215C4.89195 13.4221 4.75112 11.9923 5.0255 10.6129C5.29989 9.23348 5.97715 7.96641 6.97167 6.97189C7.96617 5.97739 9.23325 5.30013 10.6127 5.02574C11.9921 4.75136 13.4219 4.89218 14.7213 5.43039C16.0207 5.96863 17.1313 6.88008 17.9126 8.04949C18.6941 9.21891 19.1111 10.5938 19.1111 12.0002C19.1111 13.8862 18.3619 15.6949 17.0283 17.0285C15.6947 18.3622 13.886 19.1113 12 19.1113Z" fill="white"/>
<path d="M15.5555 11.1112H12.8889V8.44456C12.8889 8.20881 12.7952 7.98271 12.6285 7.81601C12.4618 7.64931 12.2357 7.55566 12 7.55566C11.7642 7.55566 11.5381 7.64931 11.3714 7.81601C11.2047 7.98271 11.1111 8.20881 11.1111 8.44456V12.0001C11.1111 12.2359 11.2047 12.4619 11.3714 12.6286C11.5381 12.7953 11.7642 12.889 12 12.889H15.5555C15.7913 12.889 16.0174 12.7953 16.1841 12.6286C16.3508 12.4619 16.4444 12.2359 16.4444 12.0001C16.4444 11.7644 16.3508 11.5383 16.1841 11.3716C16.0174 11.2049 15.7913 11.1112 15.5555 11.1112Z" fill="white"/>
</g>
<defs>
<filter id="filter0_d_3907_209" x="-2.66675" y="-0.666992" width="29.3333" height="29.333" filterUnits="userSpaceOnUse" color-interpolation-filters="sRGB">
<feFlood flood-opacity="0" result="BackgroundImageFix"/>
<feColorMatrix in="SourceAlpha" type="matrix" values="0 0 0 0 0 0 0 0 0 0 0 0 0 0 0 0 0 0 127 0" result="hardAlpha"/>
<feOffset dy="2"/>
<feGaussianBlur stdDeviation="2"/>
<feComposite in2="hardAlpha" operator="out"/>
<feColorMatrix type="matrix" values="0 0 0 0 0 0 0 0 0 0 0 0 0 0 0 0 0 0 0.25 0"/>
<feBlend mode="normal" in2="BackgroundImageFix" result="effect1_dropShadow_3907_209"/>
<feBlend mode="normal" in="SourceGraphic" in2="effect1_dropShadow_3907_209" result="shape"/>
</filter>
<clipPath id="clip0_3907_209">
<rect width="24" height="24" fill="white"/>
</clipPath>
</defs>
</svg>
