<svg width="24" height="24" viewBox="0 0 24 24" fill="none" xmlns="http://www.w3.org/2000/svg">
<path d="M12.0001 2C10.0222 2 8.08884 2.58649 6.44435 3.6853C4.79986 4.78412 3.51813 6.3459 2.76125 8.17317C2.00438 10.0004 1.80635 12.0111 2.1922 13.9509C2.57805 15.8907 3.53046 17.6725 4.92898 19.0711C6.32751 20.4696 8.10934 21.422 10.0491 21.8079C11.989 22.1937 13.9996 21.9957 15.8269 21.2388C17.6541 20.4819 19.2159 19.2002 20.3147 17.5557C21.4136 15.9112 22 13.9778 22 12C22 10.6868 21.7414 9.38642 21.2388 8.17317C20.7363 6.95991 19.9997 5.85752 19.0711 4.92893C18.1425 4.00035 17.0401 3.26375 15.8269 2.7612C14.6136 2.25866 13.3133 2 12.0001 2ZM12.0001 20C10.4178 20 8.87108 19.5308 7.55549 18.6518C6.23989 17.7727 5.21452 16.5233 4.60901 15.0615C4.00351 13.5997 3.84509 11.9911 4.15377 10.4393C4.46245 8.88743 5.22438 7.46197 6.3432 6.34315C7.46202 5.22433 8.88748 4.4624 10.4393 4.15372C11.9912 3.84504 13.5997 4.00346 15.0615 4.60896C16.5233 5.21447 17.7728 6.23985 18.6518 7.55544C19.5309 8.87103 20 10.4178 20 12C20 14.1217 19.1572 16.1566 17.6569 17.6569C16.1566 19.1571 14.1218 20 12.0001 20Z" fill="#36B34A"/>
</svg>
