<svg width="24" height="24" viewBox="0 0 24 24" fill="none" xmlns="http://www.w3.org/2000/svg">
<g clip-path="url(#clip0_3907_227)">
<mask id="mask0_3907_227" style="mask-type:luminance" maskUnits="userSpaceOnUse" x="0" y="0" width="24" height="24">
<path d="M17.3333 0H6.66667C2.98477 0 0 2.98477 0 6.66667V17.3333C0 21.0152 2.98477 24 6.66667 24H17.3333C21.0152 24 24 21.0152 24 17.3333V6.66667C24 2.98477 21.0152 0 17.3333 0Z" fill="white"/>
</mask>
<g mask="url(#mask0_3907_227)">
<path d="M17.3333 0H6.66667C2.98477 0 0 2.98477 0 6.66667V17.3333C0 21.0152 2.98477 24 6.66667 24H17.3333C21.0152 24 24 21.0152 24 17.3333V6.66667C24 2.98477 21.0152 0 17.3333 0Z" fill="#36B34A"/>
<path d="M36 17.3333C36 27.6427 27.6427 36 17.3333 36H6.66667C-3.64265 36 -12 27.6427 -12 17.3333V6.66667C-12 -3.64265 -3.64265 -12 6.66667 -12H17.3333C27.6427 -12 36 -3.64265 36 6.66667V17.3333Z" fill="black" fill-opacity="0.2"/>
</g>
<g filter="url(#filter0_d_3907_227)">
<path d="M17.3335 1.33301H6.66683C3.72131 1.33301 1.3335 3.72082 1.3335 6.66634V17.333C1.3335 20.2785 3.72131 22.6663 6.66683 22.6663H17.3335C20.279 22.6663 22.6668 20.2785 22.6668 17.333V6.66634C22.6668 3.72082 20.279 1.33301 17.3335 1.33301Z" fill="#36B34A"/>
</g>
<path d="M12.0002 3.11133C10.2422 3.11133 8.5236 3.63264 7.06181 4.60938C5.60005 5.58609 4.46073 6.97434 3.78796 8.59858C3.11518 10.2228 2.93915 12.0101 3.28213 13.7343C3.62511 15.4586 4.4717 17.0425 5.71483 18.2857C6.95796 19.5287 8.54181 20.3753 10.2661 20.7183C11.9904 21.0613 13.7776 20.8852 15.4018 20.2125C17.0262 19.5397 18.4143 18.4003 19.391 16.9387C20.3678 15.4768 20.8892 13.7583 20.8892 12.0002C20.8892 10.8329 20.6592 9.67703 20.2125 8.59858C19.7658 7.52013 19.111 6.54023 18.2857 5.71481C17.4602 4.88941 16.4803 4.23466 15.4018 3.78794C14.3234 3.34124 13.1675 3.11133 12.0002 3.11133ZM12.0002 19.1113C10.5938 19.1113 9.21891 18.6943 8.0495 17.9128C6.88008 17.1315 5.96863 16.0209 5.43041 14.7215C4.8922 13.4221 4.75136 11.9923 5.02575 10.6129C5.30013 9.23348 5.9774 7.96641 6.97191 6.97189C7.96641 5.97739 9.2335 5.30013 10.6129 5.02574C11.9923 4.75136 13.4221 4.89218 14.7215 5.43039C16.0209 5.96863 17.1315 6.88008 17.9128 8.04949C18.6943 9.21891 19.1113 10.5938 19.1113 12.0002C19.1113 13.8862 18.3622 15.6949 17.0285 17.0285C15.6949 18.3622 13.8862 19.1113 12.0002 19.1113Z" fill="white"/>
<path d="M15.5558 11.1112H12.8891V8.44456C12.8891 8.20881 12.7955 7.98271 12.6288 7.81601C12.4621 7.64931 12.236 7.55566 12.0002 7.55566C11.7645 7.55566 11.5384 7.64931 11.3717 7.81601C11.205 7.98271 11.1113 8.20881 11.1113 8.44456V12.0001C11.1113 12.2359 11.205 12.4619 11.3717 12.6286C11.5384 12.7953 11.7645 12.889 12.0002 12.889H15.5558C15.7915 12.889 16.0176 12.7953 16.1843 12.6286C16.351 12.4619 16.4447 12.2359 16.4447 12.0001C16.4447 11.7644 16.351 11.5383 16.1843 11.3716C16.0176 11.2049 15.7915 11.1112 15.5558 11.1112Z" fill="white"/>
<path d="M4.88884 3.58008C5.06074 3.58009 5.23099 3.61391 5.38981 3.67969C5.54864 3.74548 5.69289 3.84199 5.81446 3.96354L20.0368 18.1857C20.1586 18.3069 20.2553 18.4507 20.3213 18.6094C20.3876 18.7684 20.4218 18.9392 20.4218 19.1116C20.4218 19.2839 20.3876 19.4546 20.3213 19.6136C20.2554 19.7716 20.1589 19.9149 20.0378 20.0359H20.0379C20.0376 20.0364 20.0371 20.0367 20.0366 20.0371C20.0363 20.0376 20.0359 20.0381 20.0354 20.0384L20.0353 20.0382C19.9144 20.1594 19.7711 20.2559 19.6131 20.3217C19.4541 20.3881 19.2834 20.4222 19.1109 20.4222C18.9386 20.4222 18.7679 20.3881 18.6089 20.3217C18.4503 20.2557 18.3064 20.1589 18.1853 20.0371L3.96306 5.81495C3.71756 5.56945 3.57961 5.23651 3.57959 4.88933C3.57959 4.54211 3.71754 4.20906 3.96306 3.96354C4.08461 3.84199 4.22887 3.74548 4.38769 3.67969C4.54654 3.61389 4.71691 3.58008 4.88884 3.58008Z" fill="white"/>
<path d="M3.16309 4.889C3.16309 4.43128 3.34496 3.99228 3.66862 3.66862C3.82873 3.50851 4.01885 3.38122 4.22835 3.29443C4.43786 3.20765 4.66246 3.16309 4.889 3.16309L4.9738 3.1652C5.17138 3.17493 5.3662 3.21852 5.54948 3.29443C5.75902 3.38123 5.94911 3.50854 6.10921 3.66862L20.3307 17.89L20.3895 17.9513C20.5226 18.0974 20.6297 18.2655 20.7059 18.4486C20.7934 18.6584 20.8385 18.8839 20.8385 19.1112C20.8385 19.2836 20.8126 19.4548 20.7619 19.619H20.8166L20.6908 19.8075C20.6068 19.9971 20.4896 20.1694 20.3451 20.3169C20.344 20.318 20.343 20.3192 20.342 20.3203C20.3387 20.3238 20.3355 20.3272 20.3324 20.3304C20.3286 20.3342 20.3245 20.338 20.3203 20.342C20.3186 20.3436 20.3168 20.345 20.3151 20.3465C20.1592 20.4991 19.9758 20.6217 19.7734 20.7061L19.7733 20.7059C19.5635 20.7933 19.3385 20.8385 19.1112 20.8385C18.8839 20.8385 18.6588 20.7933 18.4491 20.7059C18.2397 20.6188 18.0502 20.4915 17.8908 20.3314L3.66862 6.10921C3.36524 5.80583 3.18639 5.40115 3.1652 4.97461L3.16309 4.889ZM3.99756 4.93327C4.00852 5.1538 4.1009 5.36311 4.25781 5.52002L18.48 19.7422L18.4808 19.7428C18.5635 19.826 18.6614 19.8919 18.769 19.9367L18.7695 19.9368C18.8777 19.982 18.9939 20.0052 19.1112 20.0052C19.2286 20.0052 19.3447 19.9819 19.4528 19.9368C19.5495 19.8966 19.6385 19.8388 19.7157 19.7671L19.7363 19.7363L19.7674 19.7155C19.8391 19.6382 19.8966 19.5495 19.9368 19.453C19.982 19.3448 20.0052 19.2284 20.0052 19.1112C20.0052 18.9939 19.9819 18.8776 19.9368 18.7695L19.9367 18.769C19.8918 18.6612 19.8262 18.5633 19.7432 18.4808L5.52002 4.25781C5.43701 4.17482 5.33856 4.10906 5.23047 4.06429C5.13584 4.0251 5.03517 4.0026 4.93294 3.99756L4.889 3.99642C4.77169 3.99642 4.65553 4.01949 4.54736 4.06429C4.43925 4.10907 4.34079 4.17484 4.25781 4.25781C4.09044 4.42519 3.99642 4.65229 3.99642 4.889L3.99756 4.93327Z" fill="#36B34A"/>
</g>
<defs>
<filter id="filter0_d_3907_227" x="-2.6665" y="-0.666992" width="29.3335" height="29.333" filterUnits="userSpaceOnUse" color-interpolation-filters="sRGB">
<feFlood flood-opacity="0" result="BackgroundImageFix"/>
<feColorMatrix in="SourceAlpha" type="matrix" values="0 0 0 0 0 0 0 0 0 0 0 0 0 0 0 0 0 0 127 0" result="hardAlpha"/>
<feOffset dy="2"/>
<feGaussianBlur stdDeviation="2"/>
<feComposite in2="hardAlpha" operator="out"/>
<feColorMatrix type="matrix" values="0 0 0 0 0 0 0 0 0 0 0 0 0 0 0 0 0 0 0.25 0"/>
<feBlend mode="normal" in2="BackgroundImageFix" result="effect1_dropShadow_3907_227"/>
<feBlend mode="normal" in="SourceGraphic" in2="effect1_dropShadow_3907_227" result="shape"/>
</filter>
<clipPath id="clip0_3907_227">
<rect width="24" height="24" fill="white"/>
</clipPath>
</defs>
</svg>
