<svg width="24" height="24" viewBox="0 0 24 24" fill="none" xmlns="http://www.w3.org/2000/svg">
<g clip-path="url(#clip0_4428_5)">
<mask id="mask0_4428_5" style="mask-type:luminance" maskUnits="userSpaceOnUse" x="0" y="0" width="24" height="24">
<path d="M17.3333 0H6.66667C2.98477 0 0 2.98477 0 6.66667V17.3333C0 21.0152 2.98477 24 6.66667 24H17.3333C21.0152 24 24 21.0152 24 17.3333V6.66667C24 2.98477 21.0152 0 17.3333 0Z" fill="white"/>
</mask>
<g mask="url(#mask0_4428_5)">
<path d="M17.3333 0H6.66667C2.98477 0 0 2.98477 0 6.66667V17.3333C0 21.0152 2.98477 24 6.66667 24H17.3333C21.0152 24 24 21.0152 24 17.3333V6.66667C24 2.98477 21.0152 0 17.3333 0Z" fill="#CC3D3D" stroke="black" stroke-opacity="0.2" stroke-width="144"/>
</g>
<g filter="url(#filter0_d_4428_5)">
<path d="M17.3335 1.33301H6.66683C3.72131 1.33301 1.3335 3.72082 1.3335 6.66634V17.333C1.3335 20.2785 3.72131 22.6663 6.66683 22.6663H17.3335C20.279 22.6663 22.6668 20.2785 22.6668 17.333V6.66634C22.6668 3.72082 20.279 1.33301 17.3335 1.33301Z" fill="#CC3D3D"/>
</g>
<path d="M11.9997 3.11133C10.2417 3.11133 8.52311 3.63264 7.06133 4.60938C5.59956 5.58609 4.46026 6.97434 3.78748 8.59858C3.11469 10.2228 2.93866 12.0101 3.28164 13.7343C3.62463 15.4586 4.47121 17.0424 5.71434 18.2856C6.95748 19.5287 8.54133 20.3754 10.2656 20.7182C11.9899 21.0612 13.7771 20.8852 15.4014 20.2124C17.0256 19.5397 18.4139 18.4004 19.3906 16.9386C20.3673 15.4768 20.8886 13.7583 20.8886 12.0002C20.8886 10.8329 20.6588 9.67703 20.2119 8.59858C19.7653 7.52013 19.1106 6.54023 18.2851 5.71481C17.4598 4.88941 16.4798 4.23466 15.4014 3.78794C14.3229 3.34124 13.167 3.11133 11.9997 3.11133ZM19.1109 12.0002C19.1128 13.5795 18.5838 15.1135 17.6086 16.3558L7.64418 6.39133C8.88644 5.41623 10.4205 4.88713 11.9997 4.8891C13.8857 4.8891 15.6945 5.63831 17.0281 6.9719C18.3616 8.3055 19.1109 10.1142 19.1109 12.0002ZM4.88863 12.0002C4.88666 10.421 5.41574 8.88691 6.39084 7.64466L16.3553 17.6091C15.113 18.5842 13.579 19.1132 11.9997 19.1114C10.1138 19.1114 8.30501 18.3621 6.97143 17.0286C5.63783 15.6949 4.88863 13.8862 4.88863 12.0002Z" fill="white"/>
</g>
<defs>
<filter id="filter0_d_4428_5" x="-2.6665" y="-0.666992" width="29.3335" height="29.333" filterUnits="userSpaceOnUse" color-interpolation-filters="sRGB">
<feFlood flood-opacity="0" result="BackgroundImageFix"/>
<feColorMatrix in="SourceAlpha" type="matrix" values="0 0 0 0 0 0 0 0 0 0 0 0 0 0 0 0 0 0 127 0" result="hardAlpha"/>
<feOffset dy="2"/>
<feGaussianBlur stdDeviation="2"/>
<feComposite in2="hardAlpha" operator="out"/>
<feColorMatrix type="matrix" values="0 0 0 0 0 0 0 0 0 0 0 0 0 0 0 0 0 0 0.25 0"/>
<feBlend mode="normal" in2="BackgroundImageFix" result="effect1_dropShadow_4428_5"/>
<feBlend mode="normal" in="SourceGraphic" in2="effect1_dropShadow_4428_5" result="shape"/>
</filter>
<clipPath id="clip0_4428_5">
<rect width="24" height="24" fill="white"/>
</clipPath>
</defs>
</svg>
