<svg width="24" height="24" viewBox="0 0 24 24" fill="none" xmlns="http://www.w3.org/2000/svg">
<g clip-path="url(#clip0_3907_193)">
<mask id="mask0_3907_193" style="mask-type:luminance" maskUnits="userSpaceOnUse" x="0" y="0" width="24" height="24">
<path d="M17.3333 0H6.66667C2.98477 0 0 2.98477 0 6.66667V17.3333C0 21.0152 2.98477 24 6.66667 24H17.3333C21.0152 24 24 21.0152 24 17.3333V6.66667C24 2.98477 21.0152 0 17.3333 0Z" fill="white"/>
</mask>
<g mask="url(#mask0_3907_193)">
<path d="M17.3333 0H6.66667C2.98477 0 0 2.98477 0 6.66667V17.3333C0 21.0152 2.98477 24 6.66667 24H17.3333C21.0152 24 24 21.0152 24 17.3333V6.66667C24 2.98477 21.0152 0 17.3333 0Z" fill="#E5B422"/>
<path d="M36 17.3333C36 27.6427 27.6427 36 17.3333 36H6.66667C-3.64265 36 -12 27.6427 -12 17.3333V6.66667C-12 -3.64265 -3.64265 -12 6.66667 -12H17.3333C27.6427 -12 36 -3.64265 36 6.66667V17.3333Z" fill="black" fill-opacity="0.2"/>
</g>
<g filter="url(#filter0_d_3907_193)">
<path d="M17.3333 1.33301H6.66659C3.72107 1.33301 1.33325 3.72082 1.33325 6.66634V17.333C1.33325 20.2785 3.72107 22.6663 6.66659 22.6663H17.3333C20.2788 22.6663 22.6666 20.2785 22.6666 17.333V6.66634C22.6666 3.72082 20.2788 1.33301 17.3333 1.33301Z" fill="#E5B422"/>
</g>
<path d="M11.2085 21.7783C11.1055 21.7781 11.0032 21.7601 10.9063 21.7249C10.7194 21.6566 10.5609 21.5273 10.4561 21.3581C10.3514 21.1889 10.3065 20.9894 10.3285 20.7916L11.013 14.4894H5.77743C5.61594 14.4896 5.45744 14.4459 5.31896 14.3628C5.18046 14.2798 5.06721 14.1606 4.99136 14.018C4.91551 13.8755 4.87993 13.7149 4.88844 13.5537C4.89694 13.3924 4.94923 13.2365 5.03966 13.1027L12.053 2.61385C12.1639 2.44971 12.3265 2.32733 12.5149 2.26613C12.7033 2.20493 12.9068 2.20843 13.093 2.27608C13.272 2.34253 13.4248 2.46486 13.5289 2.62495C13.633 2.78505 13.6827 2.9744 13.6708 3.16497L12.9863 9.51163H18.2218C18.3833 9.51138 18.5418 9.55515 18.6803 9.63818C18.8188 9.72123 18.9322 9.84045 19.008 9.983C19.0838 10.1256 19.1193 10.2861 19.1108 10.4473C19.1023 10.6086 19.0502 10.7645 18.9597 10.8983L11.9463 21.3871C11.8648 21.5078 11.7549 21.6066 11.6262 21.6748C11.4976 21.743 11.3541 21.7785 11.2085 21.7783ZM7.43966 12.7116H11.9997C12.1237 12.7119 12.2463 12.7382 12.3596 12.7887C12.4729 12.8392 12.5743 12.9129 12.6574 13.005C12.7413 13.0983 12.8045 13.2083 12.8428 13.3278C12.8811 13.4473 12.8936 13.5736 12.8797 13.6983L12.4797 17.3871L16.5596 11.2894H11.9997C11.8742 11.2902 11.75 11.2644 11.6353 11.2137C11.5205 11.1631 11.4178 11.0887 11.3338 10.9955C11.2499 10.9023 11.1866 10.7924 11.1482 10.673C11.1097 10.5536 11.097 10.4274 11.1108 10.3027L11.5108 6.61385L7.43966 12.7116Z" fill="white"/>
</g>
<defs>
<filter id="filter0_d_3907_193" x="-2.66675" y="-0.666992" width="29.3333" height="29.333" filterUnits="userSpaceOnUse" color-interpolation-filters="sRGB">
<feFlood flood-opacity="0" result="BackgroundImageFix"/>
<feColorMatrix in="SourceAlpha" type="matrix" values="0 0 0 0 0 0 0 0 0 0 0 0 0 0 0 0 0 0 127 0" result="hardAlpha"/>
<feOffset dy="2"/>
<feGaussianBlur stdDeviation="2"/>
<feComposite in2="hardAlpha" operator="out"/>
<feColorMatrix type="matrix" values="0 0 0 0 0 0 0 0 0 0 0 0 0 0 0 0 0 0 0.25 0"/>
<feBlend mode="normal" in2="BackgroundImageFix" result="effect1_dropShadow_3907_193"/>
<feBlend mode="normal" in="SourceGraphic" in2="effect1_dropShadow_3907_193" result="shape"/>
</filter>
<clipPath id="clip0_3907_193">
<rect width="24" height="24" fill="white"/>
</clipPath>
</defs>
</svg>
