<svg width="24" height="24" viewBox="0 0 24 24" fill="none" xmlns="http://www.w3.org/2000/svg">
<g clip-path="url(#clip0_3907_167)">
<mask id="mask0_3907_167" style="mask-type:luminance" maskUnits="userSpaceOnUse" x="0" y="0" width="24" height="24">
<path d="M17.3333 0H6.66667C2.98477 0 0 2.98477 0 6.66667V17.3333C0 21.0152 2.98477 24 6.66667 24H17.3333C21.0152 24 24 21.0152 24 17.3333V6.66667C24 2.98477 21.0152 0 17.3333 0Z" fill="white"/>
</mask>
<g mask="url(#mask0_3907_167)">
<path d="M17.3333 0H6.66667C2.98477 0 0 2.98477 0 6.66667V17.3333C0 21.0152 2.98477 24 6.66667 24H17.3333C21.0152 24 24 21.0152 24 17.3333V6.66667C24 2.98477 21.0152 0 17.3333 0Z" fill="#CC3D3D"/>
<path d="M36 17.3333C36 27.6427 27.6427 36 17.3333 36H6.66667C-3.64265 36 -12 27.6427 -12 17.3333V6.66667C-12 -3.64265 -3.64265 -12 6.66667 -12H17.3333C27.6427 -12 36 -3.64265 36 6.66667V17.3333Z" fill="black" fill-opacity="0.2"/>
</g>
<g filter="url(#filter0_d_3907_167)">
<path d="M17.3333 1.33301H6.66659C3.72107 1.33301 1.33325 3.72082 1.33325 6.66634V17.333C1.33325 20.2785 3.72107 22.6663 6.66659 22.6663H17.3333C20.2788 22.6663 22.6666 20.2785 22.6666 17.333V6.66634C22.6666 3.72082 20.2788 1.33301 17.3333 1.33301Z" fill="#CC3D3D"/>
</g>
<path d="M10.8311 3.1845C11.8544 2.16115 13.5135 2.16115 14.5368 3.1845L16.8124 5.46006C17.2439 5.08877 17.8952 5.10764 18.3042 5.51669L18.6632 5.87542C19.0722 6.28444 19.0905 6.93552 18.7194 7.36695L20.8159 9.46347C21.8392 10.4868 21.8392 12.1459 20.8159 13.1692L18.1249 15.8603C17.1015 16.8836 15.4423 16.8836 14.419 15.8603L12.6838 14.1251L6.73294 20.0761C6.05637 20.7526 4.95946 20.7526 4.28291 20.0761L3.92417 19.7174C3.24761 19.0408 3.24761 17.9439 3.92417 17.2674L9.87502 11.3163L8.13999 9.58131C7.11666 8.55797 7.11666 6.89875 8.13999 5.87542L10.8311 3.1845ZM4.93899 18.2821C4.82291 18.3983 4.82291 18.5864 4.93899 18.7026L5.29771 19.0613C5.41379 19.1774 5.60204 19.1774 5.71812 19.0613L11.6691 13.1103L10.89 12.3312L4.93899 18.2821ZM13.522 4.1993C13.0591 3.73645 12.3087 3.73645 11.8459 4.1993L9.15481 6.89022C8.69196 7.35309 8.69196 8.10364 9.15481 8.5665L15.4338 14.8455C15.8966 15.3083 16.6472 15.3083 17.11 14.8455L19.801 12.1544C20.2639 11.6915 20.2639 10.9411 19.801 10.4783L13.522 4.1993Z" fill="white"/>
<path d="M10.7722 3.12493C11.8281 2.06903 13.5399 2.06903 14.5958 3.12493L16.8185 5.34758C17.2813 4.99924 17.9415 5.03568 18.3629 5.45696L18.7221 5.81568C19.1435 6.23713 19.1791 6.89714 18.8308 7.35995L20.8748 9.4039C21.9306 10.4598 21.9306 12.1716 20.8748 13.2275L18.1838 15.9185C17.128 16.9744 15.416 16.9743 14.3601 15.9185L12.6839 14.2423L6.79192 20.1344C6.08283 20.8434 4.93315 20.8433 4.22405 20.1344L3.86533 19.7756C3.15623 19.0664 3.15621 17.9168 3.86533 17.2078L9.75726 11.3157L8.08115 9.63958C7.02527 8.5837 7.02527 6.87172 8.08115 5.81585L10.7722 3.12493ZM14.478 3.24277C13.4872 2.25196 11.8809 2.25196 10.8901 3.24277L8.19899 5.93368C7.2082 6.92447 7.2082 8.53095 8.19899 9.52174L9.99293 11.3157L3.98317 17.3256C3.33915 17.9696 3.33913 19.0137 3.98317 19.6578L4.34189 20.0164C4.9859 20.6603 6.03006 20.6603 6.67408 20.0164L12.6249 14.0655L12.6839 14.0064L12.7428 14.0655L14.478 15.8007C15.4688 16.7914 17.0752 16.7914 18.066 15.8007L20.7569 13.1096C21.7477 12.1188 21.7477 10.5125 20.7569 9.52174L18.6057 7.37053L18.6562 7.31194C18.9992 6.91326 18.9821 6.31158 18.6043 5.93368L18.2454 5.57496C17.8675 5.19699 17.2655 5.1795 16.8668 5.52255L16.808 5.57301L16.7535 5.51832L14.478 3.24277ZM11.787 13.1096L5.77711 19.1194C5.62848 19.2681 5.38733 19.2681 5.2387 19.1194L4.88014 18.7608C4.73155 18.6121 4.7314 18.3711 4.87998 18.2224L10.8901 12.2127L11.787 13.1096ZM4.99798 18.3403C4.91441 18.4239 4.91441 18.5594 4.99798 18.643L5.3567 19.0016L5.37298 19.0164C5.45699 19.0849 5.58082 19.0799 5.65911 19.0016L11.5512 13.1095L10.8899 12.4482L4.99798 18.3403ZM11.787 4.13958C12.2824 3.64426 13.0856 3.64422 13.581 4.13958L19.86 10.4187C20.3553 10.9141 20.3553 11.7173 19.86 12.2127L17.169 14.9037C16.6737 15.3991 15.8703 15.3991 15.3749 14.9037L9.09596 8.62477C8.60057 8.12935 8.60057 7.3259 9.09596 6.83049L11.787 4.13958ZM13.4631 4.25758C13.0328 3.82727 12.3352 3.82727 11.9049 4.25758L9.2138 6.9485C8.7835 7.37882 8.78349 8.07661 9.2138 8.50693L15.4928 14.7859C15.9231 15.2161 16.6208 15.2161 17.051 14.7859L19.7421 12.0948C20.1724 11.6645 20.1724 10.9669 19.7421 10.5365L13.4631 4.25758Z" fill="white"/>
</g>
<defs>
<filter id="filter0_d_3907_167" x="-2.66675" y="-0.666992" width="29.3333" height="29.333" filterUnits="userSpaceOnUse" color-interpolation-filters="sRGB">
<feFlood flood-opacity="0" result="BackgroundImageFix"/>
<feColorMatrix in="SourceAlpha" type="matrix" values="0 0 0 0 0 0 0 0 0 0 0 0 0 0 0 0 0 0 127 0" result="hardAlpha"/>
<feOffset dy="2"/>
<feGaussianBlur stdDeviation="2"/>
<feComposite in2="hardAlpha" operator="out"/>
<feColorMatrix type="matrix" values="0 0 0 0 0 0 0 0 0 0 0 0 0 0 0 0 0 0 0.25 0"/>
<feBlend mode="normal" in2="BackgroundImageFix" result="effect1_dropShadow_3907_167"/>
<feBlend mode="normal" in="SourceGraphic" in2="effect1_dropShadow_3907_167" result="shape"/>
</filter>
<clipPath id="clip0_3907_167">
<rect width="24" height="24" fill="white"/>
</clipPath>
</defs>
</svg>
