<svg width="24" height="24" viewBox="0 0 24 24" fill="none" xmlns="http://www.w3.org/2000/svg">
<g clip-path="url(#clip0_3907_183)">
<mask id="mask0_3907_183" style="mask-type:luminance" maskUnits="userSpaceOnUse" x="0" y="0" width="24" height="24">
<path d="M17.3333 0H6.66667C2.98477 0 0 2.98477 0 6.66667V17.3333C0 21.0152 2.98477 24 6.66667 24H17.3333C21.0152 24 24 21.0152 24 17.3333V6.66667C24 2.98477 21.0152 0 17.3333 0Z" fill="white"/>
</mask>
<g mask="url(#mask0_3907_183)">
<path d="M17.3333 0H6.66667C2.98477 0 0 2.98477 0 6.66667V17.3333C0 21.0152 2.98477 24 6.66667 24H17.3333C21.0152 24 24 21.0152 24 17.3333V6.66667C24 2.98477 21.0152 0 17.3333 0Z" fill="#E5B422"/>
<path d="M36 17.3333C36 27.6427 27.6427 36 17.3333 36H6.66667C-3.64265 36 -12 27.6427 -12 17.3333V6.66667C-12 -3.64265 -3.64265 -12 6.66667 -12H17.3333C27.6427 -12 36 -3.64265 36 6.66667V17.3333Z" fill="black" fill-opacity="0.2"/>
</g>
<g filter="url(#filter0_d_3907_183)">
<path d="M17.3333 1.33301H6.66659C3.72107 1.33301 1.33325 3.72082 1.33325 6.66634V17.333C1.33325 20.2785 3.72107 22.6663 6.66659 22.6663H17.3333C20.2788 22.6663 22.6666 20.2785 22.6666 17.333V6.66634C22.6666 3.72082 20.2788 1.33301 17.3333 1.33301Z" fill="#E5B422"/>
</g>
<path d="M21.3867 15.8228L14.5689 4.51614C14.2932 4.08487 13.9134 3.72994 13.4644 3.48409C13.0155 3.23824 12.5118 3.10938 12 3.10938C11.4881 3.10938 10.9845 3.23824 10.5356 3.48409C10.0866 3.72994 9.70679 4.08487 9.43109 4.51614L2.61332 15.8228C2.37247 16.2243 2.24157 16.6821 2.23377 17.1503C2.22597 17.6183 2.34154 18.0803 2.56887 18.4894C2.8317 18.9501 3.21212 19.3328 3.67127 19.5983C4.13042 19.8638 4.65184 20.0026 5.1822 20.0006H18.8178C19.3447 20.0063 19.8637 19.8728 20.3225 19.6138C20.7813 19.3546 21.1638 18.9791 21.4312 18.5251C21.6652 18.1114 21.7843 17.6429 21.7765 17.1679C21.7687 16.6928 21.6342 16.2284 21.3867 15.8228ZM19.8755 17.6451C19.7687 17.8288 19.6137 17.9796 19.4272 18.0814C19.2408 18.1833 19.03 18.2321 18.8178 18.2228H5.1822C4.96995 18.2321 4.7592 18.1833 4.57275 18.0814C4.3863 17.9796 4.23125 17.8288 4.12444 17.6451C4.04642 17.5099 4.00534 17.3566 4.00534 17.2006C4.00534 17.0446 4.04642 16.8913 4.12444 16.7561L10.9511 5.44059C11.0738 5.27856 11.2323 5.14714 11.4143 5.05666C11.5963 4.96618 11.7968 4.91909 12 4.91909C12.2032 4.91909 12.4037 4.96618 12.5857 5.05666C12.7677 5.14714 12.9262 5.27856 13.0489 5.44059L19.8667 16.7473C19.9477 16.8826 19.9912 17.0371 19.9928 17.1949C19.9943 17.3528 19.9538 17.5081 19.8755 17.6451Z" fill="white"/>
<path d="M12 16.4448C12.4909 16.4448 12.8889 16.0468 12.8889 15.5559C12.8889 15.065 12.4909 14.667 12 14.667C11.5091 14.667 11.1111 15.065 11.1111 15.5559C11.1111 16.0468 11.5091 16.4448 12 16.4448Z" fill="white"/>
<path d="M12 8.44434C11.7642 8.44434 11.5381 8.53799 11.3714 8.70469C11.2047 8.87139 11.1111 9.09749 11.1111 9.33324V12.8888C11.1111 13.1245 11.2047 13.3506 11.3714 13.5173C11.5381 13.684 11.7642 13.7777 12 13.7777C12.2357 13.7777 12.4618 13.684 12.6285 13.5173C12.7952 13.3506 12.8889 13.1245 12.8889 12.8888V9.33324C12.8889 9.09749 12.7952 8.87139 12.6285 8.70469C12.4618 8.53799 12.2357 8.44434 12 8.44434Z" fill="white"/>
</g>
<defs>
<filter id="filter0_d_3907_183" x="-2.66675" y="-0.666992" width="29.3333" height="29.333" filterUnits="userSpaceOnUse" color-interpolation-filters="sRGB">
<feFlood flood-opacity="0" result="BackgroundImageFix"/>
<feColorMatrix in="SourceAlpha" type="matrix" values="0 0 0 0 0 0 0 0 0 0 0 0 0 0 0 0 0 0 127 0" result="hardAlpha"/>
<feOffset dy="2"/>
<feGaussianBlur stdDeviation="2"/>
<feComposite in2="hardAlpha" operator="out"/>
<feColorMatrix type="matrix" values="0 0 0 0 0 0 0 0 0 0 0 0 0 0 0 0 0 0 0.25 0"/>
<feBlend mode="normal" in2="BackgroundImageFix" result="effect1_dropShadow_3907_183"/>
<feBlend mode="normal" in="SourceGraphic" in2="effect1_dropShadow_3907_183" result="shape"/>
</filter>
<clipPath id="clip0_3907_183">
<rect width="24" height="24" fill="white"/>
</clipPath>
</defs>
</svg>
