<svg width="24" height="24" viewBox="0 0 24 24" fill="none" xmlns="http://www.w3.org/2000/svg">
<g clip-path="url(#clip0_3932_175)">
<mask id="mask0_3932_175" style="mask-type:luminance" maskUnits="userSpaceOnUse" x="0" y="0" width="24" height="24">
<path d="M17.3333 0H6.66667C2.98477 0 0 2.98477 0 6.66667V17.3333C0 21.0152 2.98477 24 6.66667 24H17.3333C21.0152 24 24 21.0152 24 17.3333V6.66667C24 2.98477 21.0152 0 17.3333 0Z" fill="white"/>
</mask>
<g mask="url(#mask0_3932_175)">
<path d="M17.3333 0H6.66667C2.98477 0 0 2.98477 0 6.66667V17.3333C0 21.0152 2.98477 24 6.66667 24H17.3333C21.0152 24 24 21.0152 24 17.3333V6.66667C24 2.98477 21.0152 0 17.3333 0Z" fill="#36B34A" stroke="black" stroke-opacity="0.2" stroke-width="144"/>
</g>
<g filter="url(#filter0_d_3932_175)">
<path d="M17.3335 1.33301H6.66683C3.72131 1.33301 1.3335 3.72082 1.3335 6.66634V17.333C1.3335 20.2785 3.72131 22.6663 6.66683 22.6663H17.3335C20.279 22.6663 22.6668 20.2785 22.6668 17.333V6.66634C22.6668 3.72082 20.279 1.33301 17.3335 1.33301Z" fill="#36B34A"/>
</g>
<path d="M9.96455 11.3684C9.79717 11.2011 9.57015 11.107 9.33343 11.107C9.09672 11.107 8.8697 11.2011 8.70232 11.3684C8.53495 11.5358 8.44092 11.7628 8.44092 11.9995C8.44092 12.2363 8.53495 12.4633 8.70232 12.6307L11.369 15.2973C11.4521 15.3797 11.5506 15.4449 11.6589 15.4891C11.7672 15.5334 11.8831 15.5558 12.0001 15.5551C12.1218 15.5512 12.2414 15.5224 12.3515 15.4704C12.4616 15.4185 12.5598 15.3444 12.6401 15.2529L18.8623 8.14178C19.006 7.9634 19.0753 7.73645 19.0556 7.50825C19.0361 7.28005 18.9293 7.06821 18.7573 6.9169C18.5853 6.76558 18.3616 6.68648 18.1328 6.6961C17.904 6.7057 17.6876 6.80326 17.529 6.96845L12.0001 13.3684L9.96455 11.3684Z" fill="white"/>
<path d="M19.9999 11.1113C19.7642 11.1113 19.538 11.205 19.3714 11.3717C19.2047 11.5384 19.111 11.7645 19.111 12.0002C19.111 13.8862 18.3619 15.6949 17.0282 17.0286C15.6947 18.3621 13.8859 19.1114 11.9999 19.1114C10.5956 19.1107 9.22284 18.6942 8.05484 17.9144C6.88684 17.1347 5.97587 16.0266 5.43681 14.7298C4.89776 13.433 4.75474 12.0056 5.02581 10.6277C5.29686 9.24973 5.96986 7.98288 6.95994 6.98689C7.61834 6.31968 8.40321 5.79048 9.26862 5.43028C10.134 5.07008 11.0626 4.88609 11.9999 4.88911C12.5683 4.89266 13.1347 4.95824 13.6888 5.08466C13.8048 5.12054 13.9269 5.13228 14.0476 5.11916C14.1683 5.10603 14.285 5.06833 14.3905 5.00838C14.4961 4.94843 14.5882 4.86748 14.6613 4.77055C14.7344 4.67361 14.7868 4.56274 14.8154 4.44476C14.844 4.32679 14.8481 4.20421 14.8275 4.08458C14.8069 3.96494 14.762 3.85081 14.6956 3.74919C14.6292 3.64758 14.5427 3.56064 14.4414 3.49374C14.3401 3.42684 14.2261 3.38141 14.1066 3.36023C13.4161 3.19778 12.7093 3.11428 11.9999 3.11133C10.2438 3.12046 8.52971 3.64958 7.07399 4.63191C5.61826 5.61424 4.48614 7.0058 3.82049 8.63091C3.15484 10.256 2.98551 12.0419 3.33384 13.7632C3.68217 15.4845 4.53257 17.0641 5.77772 18.3024C7.42811 19.9536 9.66541 20.8837 11.9999 20.8891C14.3574 20.8891 16.6183 19.9526 18.2854 18.2856C19.9524 16.6186 20.8889 14.3577 20.8889 12.0002C20.8889 11.7645 20.7952 11.5384 20.6285 11.3717C20.4617 11.205 20.2357 11.1113 19.9999 11.1113Z" fill="white"/>
</g>
<defs>
<filter id="filter0_d_3932_175" x="-2.6665" y="-0.666992" width="29.3335" height="29.333" filterUnits="userSpaceOnUse" color-interpolation-filters="sRGB">
<feFlood flood-opacity="0" result="BackgroundImageFix"/>
<feColorMatrix in="SourceAlpha" type="matrix" values="0 0 0 0 0 0 0 0 0 0 0 0 0 0 0 0 0 0 127 0" result="hardAlpha"/>
<feOffset dy="2"/>
<feGaussianBlur stdDeviation="2"/>
<feComposite in2="hardAlpha" operator="out"/>
<feColorMatrix type="matrix" values="0 0 0 0 0 0 0 0 0 0 0 0 0 0 0 0 0 0 0.25 0"/>
<feBlend mode="normal" in2="BackgroundImageFix" result="effect1_dropShadow_3932_175"/>
<feBlend mode="normal" in="SourceGraphic" in2="effect1_dropShadow_3932_175" result="shape"/>
</filter>
<clipPath id="clip0_3932_175">
<rect width="24" height="24" fill="white"/>
</clipPath>
</defs>
</svg>
