<svg width="24" height="24" viewBox="0 0 24 24" fill="none" xmlns="http://www.w3.org/2000/svg">
<path fill-rule="evenodd" clip-rule="evenodd" d="M10.7208 1.35938C10.7208 1.04857 10.8439 0.750503 11.0631 0.530734C11.2823 0.310965 11.5796 0.1875 11.8896 0.1875C12.1996 0.1875 12.4969 0.310965 12.7161 0.530734C12.9352 0.750503 13.0584 1.04857 13.0584 1.35938V3.70312H19.7791C19.9661 3.70312 20.1297 3.78516 20.2466 3.9375L23.3206 8.03906C23.3965 8.14049 23.4375 8.26385 23.4375 8.39062C23.4375 8.5174 23.3965 8.64076 23.3206 8.74219L20.2466 12.8438C20.1922 12.9165 20.1216 12.9756 20.0405 13.0163C19.9593 13.0569 19.8698 13.0781 19.7791 13.0781H13.0584V18.9375H15.396C16.016 18.9375 16.6106 19.1844 17.049 19.624C17.4874 20.0635 17.7337 20.6597 17.7337 21.2813V22.4531C17.7337 22.7639 17.6105 23.062 17.3913 23.2818C17.1721 23.5015 16.8748 23.625 16.5648 23.625H7.2143C6.90431 23.625 6.60701 23.5015 6.38782 23.2818C6.16862 23.062 6.04548 22.7639 6.04548 22.4531V21.2813C6.04548 19.9922 7.09741 18.9375 8.38311 18.9375H10.7208V13.0781H1.13644C1.03811 13.0764 0.941823 13.0497 0.856486 13.0007C0.771148 12.9517 0.699523 12.882 0.648244 12.7978C0.596964 12.7137 0.567689 12.6179 0.563129 12.5195C0.558569 12.421 0.578872 12.3229 0.622157 12.2344L2.42214 8.64844C2.46136 8.56818 2.48175 8.48 2.48175 8.39062C2.48175 8.30125 2.46136 8.21307 2.42214 8.13281L0.622157 4.54687C0.578457 4.45745 0.558208 4.35834 0.56332 4.2589C0.568433 4.15945 0.598739 4.06296 0.651377 3.97852C0.704015 3.89407 0.777249 3.82448 0.864164 3.77629C0.951079 3.72811 1.04881 3.70293 1.14813 3.70312H10.7208V1.35938Z" fill="#39BD62"/>
</svg>
