<svg width="24" height="24" viewBox="0 0 24 24" fill="none" xmlns="http://www.w3.org/2000/svg">
<g clip-path="url(#clip0_3285_21)">
<path d="M11.4783 9.39177C13.7836 9.39177 15.6522 7.52305 15.6522 5.21786C15.6522 2.91267 13.7836 1.04395 11.4783 1.04395C9.17317 1.04395 7.30444 2.91267 7.30444 5.21786C7.30444 7.52305 9.17317 9.39177 11.4783 9.39177Z" fill="#FF6565"/>
<path d="M10.9377 10.4346C5.44366 10.4346 0.989868 14.8883 0.989868 20.3824C0.989868 21.2277 1.67507 21.9128 2.52031 21.9128H2.75059C3.00082 21.9128 3.21404 21.7346 3.27618 21.4923C3.57392 20.331 4.15323 19.2287 4.6526 18.4566C4.79372 18.2384 5.10186 18.3581 5.07601 18.6167L4.80375 21.3391C4.77304 21.6463 5.01423 21.9128 5.3229 21.9128H11.4579C11.4579 20.8694 11.9715 20.2905 12.5055 19.3041L14.6087 15.6479C14.6087 15.6479 15.7704 13.5447 16.1943 12.9047C16.5404 12.4446 17.0244 12.0677 17.2174 11.9998C16.1739 10.9563 13.8623 10.4346 11.9116 10.4346H10.9377Z" fill="#FF6565"/>
<path fill-rule="evenodd" clip-rule="evenodd" d="M19.733 14.2191C19.3209 13.5012 18.2442 13.5012 17.8322 14.2191L13.701 21.4159C13.3034 22.1085 13.8264 22.9559 14.6514 22.9559L22.9138 22.956C23.7388 22.956 24.2618 22.1085 23.8642 21.416L19.733 14.2191ZM19.2476 16.1734H18.3175C18.0082 16.1734 17.7667 16.4411 17.7986 16.7488L18.016 18.8534C18.0332 19.0199 18.2007 19.1262 18.3644 19.091C18.4967 19.0625 18.6396 19.043 18.7826 19.043C18.9255 19.043 19.0685 19.0625 19.2007 19.091C19.3644 19.1262 19.532 19.0199 19.5492 18.8534L19.7666 16.7488C19.7984 16.4411 19.557 16.1734 19.2476 16.1734ZM19.826 20.8691C19.826 21.4454 19.3589 21.9126 18.7826 21.9126C18.2063 21.9126 17.7391 21.4454 17.7391 20.8691C17.7391 20.2928 18.2063 19.8256 18.7826 19.8256C19.3589 19.8256 19.826 20.2928 19.826 20.8691Z" fill="#FF6565"/>
</g>
<defs>
<clipPath id="clip0_3285_21">
<rect width="24" height="24" fill="white"/>
</clipPath>
</defs>
</svg>
