<svg width="18" height="18" viewBox="0 0 18 18" fill="none" xmlns="http://www.w3.org/2000/svg">
<path d="M17.8207 5.39998C17.8207 5.39998 17.6449 4.15896 17.1035 3.61404C16.418 2.89685 15.6516 2.89333 15.3 2.85115C12.7828 2.66833 9.00352 2.66833 9.00352 2.66833H8.99648C8.99648 2.66833 5.21719 2.66833 2.7 2.85115C2.34844 2.89333 1.58203 2.89685 0.896484 3.61404C0.355078 4.15896 0.182812 5.39998 0.182812 5.39998C0.182812 5.39998 0 6.85896 0 8.31443V9.67849C0 11.134 0.179297 12.5929 0.179297 12.5929C0.179297 12.5929 0.355078 13.834 0.892969 14.3789C1.57852 15.0961 2.47852 15.0715 2.8793 15.1488C4.3207 15.2859 9 15.3281 9 15.3281C9 15.3281 12.7828 15.3211 15.3 15.1418C15.6516 15.0996 16.418 15.0961 17.1035 14.3789C17.6449 13.834 17.8207 12.5929 17.8207 12.5929C17.8207 12.5929 18 11.1375 18 9.67849V8.31443C18 6.85896 17.8207 5.39998 17.8207 5.39998ZM7.14023 11.3344V6.27537L12.0023 8.81365L7.14023 11.3344Z" fill="white"/>
</svg>
